<svg width="550" height="403" viewBox="0 0 550 403" fill="none" xmlns="http://www.w3.org/2000/svg">
<path d="M534.399 400H20.2831C20.2831 400 83.2911 349.083 54.2623 303.984C25.2336 258.885 -34.0945 190.148 25.7559 107.408C85.6062 24.6677 177.313 -7.3379 322.76 1.39073C468.207 10.1194 508.053 83.5808 510.748 140.497C514.553 220.843 429 223.374 481.981 277.624C548.219 345.448 534.399 400 534.399 400Z" fill="#FFF0F1"/>
<path d="M218.482 266.054C220.966 266.054 222.98 264.04 222.98 261.556C222.98 259.072 220.966 257.059 218.482 257.059C215.998 257.059 213.984 259.072 213.984 261.556C213.984 264.04 215.998 266.054 218.482 266.054Z" fill="#FFD4D7"/>
<path d="M515.248 167.261C517.732 167.261 519.745 165.247 519.745 162.763C519.745 160.279 517.732 158.266 515.248 158.266C512.764 158.266 510.75 160.279 510.75 162.763C510.75 165.247 512.764 167.261 515.248 167.261Z" fill="#FFD4D7"/>
<path d="M398.653 85.4972C400.109 85.4972 401.29 84.3165 401.29 82.8599C401.29 81.4034 400.109 80.2227 398.653 80.2227C397.196 80.2227 396.016 81.4034 396.016 82.8599C396.016 84.3165 397.196 85.4972 398.653 85.4972Z" fill="#031C70"/>
<path d="M477.142 119.516C477.142 120.632 476.237 121.535 475.122 121.535C474.006 121.535 473.102 120.631 473.102 119.516C473.102 118.401 474.006 117.496 475.122 117.496C476.237 117.496 477.142 118.401 477.142 119.516Z" fill="#FDD449"/>
<path d="M409.144 131.57C410.596 131.57 411.773 130.393 411.773 128.941C411.773 127.489 410.596 126.312 409.144 126.312C407.693 126.312 406.516 127.489 406.516 128.941C406.516 130.393 407.693 131.57 409.144 131.57Z" fill="#FDD449"/>
<path opacity="0.3" d="M356.204 52.6719H137.992V194.269H356.204V52.6719Z" fill="#FFD4D7"/>
<path d="M342.946 80.6289H260.272C259.013 80.6289 257.992 79.6082 257.992 78.3491V77.9088C257.992 76.6497 259.013 75.6289 260.272 75.6289H342.946C344.205 75.6289 345.226 76.6497 345.226 77.9088V78.3491C345.226 79.6082 344.205 80.6289 342.946 80.6289Z" fill="#FFD4D7"/>
<path d="M342.946 97.7657H260.272C259.013 97.7657 257.992 96.7449 257.992 95.4858V95.0455C257.992 93.7864 259.013 92.7656 260.272 92.7656H342.946C344.205 92.7656 345.226 93.7864 345.226 95.0455V95.4858C345.226 96.7449 344.205 97.7657 342.946 97.7657Z" fill="#FFD4D7"/>
<path d="M342.946 114.91H260.272C259.013 114.91 257.992 113.889 257.992 112.63V112.19C257.992 110.931 259.013 109.91 260.272 109.91H342.946C344.205 109.91 345.226 110.931 345.226 112.19V112.63C345.226 113.889 344.205 114.91 342.946 114.91Z" fill="#FFD4D7"/>
<path d="M342.946 132.047H260.272C259.013 132.047 257.992 131.026 257.992 129.767V129.327C257.992 128.068 259.013 127.047 260.272 127.047H342.946C344.205 127.047 345.226 128.068 345.226 129.327V129.767C345.226 131.025 344.205 132.047 342.946 132.047Z" fill="#FFD4D7"/>
<path d="M342.946 149.188H260.272C259.013 149.188 257.992 148.167 257.992 146.908V146.467C257.992 145.208 259.013 144.188 260.272 144.188H342.946C344.205 144.188 345.226 145.208 345.226 146.467V146.908C345.226 148.167 344.205 149.188 342.946 149.188Z" fill="#FFD4D7"/>
<path d="M342.946 166.324H260.272C259.013 166.324 257.992 165.303 257.992 164.044V163.604C257.992 162.345 259.013 161.324 260.272 161.324H342.946C344.205 161.324 345.226 162.345 345.226 163.604V164.044C345.226 165.303 344.205 166.324 342.946 166.324Z" fill="#FFD4D7"/>
<path d="M242.149 121.381C242.149 145.601 222.512 165.239 198.303 165.239C174.082 165.239 154.445 145.602 154.445 121.381C154.445 97.1605 174.082 77.5234 198.303 77.5234C222.512 77.5234 242.149 97.1605 242.149 121.381Z" fill="#FFF0F1"/>
<path d="M236.083 121.379C236.083 142.254 219.158 159.179 198.292 159.179C177.417 159.179 160.492 142.254 160.492 121.379C160.492 100.504 177.417 83.5781 198.292 83.5781C219.158 83.5781 236.083 100.503 236.083 121.379Z" fill="#031C70"/>
<path d="M236.095 121.379H198.305V83.5781C219.17 83.5781 236.095 100.503 236.095 121.379Z" fill="#FDD449"/>
<path d="M189.328 48.3622L201.698 66.8564L216.468 47.7617L189.328 48.3622Z" fill="#FDD449"/>
<path d="M234.271 170.082L213.68 200.387L243.693 204.663L234.271 170.082Z" fill="white"/>
<path d="M211.925 185.108L221.624 172.164H208.773L211.925 185.108Z" fill="#FDD449"/>
<path d="M333.624 191.039L323.453 203.614L336.294 204.09L333.624 191.039Z" fill="#FDD449"/>
<path d="M346.014 43.2148L342.922 62.6718L362.198 54.6713L346.014 43.2148Z" fill="white"/>
<path d="M305.953 32.4726L324.313 58.8025L337.895 27.6289L305.953 32.4726Z" fill="#FFD4D7"/>
<path d="M136.579 60.5273L150.092 66.5167L135.727 76.5521L136.579 60.5273Z" fill="#FFD4D7"/>
<path d="M349.868 169.566L363.382 175.556L349.016 185.591L349.868 169.566Z" fill="#FFD4D7"/>
<path d="M183.729 252.407H56.9634C51.1552 252.407 46.4297 247.682 46.4297 241.874V170.082H48.2882V241.874C48.2882 246.657 52.1798 250.549 56.9634 250.549H183.729C188.513 250.549 192.405 246.657 192.405 241.874V200.348H194.263V241.874C194.264 247.682 189.538 252.407 183.729 252.407Z" fill="#FFD4D7"/>
<path d="M74.417 140.503C74.417 145.644 73.1312 150.213 71.2231 154.127C67.8272 161.083 62.4621 165.975 58.8422 168.349C53.1941 172.054 55.2328 179.652 55.2328 179.652H39.4732C39.4732 179.652 41.5157 172.053 35.86 168.349C32.3716 166.061 27.2591 161.428 23.8556 154.863C21.7454 150.788 20.2891 145.97 20.2891 140.503C20.2891 126.232 30.208 114.594 47.3525 114.594C64.497 114.594 74.417 126.233 74.417 140.503Z" fill="#FDD449"/>
<path d="M58.5072 186.929H36.1731C35.2581 186.929 34.5156 186.188 34.5156 185.272V181.31C34.5156 180.395 35.2571 179.652 36.1731 179.652H58.5072C59.4222 179.652 60.1647 180.394 60.1647 181.31V185.272C60.1647 186.187 59.4232 186.929 58.5072 186.929Z" fill="#031C70"/>
<path d="M57.7444 186.93V200.309C57.7444 202.248 56.1746 203.819 54.2341 203.819H40.4712C38.5317 203.819 36.9609 202.248 36.9609 200.309V186.93H57.7444Z" fill="#031C70"/>
<path d="M50.0296 208.057H44.6779C42.3361 208.057 40.4375 206.158 40.4375 203.816H54.269C54.269 206.159 52.3704 208.057 50.0296 208.057Z" fill="#031C70"/>
<path d="M52.5897 155.418C50.4176 155.418 48.6515 157.185 48.6515 159.356V162.739H48.3856H46.323H46.0571V159.356C46.0571 157.184 44.2901 155.418 42.1179 155.418C39.9458 155.418 38.1797 157.185 38.1797 159.356V160.932C38.1797 163.104 39.9468 164.87 42.1179 164.87H43.925V179.651H46.0562V164.87H46.3221H48.3846H48.6505V179.651H50.7817V164.87H52.5888C54.7609 164.87 56.528 163.103 56.528 160.932V159.356C56.5289 157.184 54.7618 155.418 52.5897 155.418ZM43.925 162.739H42.1179C41.1219 162.739 40.3108 161.928 40.3108 160.932V159.356C40.3108 158.36 41.1219 157.549 42.1179 157.549C43.1149 157.549 43.925 158.36 43.925 159.356V162.739ZM54.3978 160.932C54.3978 161.928 53.5867 162.739 52.5907 162.739H50.7836V159.356C50.7836 158.36 51.5947 157.549 52.5907 157.549C53.5876 157.549 54.3978 158.36 54.3978 159.356V160.932Z" fill="white"/>
<path d="M193.326 205.964C195.81 205.964 197.824 203.951 197.824 201.466C197.824 198.982 195.81 196.969 193.326 196.969C190.842 196.969 188.828 198.982 188.828 201.466C188.828 203.951 190.842 205.964 193.326 205.964Z" fill="#FFD4D7"/>
<path d="M65.3704 280.551L65.3046 279.695C65.1064 277.917 65.7002 275.973 67.3462 273.997C68.8283 272.252 69.6518 270.967 69.6518 269.485C69.6518 267.806 68.5976 266.686 66.5227 266.653C65.3371 266.653 64.0199 267.048 63.1964 267.673L62.4062 265.598C63.4928 264.808 65.3704 264.281 67.1156 264.281C70.9032 264.281 72.6159 266.62 72.6159 269.123C72.6159 271.363 71.3645 272.977 69.7833 274.853C68.3346 276.566 67.8075 278.015 67.9057 279.695L67.939 280.551H65.3704ZM64.6461 285.162C64.6461 283.943 65.4695 283.087 66.6218 283.087C67.7751 283.087 68.5652 283.943 68.5652 285.162C68.5652 286.314 67.8075 287.204 66.5885 287.204C65.4371 287.204 64.6461 286.314 64.6461 285.162Z" fill="#FFD4D7"/>
<path d="M512.231 125.042L512.139 123.835C511.86 121.329 512.695 118.591 515.015 115.807C517.104 113.348 518.263 111.538 518.263 109.45C518.263 107.083 516.778 105.506 513.855 105.459C512.184 105.459 510.329 106.016 509.169 106.897L508.055 103.974C509.586 102.86 512.23 102.117 514.69 102.117C520.027 102.117 522.44 105.412 522.44 108.94C522.44 112.094 520.677 114.369 518.449 117.013C516.408 119.427 515.665 121.468 515.804 123.836L515.851 125.042H512.231V125.042ZM511.21 131.538C511.21 129.82 512.37 128.615 513.995 128.615C515.619 128.615 516.733 129.821 516.733 131.538C516.733 133.162 515.665 134.414 513.948 134.414C512.324 134.414 511.21 133.162 511.21 131.538Z" fill="#FFD4D7"/>
<path d="M374.827 47.5845L374.767 46.8067C374.587 45.1902 375.127 43.4241 376.623 41.6275C377.971 40.0415 378.719 38.8739 378.719 37.5262C378.719 35.9993 377.761 34.9824 375.875 34.9519C374.797 34.9519 373.6 35.3112 372.851 35.8802L372.133 33.994C373.12 33.2753 374.827 32.7969 376.413 32.7969C379.856 32.7969 381.412 34.9223 381.412 37.1974C381.412 39.2323 380.275 40.6992 378.838 42.4062C377.521 43.9636 377.042 45.2798 377.132 46.8067L377.162 47.5845H374.827ZM374.17 51.7763C374.17 50.6688 374.918 49.8901 375.965 49.8901C377.013 49.8901 377.731 50.6678 377.731 51.7763C377.731 52.8237 377.042 53.632 375.935 53.632C374.887 53.632 374.17 52.8237 374.17 51.7763Z" fill="#FFD4D7"/>
<path d="M217.201 324.705H154.992V268.625H157.193V322.504H217.201V324.705Z" fill="white"/>
<path d="M211.608 285.583L210.933 280.633L205.982 281.308L204.167 283.696L207.658 283.22L195.296 299.484L182.822 288.204L165.43 313.289L167.142 314.476L183.183 291.34L195.582 302.554L209.317 284.481L209.793 287.972L211.608 285.583Z" fill="white"/>
<path opacity="0.3" d="M29.6189 294.178C17.8452 301.751 35.7331 335.23 48.6782 332.813C61.6242 330.396 41.2573 286.692 29.6189 294.178Z" fill="#FFD4D7"/>
<path opacity="0.3" d="M508.045 49.8902C520.531 34.5107 457.6 -1.63905 445.791 13.3115C438.257 22.8474 497.71 62.6191 508.045 49.8902Z" fill="#FFD4D7"/>
<path opacity="0.3" d="M25.2461 289.334C19.0891 292.207 11.7892 279.947 19.6085 276.366C27.4287 272.786 33.4295 285.515 25.2461 289.334Z" fill="#FFD4D7"/>
<path opacity="0.3" d="M519.735 290.562C509.298 295.673 527.845 328.517 539.847 328.435C551.849 328.352 535.264 282.957 519.735 290.562Z" fill="#FFD4D7"/>
<path opacity="0.3" d="M543.973 333.807C536.87 334.358 540.59 345.27 545.681 345.448C550.773 345.626 550.995 333.261 543.973 333.807Z" fill="#FFD4D7"/>
<path d="M193.153 400.001H155.279C153.717 394.917 155.279 387.779 155.279 387.779L154.665 381.069L153.977 373.596L168.448 371.867L169.582 376.626L171.357 384.108C173.282 385.855 185.885 388.579 189.044 391.748C192.214 394.917 193.153 400.001 193.153 400.001Z" fill="#F6B68E"/>
<path d="M169.582 376.626C165.214 379.787 158.27 380.771 154.665 381.069L153.977 373.596L168.448 371.867L169.582 376.626Z" fill="#C4764B"/>
<path d="M193.151 400.004H155.28C153.719 394.92 155.28 387.779 155.28 387.779C155.28 387.779 166.952 389.95 171.36 384.113C173.283 385.856 185.888 388.579 189.048 391.749C192.218 394.92 193.151 400.004 193.151 400.004Z" fill="#031C70"/>
<path d="M137.592 400.001H99.7173C98.1561 394.917 99.7173 387.78 99.7173 387.78L100.284 382.705L100.879 377.37L116.168 374.926L115.954 380.279L115.796 384.109C117.721 385.856 130.323 388.58 133.484 391.749C136.653 394.917 137.592 400.001 137.592 400.001Z" fill="#F6B68E"/>
<path d="M100.892 377.37L116.18 374.926L115.967 380.279C109.907 382.269 103.736 382.668 100.297 382.705L100.892 377.37Z" fill="#C4764B"/>
<path d="M102.655 258.516L101.009 316.919L98.2734 377.629C98.2734 377.629 108.997 380.915 117.991 376.765L125.948 317.957L132.52 281.117L141.341 317.611L151.719 375.381C151.719 375.381 162.616 377.457 170.399 372.613L164 311.211L157.427 255.172L102.655 258.516Z" fill="#031C70"/>
<path d="M141.38 132.07C141.38 132.07 145.291 129.703 144.879 125.378C144.468 121.055 139.423 120.643 137.673 118.481C135.923 116.319 133.458 112.098 126.867 112.098C120.275 112.098 115.849 116.421 116.26 120.128C116.26 120.128 110.598 118.995 108.231 123.216C105.863 127.436 108.025 131.555 107.098 133.51C106.172 135.466 106.172 140.511 108.848 143.393C111.525 146.275 109.775 148.643 112.76 152.247C115.745 155.849 119.987 155.13 119.987 155.13L141.38 132.07Z" fill="#222850"/>
<path d="M212.235 158.007C211.956 159.178 208.443 161.269 205.432 162.887C203.09 164.133 201.044 165.09 201.044 165.09L194.594 160.145L196.025 157.747L196.573 156.817C196.573 156.817 198.023 145.153 199.427 144.112C200.83 143.081 201.909 144.41 202.169 145.748C202.429 147.077 202.429 150.339 202.429 150.339C202.429 150.339 204.911 146.593 204.948 146.482C204.985 146.37 207.319 139.418 208.647 139.307C209.977 139.195 210.274 140.041 210.349 140.897C210.423 141.752 209.465 145.859 209.465 145.859C209.465 145.859 211.677 147.709 211.789 148.481C211.9 149.26 212.728 155.934 212.235 158.007Z" fill="#F6B68E"/>
<path d="M205.432 162.882C203.09 164.128 201.044 165.085 201.044 165.085L194.594 160.14L196.025 157.742C198.33 158.207 202.866 159.509 205.432 162.882Z" fill="#C4764B"/>
<path d="M147.504 163.877L170.104 184.26L193.223 159.181C193.223 159.181 199.616 158.953 202.557 166.044C202.557 166.044 181.288 194.119 171.603 200.346L152.94 194.403C152.94 194.403 147.101 180.163 147.504 163.877Z" fill="#FC694C"/>
<path d="M141.995 151.119C141.72 151.535 141.402 151.897 141.04 152.198C141.04 152.198 141.04 152.198 141.031 152.198C138.662 154.231 134.79 154.001 134.79 154.001L135.117 157.511L135.612 162.85C135.612 162.85 134.374 166.457 128.716 166.351C123.05 166.245 119.76 162.54 119.76 162.54L120.273 145.762C120.273 145.762 118.011 145.037 117.595 143.295C117.179 141.544 116.261 138.141 117.595 137.734C118.93 137.319 120.99 137.832 121.511 139.379L122.024 141.845L123.872 141.748C123.872 141.748 123.465 137.735 124.703 136.188C125.932 134.641 130.564 133.306 130.564 129.602C130.564 129.602 134.993 134.641 141.375 132.068C141.375 132.068 144.054 147.928 141.995 151.119Z" fill="#F6B68E"/>
<path d="M158.591 236.726C158.163 239.468 157.67 242.098 157.215 244.31C156.453 248.018 155.821 250.565 155.821 250.565C155.821 250.565 135.746 256.662 111.413 252.675C109.415 252.36 107.379 251.959 105.325 251.486C105.325 251.486 104.117 249.478 102.751 247.052C101.004 243.966 98.9871 240.192 98.8565 239.03C98.7078 237.646 101.933 205.729 104.099 184.566C105.186 173.952 106.013 166.042 106.013 166.042C106.013 166.042 109.955 161.961 117.333 159.563V159.554C118.142 159.294 118.988 159.043 119.871 158.838C119.871 158.838 123.663 164.814 129.862 163.736C136.071 162.668 135.374 160.315 135.374 160.315L135.198 158.41C135.198 158.41 136.193 158.735 137.633 159.265C140.653 160.372 145.645 162.332 147.522 163.875C147.52 163.876 159.743 229.346 158.591 236.726Z" fill="#FC694C"/>
<path d="M111.051 219.967L107.714 239.978L111.051 248.706L111.413 252.674L112.138 260.686C112.138 260.686 112.138 260.686 112.129 260.686C108.467 260.166 105.39 259.403 102.667 258.521C102.667 258.521 98.9118 252.545 102.751 247.052C101.004 243.966 98.9871 240.192 98.8565 239.03C98.7078 237.646 101.933 205.729 104.099 184.566L107.714 182.707V198.907H134.342V205.246L111.051 219.967Z" fill="#D64F38"/>
<path d="M157.431 255.177C157.431 255.177 151.892 259.35 135.637 260.856C125.58 261.785 118.079 261.552 112.131 260.688C112.131 260.688 112.131 260.688 112.122 260.688C108.46 260.168 105.383 259.405 102.66 258.523C102.66 258.523 98.9048 252.546 102.744 247.054C102.744 247.054 105.365 248.02 111.044 248.708C115.625 249.266 122.215 249.647 131.026 249.183C150.74 248.142 157.208 244.312 157.208 244.312C157.208 244.312 160.257 249.237 157.431 255.177Z" fill="#FC694C"/>
<path d="M112.131 260.685C112.131 260.685 112.131 260.685 112.122 260.685C108.46 260.165 105.383 259.402 102.66 258.52C102.66 258.52 98.9048 252.544 102.744 247.051C102.744 247.051 105.365 248.017 111.044 248.705L111.406 252.674L112.131 260.685Z" fill="#D64F38"/>
<path d="M143.165 191.961C142.82 192.739 142.388 195.24 141.865 196.628C141.353 198.007 138.497 200.341 137.109 201.128C135.774 201.879 131.284 202.631 128.994 202.675C128.915 202.683 128.834 202.683 128.755 202.683C126.563 202.683 123.619 202.683 123.619 202.683L121.117 193.25C121.117 193.25 124.397 190.748 125.608 189.794C126.82 188.839 129.674 186.506 131.319 186.25C132.814 186.02 134.528 186.206 134.82 186.241L134.078 188.354L134.069 188.381C134.042 188.629 133.848 190.256 134.166 190.521C134.511 190.794 137.375 190.883 138.586 190.38C139.797 189.885 142.997 187.983 143.687 188.762C144.377 189.539 143.51 191.183 143.165 191.961Z" fill="#F6B68E"/>
<path d="M165.951 179.764L152.46 212.163L126.523 209.626L128.981 202.678C131.27 202.634 135.761 201.882 137.096 201.131C138.484 200.344 141.339 198.011 141.852 196.631C142.374 195.244 142.807 192.742 143.152 191.964C143.497 191.186 144.364 189.542 143.674 188.764C142.985 187.987 139.784 189.887 138.573 190.382C137.361 190.886 134.497 190.797 134.153 190.523C133.835 190.258 134.029 188.631 134.056 188.383L134.064 188.357L134.807 186.243L139.43 173.195L165.951 179.764Z" fill="#FFF0F1"/>
<path d="M106.001 166.047C106.001 166.047 89.4538 194.468 89.2812 210.38C89.2812 210.38 90.1457 214.185 96.7183 214.704C103.291 215.223 124.565 203.807 124.565 203.807C124.565 203.807 125.603 195.16 121.625 192.046L105.28 196.802C105.28 196.802 110.959 174.467 106.001 166.047Z" fill="#FC694C"/>
<path d="M129.837 167.139C122.517 167.917 117.328 159.563 117.328 159.563V159.554C118.133 159.298 118.982 159.05 119.865 158.838C119.865 158.838 123.658 164.814 129.855 163.735C136.06 162.666 135.371 160.323 135.371 160.323L135.194 158.414C135.194 158.414 136.184 158.741 137.625 159.272C138.88 162.162 137.147 166.361 129.837 167.139Z" fill="#D64F38"/>
<path d="M125.723 163.434L120.766 170.71C120.766 170.71 115.918 165.768 115.258 160.311L119.914 157.512L125.723 163.434Z" fill="#FFF0F1"/>
<path d="M133.492 162.678L135.145 157.852L139.775 160.085C139.775 160.085 140.25 163.163 138.981 167.193L133.492 162.678Z" fill="#FFF0F1"/>
<path d="M137.589 400.004H99.7173C98.1561 394.92 99.7173 387.779 99.7173 387.779C99.7173 387.779 111.389 389.95 115.797 384.113C117.721 385.856 130.325 388.579 133.486 391.749C136.656 394.92 137.589 400.004 137.589 400.004Z" fill="#031C70"/>
<path d="M132.523 281.118L139.961 272.816L135.46 293.268L132.523 281.118Z" fill="#222850"/>
<path d="M105.277 196.801L101.125 202.685L111.035 195.125L105.277 196.801Z" fill="#D64F38"/>
<path d="M134.782 154.003L135.109 157.512C123.749 157.291 124.333 145.578 124.333 145.578C131.219 155.206 140.493 152.377 141.023 152.199C138.654 154.232 134.782 154.003 134.782 154.003Z" fill="#C4764B"/>
<g filter="url(#filter0_d_3012_8573)">
<path d="M146.261 39.2227H44.8359V80.199H146.261V39.2227Z" fill="#A32E37"/>
<path d="M126.547 80.1992V94.5703L133.507 80.1992H126.547Z" fill="#031C70"/>
<path d="M138.429 51.9235H52.6688C52.2046 51.9235 51.8281 51.547 51.8281 51.0828C51.8281 50.6187 52.2046 50.2422 52.6688 50.2422H138.429C138.893 50.2422 139.27 50.6187 139.27 51.0828C139.27 51.547 138.893 51.9235 138.429 51.9235Z" fill="white"/>
<path d="M138.429 60.5563H52.6688C52.2046 60.5563 51.8281 60.1798 51.8281 59.7157C51.8281 59.2515 52.2046 58.875 52.6688 58.875H138.429C138.893 58.875 139.27 59.2515 139.27 59.7157C139.27 60.1789 138.893 60.5563 138.429 60.5563Z" fill="white"/>
<path d="M138.429 69.1813H52.6688C52.2046 69.1813 51.8281 68.8048 51.8281 68.3407C51.8281 67.8765 52.2046 67.5 52.6688 67.5H138.429C138.893 67.5 139.27 67.8765 139.27 68.3407C139.27 68.8048 138.893 69.1813 138.429 69.1813Z" fill="white"/>
</g>
<g filter="url(#filter1_d_3012_8573)">
<g clip-path="url(#clip0_3012_8573)">
<path d="M438.2 161.047H279.031V367.873H438.2V161.047Z" fill="#FFF0F1"/>
<path d="M315.387 223H290.313C286.714 223 283.797 220.081 283.797 216.481V191.394C283.797 187.794 286.714 184.875 290.313 184.875H315.387C318.985 184.875 321.902 187.794 321.902 191.394V216.481C321.902 220.081 318.985 223 315.387 223Z" fill="#031C70"/>
<path d="M316.965 194.26V212.876C316.965 213.429 316.872 213.96 316.701 214.456C316.115 216.153 314.612 217.422 312.785 217.669C312.571 217.698 312.351 217.714 312.13 217.714H293.522C291.425 217.714 289.641 216.379 288.971 214.512C288.787 214.001 288.688 213.45 288.688 212.876V194.26C288.688 191.588 290.852 189.422 293.523 189.422H312.13C314.8 189.422 316.965 191.588 316.965 194.26Z" fill="#A3E9F3"/>
<path d="M300.394 202.254C300.394 202.254 300.3 205.169 299.927 206.474L296.977 208.534L308.084 210.197L305.435 206.535C305.435 206.535 304.635 202.627 305.055 201.182C305.474 199.736 300.394 202.254 300.394 202.254Z" fill="#FFB27D"/>
<path d="M300.375 202.656C300.375 202.655 301.253 204.772 302.908 204.725C304.562 204.678 304.939 202.807 304.939 202.807L300.375 202.656Z" fill="#ED985F"/>
<path d="M299.391 200.943C299.391 200.943 298.857 198.274 298.484 197.466C298.111 196.658 297.8 193.052 301.932 192.865C301.932 192.865 303.517 193.052 304.387 192.523C304.387 192.523 304.387 193.052 304.169 193.238C304.169 193.238 305.598 192.896 306.717 194.14C307.836 195.383 305.972 199.735 306.065 200.761L299.391 200.943Z" fill="#393B3A"/>
<path d="M302.718 203.905C301.519 203.884 299.312 202.287 299.312 200.309V197.223C299.312 196.501 299.816 195.91 300.431 195.91H305.005C305.62 195.91 306.123 196.501 306.123 197.223V200.135C306.123 202.209 304.093 203.93 302.718 203.905Z" fill="#FFB27D"/>
<path d="M299.317 198.871C299.317 198.871 299.323 197.017 300.791 196.731C302.259 196.446 305.544 197.635 306.011 196.283C306.477 194.931 299.66 194.954 299.317 195.817C298.973 196.679 299.317 198.871 299.317 198.871Z" fill="#393B3A"/>
<path d="M309.688 207.355C309.686 207.354 309.685 207.353 309.683 207.353C309.373 207.238 309.21 207.225 309.21 207.225V207.23C308.003 206.926 306.861 206.715 305.794 206.578C305.673 206.562 305.553 206.548 305.434 206.534C304.706 207.502 304.122 207.944 303.51 208.252C303.373 208.32 303.237 208.382 303.096 208.442C302.974 208.493 302.849 208.543 302.721 208.594C302.56 208.572 302.403 208.531 302.249 208.475C302.161 208.443 302.074 208.407 301.988 208.366C300.814 207.812 299.926 206.508 299.926 206.473C299.762 206.489 299.602 206.508 299.448 206.528C298.061 206.701 297.117 206.958 296.709 207.086C296.709 207.086 296.708 207.086 296.707 207.086C296.622 207.096 293.597 207.513 288.969 214.511C289.639 216.377 291.423 217.712 293.52 217.712H312.127C312.349 217.712 312.568 217.697 312.782 217.668C314.61 217.42 316.113 216.152 316.699 214.454C313.192 209.132 310.685 207.724 309.688 207.355Z" fill="#FFAE00"/>
<path d="M300.078 205.762C300.078 205.762 299.585 205.967 299.445 206.527C299.445 206.527 301.424 208.563 302.718 208.594L300.078 205.762Z" fill="#018061"/>
<path d="M302.719 208.595L305.272 205.66C305.272 205.66 305.799 206.007 305.792 206.578C305.792 206.578 303.817 208.673 302.719 208.595Z" fill="#018061"/>
<path d="M303.864 217.711H301.312C301.613 214.284 301.98 210.893 302.156 209.307C302.192 208.985 302.22 208.737 302.238 208.579C302.241 208.553 302.244 208.529 302.246 208.507C302.248 208.496 302.249 208.484 302.25 208.475C302.258 208.411 302.261 208.377 302.261 208.377L302.517 208.373L302.919 208.366H302.92L303.091 208.363C303.091 208.363 303.093 208.39 303.097 208.441C303.099 208.469 303.102 208.504 303.106 208.547C303.109 208.58 303.112 208.618 303.115 208.66C303.131 208.847 303.154 209.119 303.183 209.46C303.321 211.116 303.596 214.413 303.864 217.711Z" fill="#018061"/>
<path d="M301.752 207.553C301.752 207.553 302.93 207.435 303.647 207.508C303.789 207.522 303.869 207.678 303.799 207.803C303.598 208.165 303.188 208.793 302.759 208.793C302.157 208.793 301.218 207.595 301.752 207.553Z" fill="#031C70"/>
<path d="M395.449 294.484H370.375C366.776 294.484 363.859 291.565 363.859 287.965V262.878C363.859 259.278 366.776 256.359 370.375 256.359H395.449C399.048 256.359 401.965 259.278 401.965 262.878V287.965C401.965 291.565 399.048 294.484 395.449 294.484Z" fill="#031C70"/>
<path d="M397.027 265.744V284.36C397.027 284.913 396.934 285.445 396.764 285.94C396.178 287.638 394.675 288.906 392.847 289.154C392.633 289.183 392.414 289.198 392.192 289.198H373.585C371.488 289.198 369.704 287.863 369.034 285.997C368.85 285.485 368.75 284.934 368.75 284.36V265.744C368.75 263.073 370.914 260.906 373.585 260.906H392.192C394.862 260.906 397.027 263.073 397.027 265.744Z" fill="#A3E9F3"/>
<path d="M380.457 273.739C380.457 273.739 380.363 276.653 379.99 277.959L377.039 280.018L388.146 281.681L385.497 278.019C385.497 278.019 384.698 274.112 385.117 272.666C385.536 271.221 380.457 273.739 380.457 273.739Z" fill="#FFB27D"/>
<path d="M380.438 274.141C380.438 274.14 381.316 276.256 382.97 276.209C384.625 276.163 385.001 274.291 385.001 274.291L380.438 274.141Z" fill="#ED985F"/>
<path d="M379.453 272.427C379.453 272.427 378.919 269.758 378.546 268.95C378.173 268.142 377.863 264.536 381.995 264.35C381.995 264.35 383.579 264.536 384.449 264.008C384.449 264.008 384.449 264.536 384.232 264.723C384.232 264.723 385.661 264.381 386.78 265.624C387.898 266.868 386.034 271.22 386.127 272.245L379.453 272.427Z" fill="#393B3A"/>
<path d="M382.78 275.39C381.581 275.369 379.375 273.772 379.375 271.794V268.708C379.375 267.986 379.878 267.395 380.493 267.395H385.067C385.682 267.395 386.186 267.986 386.186 268.708V271.619C386.186 273.693 384.155 275.414 382.78 275.39Z" fill="#FFB27D"/>
<path d="M379.379 270.355C379.379 270.355 379.386 268.501 380.854 268.216C382.321 267.931 385.607 269.12 386.073 267.767C386.539 266.415 379.722 266.438 379.379 267.301C379.036 268.164 379.379 270.355 379.379 270.355Z" fill="#393B3A"/>
<path d="M389.75 278.839C389.749 278.838 389.748 278.837 389.746 278.837C389.436 278.722 389.273 278.709 389.273 278.709V278.714C388.065 278.41 386.923 278.2 385.857 278.062C385.736 278.046 385.615 278.032 385.497 278.018C384.768 278.987 384.185 279.429 383.572 279.737C383.436 279.805 383.299 279.867 383.158 279.926C383.036 279.977 382.912 280.028 382.784 280.078C382.623 280.056 382.465 280.015 382.312 279.96C382.223 279.928 382.136 279.892 382.051 279.851C380.877 279.296 379.989 277.992 379.989 277.957C379.824 277.974 379.664 277.992 379.511 278.012C378.123 278.185 377.18 278.443 376.772 278.57C376.772 278.57 376.771 278.57 376.77 278.57C376.684 278.581 373.659 278.997 369.031 285.995C369.701 287.861 371.486 289.196 373.583 289.196H392.19C392.412 289.196 392.631 289.181 392.845 289.152C394.672 288.904 396.175 287.636 396.761 285.939C393.255 280.616 390.748 279.208 389.75 278.839Z" fill="#FFAE00"/>
<path d="M380.141 277.246C380.141 277.246 379.648 277.452 379.508 278.011C379.508 278.011 381.486 280.047 382.781 280.078L380.141 277.246Z" fill="#018061"/>
<path d="M382.781 280.08L385.335 277.145C385.335 277.145 385.862 277.492 385.854 278.063C385.854 278.063 383.879 280.157 382.781 280.08Z" fill="#018061"/>
<path d="M383.927 289.196H381.375C381.676 285.768 382.042 282.377 382.218 280.792C382.255 280.469 382.282 280.222 382.301 280.064C382.303 280.037 382.306 280.013 382.309 279.992C382.311 279.98 382.311 279.969 382.312 279.959C382.32 279.896 382.324 279.862 382.324 279.862L382.579 279.857L382.981 279.85H382.982L383.153 279.848C383.153 279.848 383.156 279.874 383.159 279.926C383.162 279.953 383.165 279.988 383.169 280.032C383.172 280.064 383.174 280.102 383.178 280.144C383.194 280.331 383.217 280.603 383.245 280.944C383.384 282.6 383.659 285.898 383.927 289.196Z" fill="#018061"/>
<path d="M381.815 279.038C381.815 279.038 382.993 278.92 383.71 278.992C383.852 279.007 383.931 279.163 383.862 279.288C383.661 279.65 383.251 280.277 382.822 280.277C382.219 280.277 381.28 279.079 381.815 279.038Z" fill="#031C70"/>
<path d="M374.48 386.937H349.406C345.808 386.937 342.891 384.018 342.891 380.418V355.331C342.891 351.731 345.808 348.812 349.406 348.812H374.48C378.079 348.812 380.996 351.731 380.996 355.331V380.418C380.996 384.018 378.079 386.937 374.48 386.937Z" fill="#031C70"/>
<path d="M376.059 358.197V376.813C376.059 377.366 375.966 377.898 375.795 378.393C375.209 380.091 373.706 381.359 371.878 381.607C371.664 381.636 371.445 381.651 371.223 381.651H352.616C350.519 381.651 348.735 380.316 348.065 378.45C347.881 377.939 347.781 377.387 347.781 376.813V358.197C347.781 355.526 349.945 353.359 352.616 353.359H371.223C373.893 353.359 376.059 355.526 376.059 358.197Z" fill="#A3E9F3"/>
<path d="M359.488 366.192C359.488 366.192 359.394 369.106 359.021 370.412L356.07 372.471L367.178 374.134L364.529 370.472C364.529 370.472 363.729 366.565 364.148 365.12C364.568 363.674 359.488 366.192 359.488 366.192Z" fill="#FFB27D"/>
<path d="M359.469 366.594C359.469 366.593 360.347 368.709 362.001 368.662C363.656 368.616 364.032 366.744 364.032 366.744L359.469 366.594Z" fill="#ED985F"/>
<path d="M358.485 364.88C358.485 364.88 357.95 362.212 357.577 361.403C357.205 360.595 356.894 356.989 361.026 356.803C361.026 356.803 362.611 356.989 363.481 356.461C363.481 356.461 363.481 356.989 363.263 357.176C363.263 357.176 364.692 356.834 365.811 358.077C366.929 359.321 365.065 363.673 365.159 364.698L358.485 364.88Z" fill="#393B3A"/>
<path d="M361.812 367.843C360.613 367.822 358.406 366.225 358.406 364.247V361.161C358.406 360.439 358.91 359.848 359.525 359.848H364.098C364.714 359.848 365.217 360.439 365.217 361.161V364.072C365.217 366.146 363.186 367.867 361.812 367.843Z" fill="#FFB27D"/>
<path d="M358.41 362.808C358.41 362.808 358.417 360.954 359.885 360.669C361.353 360.384 364.638 361.573 365.104 360.22C365.57 358.868 358.754 358.892 358.41 359.754C358.067 360.617 358.41 362.808 358.41 362.808Z" fill="#393B3A"/>
<path d="M422.137 210.609H397.062C393.464 210.609 390.547 207.69 390.547 204.09V179.003C390.547 175.403 393.464 172.484 397.062 172.484H422.137C425.735 172.484 428.652 175.403 428.652 179.003V204.09C428.652 207.69 425.735 210.609 422.137 210.609Z" fill="#031C70"/>
<path d="M423.715 181.868V200.485C423.715 200.906 423.66 201.315 423.56 201.705C423.167 203.217 422.061 204.442 420.623 204.998C420.568 205.02 420.513 205.04 420.458 205.058C419.962 205.23 419.432 205.323 418.879 205.323H400.272C400.027 205.323 399.786 205.304 399.55 205.268C398.044 205.043 396.765 204.123 396.05 202.843C395.66 202.145 395.438 201.342 395.438 200.486V181.869C395.438 179.197 397.602 177.031 400.272 177.031H418.879C421.55 177.031 423.715 179.197 423.715 181.868Z" fill="#A3E9F3"/>
<path d="M407.988 188.849C407.988 188.849 407.906 191.383 407.582 192.519L405.016 194.31L414.675 195.756L412.371 192.572C412.371 192.572 411.676 189.174 412.041 187.917C412.405 186.66 407.988 188.849 407.988 188.849Z" fill="#FFB27D"/>
<path d="M407.977 189.199C407.977 189.198 408.74 191.039 410.179 190.998C411.618 190.958 411.945 189.33 411.945 189.33L407.977 189.199Z" fill="#ED985F"/>
<path d="M407.113 187.708C407.113 187.708 406.649 185.388 406.324 184.685C406 183.982 405.73 180.846 409.324 180.684C409.324 180.684 410.701 180.846 411.458 180.387C411.458 180.387 411.458 180.846 411.269 181.008C411.269 181.008 412.512 180.711 413.485 181.792C414.457 182.874 412.836 186.658 412.917 187.55L407.113 187.708Z" fill="#393B3A"/>
<path d="M412.977 184.474V187.006C412.977 187.429 412.88 187.836 412.716 188.21H412.715C412.431 188.856 411.948 189.404 411.419 189.774C410.95 190.104 410.446 190.293 410.016 190.285C409.641 190.278 409.154 190.094 408.682 189.782C408.047 189.361 407.443 188.707 407.185 187.936L407.181 187.925L407.172 187.893C407.097 187.656 407.055 187.411 407.055 187.158V184.474C407.055 183.846 407.493 183.332 408.028 183.332H412.004C412.539 183.332 412.977 183.846 412.977 184.474Z" fill="#FFB27D"/>
<path d="M415.658 193.175C415.658 193.175 413.39 192.687 412.374 192.568C411.477 193.76 410.834 194.08 410.015 194.404C408.696 194.222 407.585 192.553 407.585 192.516C406.15 192.664 405.181 192.97 404.786 193.093C404.786 193.093 404.786 193.093 404.785 193.093C404.693 193.105 401.18 193.594 396.047 202.886C396.762 204.165 398.041 205.086 399.547 205.311C400.209 204.74 401.63 203.506 402.744 202.538C402.731 202.85 402.729 203.133 402.736 203.38C402.755 204.045 402.776 204.705 402.791 205.366H416.795C416.768 205.031 416.747 204.707 416.731 204.398C416.683 203.435 416.638 202.555 416.597 201.752C416.596 201.745 416.596 201.738 416.595 201.731C416.595 201.723 416.594 201.714 416.594 201.706C416.595 201.707 416.596 201.708 416.597 201.709C416.8 201.885 417.041 202.095 417.305 202.323C417.357 202.369 417.411 202.415 417.465 202.462C417.511 202.503 417.559 202.544 417.607 202.586C417.672 202.642 417.739 202.699 417.805 202.758C417.925 202.862 418.047 202.967 418.169 203.074C418.225 203.123 418.282 203.172 418.338 203.221C418.368 203.247 418.398 203.273 418.428 203.299C418.462 203.329 418.497 203.359 418.531 203.389C418.557 203.411 418.583 203.433 418.608 203.456C418.669 203.507 418.728 203.56 418.788 203.611C418.837 203.654 418.885 203.696 418.934 203.738C418.974 203.773 419.015 203.808 419.055 203.843C419.202 203.972 419.347 204.097 419.487 204.219C419.543 204.267 419.598 204.315 419.653 204.362C419.71 204.412 419.767 204.461 419.822 204.509C419.86 204.543 419.899 204.576 419.937 204.609C419.955 204.624 419.972 204.639 419.988 204.653C420.047 204.704 420.103 204.754 420.158 204.8C420.215 204.85 420.27 204.898 420.322 204.944C420.344 204.963 420.366 204.981 420.387 205C420.41 205.02 420.433 205.039 420.455 205.058C420.51 205.039 420.565 205.019 420.62 204.997C422.058 204.441 423.164 203.217 423.557 201.704C418.749 193.423 415.658 193.175 415.658 193.175Z" fill="#FFE94D"/>
<path d="M407.055 185.909C407.055 185.909 407.06 184.297 408.337 184.049C409.613 183.801 412.471 184.835 412.876 183.659C413.281 182.483 407.353 182.503 407.055 183.253C406.756 184.003 407.055 185.909 407.055 185.909Z" fill="#393B3A"/>
<path d="M404.445 205.323H402.785C402.771 204.662 402.75 204.002 402.73 203.337C402.723 203.09 402.726 202.807 402.738 202.495C402.741 202.425 402.744 202.354 402.747 202.281C402.763 202.307 402.792 202.352 402.83 202.415C403.078 202.82 403.755 203.948 404.445 205.323Z" fill="#F9CF00"/>
<path d="M411.416 188.66V189.777C410.947 190.106 410.444 190.295 410.013 190.287C409.639 190.28 409.151 190.096 408.68 189.784V188.66C408.68 188.037 409.189 187.527 409.812 187.527H410.284C410.907 187.527 411.416 188.037 411.416 188.66Z" fill="#393B3A"/>
<path d="M420.615 205.001C420.56 205.023 420.505 205.043 420.45 205.061C420.428 205.043 420.405 205.024 420.382 205.003C420.361 204.985 420.339 204.967 420.317 204.947C420.265 204.902 420.21 204.854 420.153 204.804C420.098 204.758 420.042 204.707 419.983 204.657C419.967 204.643 419.95 204.628 419.933 204.613C419.894 204.58 419.855 204.546 419.817 204.512C419.762 204.465 419.705 204.416 419.648 204.366C419.593 204.319 419.538 204.271 419.482 204.222C419.342 204.101 419.197 203.976 419.051 203.847C419.01 203.812 418.969 203.777 418.929 203.742C418.88 203.7 418.832 203.658 418.783 203.615C418.723 203.563 418.664 203.511 418.604 203.459C418.578 203.436 418.552 203.415 418.526 203.393C418.492 203.362 418.457 203.332 418.423 203.303C418.393 203.276 418.363 203.251 418.333 203.225C418.277 203.176 418.22 203.127 418.164 203.078C418.042 202.971 417.92 202.866 417.8 202.762C417.734 202.703 417.667 202.645 417.602 202.589C417.554 202.547 417.506 202.506 417.46 202.466C417.406 202.419 417.352 202.372 417.3 202.327C417.037 202.098 416.795 201.888 416.592 201.712C416.587 201.708 416.582 201.704 416.578 201.7C416.578 201.7 416.583 201.696 416.59 201.691C416.723 201.597 417.934 200.797 418.699 202.15C419.238 203.101 420.098 204.302 420.615 205.001Z" fill="#F9CF00"/>
<path d="M412.707 188.212C412.172 189.431 410.924 190.303 410.008 190.287C409.129 190.271 407.626 189.28 407.177 187.938L407.174 187.927L407.164 187.895C407.164 187.895 408.109 188.701 408.734 188.302H411.358C411.358 188.302 412.045 188.694 412.707 188.212Z" fill="#393B3A"/>
<path d="M410.33 188.523H409.764C409.634 188.523 409.469 188.31 409.469 188.181C409.469 188.181 409.634 188.051 409.764 188.051H410.33C410.46 188.051 410.649 188.159 410.68 188.236C410.68 188.236 410.601 188.523 410.33 188.523Z" fill="#FFB27D"/>
<path d="M377.34 246.828H352.266C348.667 246.828 345.75 243.909 345.75 240.309V215.222C345.75 211.622 348.667 208.703 352.266 208.703H377.34C380.938 208.703 383.855 211.622 383.855 215.222V240.309C383.855 243.909 380.938 246.828 377.34 246.828Z" fill="#FC694C"/>
<path d="M378.918 218.088V236.704C378.918 237.169 378.852 237.62 378.73 238.045C378.169 239.991 376.42 241.434 374.319 241.536C374.241 241.54 374.162 241.542 374.082 241.542H355.475C355.442 241.542 355.409 241.542 355.376 241.54C355.344 241.54 355.312 241.539 355.28 241.537C353.171 241.454 351.41 240.019 350.838 238.074C350.709 237.64 350.641 237.18 350.641 236.704V218.088C350.641 215.416 352.805 213.25 355.475 213.25H374.082C376.753 213.25 378.918 215.416 378.918 218.088Z" fill="#A3E9F3"/>
<path d="M362 226.715C362 226.715 361.893 230.026 361.469 231.509L358.117 233.849L370.736 235.738L367.726 231.578C367.726 231.578 366.818 227.139 367.294 225.497C367.771 223.855 362 226.715 362 226.715Z" fill="#FFB27D"/>
<path d="M361.977 227.172C361.977 227.171 362.974 229.575 364.854 229.522C366.733 229.469 367.161 227.343 367.161 227.343L361.977 227.172Z" fill="#ED985F"/>
<path d="M360.854 225.225C360.854 225.225 360.247 222.193 359.824 221.275C359.4 220.357 359.047 216.26 363.742 216.049C363.742 216.049 365.542 216.26 366.53 215.66C366.53 215.66 366.53 216.26 366.283 216.472C366.283 216.472 367.907 216.084 369.177 217.497C370.448 218.909 368.33 223.853 368.436 225.019L360.854 225.225Z" fill="#393B3A"/>
<path d="M364.642 228.591C363.28 228.567 360.773 226.752 360.773 224.506V221C360.773 220.179 361.345 219.508 362.044 219.508H367.24C367.939 219.508 368.511 220.179 368.511 221V224.307C368.511 226.663 366.204 228.618 364.642 228.591Z" fill="#FFB27D"/>
<path d="M360.775 222.873C360.775 222.873 360.782 220.766 362.45 220.442C364.118 220.118 367.85 221.469 368.38 219.933C368.909 218.397 361.165 218.423 360.775 219.403C360.385 220.383 360.775 222.873 360.775 222.873Z" fill="#393B3A"/>
<path d="M373.133 241.542H355.475C355.442 241.542 355.408 241.542 355.375 241.541C355.821 237.493 356.78 232.612 357.547 232.291C357.547 232.291 357.634 232.259 357.803 232.206C357.806 232.205 357.808 232.205 357.808 232.205C358.208 232.08 359.058 231.846 360.292 231.657C360.295 231.657 360.298 231.656 360.301 231.656C360.657 231.601 361.045 231.551 361.463 231.508C361.463 231.557 362.915 233.68 364.638 233.918C365.708 233.494 366.549 233.133 367.721 231.577C368.107 231.623 368.502 231.675 368.907 231.738C369.891 231.89 370.927 232.096 372.01 232.369C372.138 232.4 372.268 232.434 372.397 232.469H372.398C372.45 232.481 372.5 232.495 372.552 232.509C372.552 232.509 372.564 232.562 372.595 232.88C372.595 232.88 372.595 232.88 372.595 232.88C372.662 233.599 372.82 235.672 373.133 241.542Z" fill="#FFF0F1"/>
<path d="M357.694 232.228C357.689 232.229 357.685 232.23 357.68 232.232C357.614 232.246 357.525 232.27 357.411 232.31C357.404 232.312 357.397 232.314 357.392 232.316C357.386 232.318 357.38 232.32 357.376 232.321C357.369 232.324 357.365 232.324 357.365 232.324C356.434 232.648 354.101 233.832 350.844 238.075C351.416 240.02 353.178 241.455 355.286 241.538C355.318 241.54 355.35 241.541 355.382 241.541C355.415 241.543 355.448 241.543 355.482 241.543H357.238H360.169C360.22 238.553 360.256 235.953 360.279 234.171C360.288 233.383 360.295 232.756 360.301 232.324C360.305 231.892 360.308 231.656 360.308 231.656C360.305 231.656 360.302 231.657 360.299 231.657C359.375 231.767 358.242 232.07 357.694 232.228Z" fill="#018061"/>
<path d="M372.559 232.51C372.322 232.421 372.16 232.385 372.079 232.372C372.077 232.372 372.076 232.372 372.075 232.371C371.452 232.213 370.043 231.874 368.914 231.738C368.914 231.738 368.914 231.738 368.914 231.739C368.914 231.765 368.918 232.303 368.924 233.232V233.233C368.93 233.829 368.937 234.586 368.945 235.47C368.96 237.118 368.983 239.21 369.014 241.543H372.362H374.089C374.168 241.543 374.247 241.542 374.326 241.537C376.427 241.436 378.176 239.993 378.736 238.047C375.69 234.056 373.514 232.863 372.559 232.51Z" fill="#018061"/>
<path d="M367.929 222.701C367.768 222.504 367.502 222.391 367.2 222.391H365.67C365.379 222.391 365.176 222.475 365.066 222.639C365.015 222.716 364.989 222.803 364.979 222.892C364.979 222.893 364.979 222.893 364.979 222.893C364.723 222.83 364.473 222.862 364.3 222.906V222.905C364.291 222.811 364.266 222.72 364.212 222.639C364.103 222.475 363.9 222.391 363.608 222.391H362.079C361.777 222.391 361.512 222.504 361.351 222.701C361.204 222.879 361.155 223.112 361.208 223.374C361.382 224.239 362.378 224.349 362.876 224.349C363.029 224.349 363.135 224.338 363.155 224.337C363.621 224.336 363.948 224.07 364.186 223.5C364.227 223.404 364.292 223.221 364.302 223.031C364.467 222.987 364.721 222.947 364.976 223.017V223.017C364.984 223.212 365.051 223.401 365.093 223.5C365.331 224.07 365.659 224.336 366.124 224.337C366.144 224.338 366.25 224.349 366.404 224.349C366.901 224.349 367.897 224.239 368.071 223.374C368.124 223.112 368.075 222.879 367.929 222.701ZM364.198 223.062C364.182 223.233 364.121 223.394 364.093 223.462C363.873 223.99 363.573 224.236 363.152 224.236H363.146C363.142 224.237 362.73 224.285 362.297 224.197C361.73 224.081 361.396 223.797 361.307 223.354C361.261 223.123 361.303 222.919 361.429 222.764C361.571 222.591 361.808 222.491 362.079 222.491H363.609C363.864 222.491 364.039 222.56 364.129 222.695C364.176 222.764 364.197 222.848 364.201 222.933C364.201 222.933 364.201 222.933 364.201 222.934C364.123 222.958 364.074 222.98 364.067 222.983C364.036 222.997 364.023 223.033 364.037 223.063C364.047 223.085 364.069 223.099 364.092 223.099C364.1 223.099 364.109 223.097 364.117 223.093C364.118 223.092 364.148 223.079 364.198 223.062C364.198 223.062 364.198 223.062 364.198 223.062ZM367.972 223.354C367.883 223.797 367.549 224.081 366.981 224.197C366.549 224.285 366.137 224.237 366.133 224.236H366.127C365.706 224.236 365.407 223.99 365.186 223.462C365.157 223.393 365.095 223.227 365.08 223.052C365.08 223.052 365.08 223.052 365.08 223.052C365.109 223.063 365.138 223.076 365.167 223.092C365.196 223.107 365.233 223.096 365.248 223.067C365.264 223.037 365.253 223.001 365.224 222.985C365.176 222.96 365.127 222.94 365.078 222.923C365.078 222.923 365.078 222.923 365.078 222.922C365.085 222.841 365.106 222.763 365.15 222.695C365.24 222.56 365.415 222.491 365.67 222.491H367.2C367.472 222.491 367.709 222.591 367.851 222.764C367.977 222.919 368.019 223.123 367.972 223.354Z" fill="#FFE94D"/>
<path d="M368.762 196.312H343.688C340.089 196.312 337.172 193.393 337.172 189.793V164.706C337.172 161.106 340.089 158.188 343.688 158.188H368.762C372.36 158.188 375.277 161.106 375.277 164.706V189.793C375.277 193.393 372.36 196.312 368.762 196.312Z" fill="#FDD449"/>
<path d="M370.34 167.573V186.189C370.34 186.654 370.274 187.104 370.152 187.53C369.591 189.476 367.842 190.918 365.741 191.02C365.662 191.024 365.584 191.026 365.504 191.026H346.897C346.864 191.026 346.831 191.026 346.798 191.024C346.766 191.024 346.734 191.023 346.702 191.022C344.593 190.938 342.832 189.503 342.259 187.558C342.131 187.124 342.062 186.664 342.062 186.189V167.573C342.062 164.9 344.227 162.734 346.897 162.734H365.504C368.175 162.734 370.34 164.9 370.34 167.573Z" fill="#A3E9F3"/>
<path d="M353.422 176.199C353.422 176.199 353.315 179.51 352.891 180.993L349.539 183.333L362.157 185.222L359.148 181.062C359.148 181.062 358.239 176.623 358.716 174.981C359.192 173.339 353.422 176.199 353.422 176.199Z" fill="#FFB27D"/>
<path d="M353.398 176.656C353.398 176.655 354.396 179.059 356.276 179.006C358.155 178.953 358.583 176.827 358.583 176.827L353.398 176.656Z" fill="#ED985F"/>
<path d="M352.276 174.709C352.276 174.709 351.669 171.678 351.246 170.759C350.822 169.841 350.469 165.745 355.163 165.533C355.163 165.533 356.964 165.745 357.952 165.145C357.952 165.145 357.952 165.745 357.705 165.957C357.705 165.957 359.329 165.568 360.599 166.981C361.87 168.393 359.752 173.338 359.858 174.503L352.276 174.709Z" fill="#393B3A"/>
<path d="M356.064 178.075C354.702 178.051 352.195 176.237 352.195 173.99V170.484C352.195 169.664 352.767 168.992 353.466 168.992H358.662C359.361 168.992 359.933 169.664 359.933 170.484V173.792C359.933 176.148 357.626 178.103 356.064 178.075Z" fill="#FFB27D"/>
<path d="M352.197 172.357C352.197 172.357 352.204 170.25 353.872 169.926C355.539 169.603 359.272 170.953 359.802 169.417C360.331 167.881 352.587 167.907 352.197 168.887C351.807 169.867 352.197 172.357 352.197 172.357Z" fill="#393B3A"/>
<path d="M364.555 191.027H346.897C346.864 191.027 346.83 191.027 346.797 191.025C347.243 186.978 348.202 182.097 348.969 181.775C348.969 181.775 349.056 181.743 349.225 181.69C349.228 181.689 349.23 181.689 349.23 181.689C349.63 181.564 350.48 181.33 351.714 181.141C351.717 181.141 351.72 181.14 351.723 181.14C352.079 181.085 352.467 181.035 352.885 180.992C352.885 181.041 354.337 183.164 356.059 183.403C357.13 182.979 357.971 182.618 359.143 181.061C359.529 181.107 359.924 181.16 360.329 181.223C361.313 181.374 362.349 181.58 363.432 181.853C363.56 181.885 363.689 181.918 363.819 181.953H363.82C363.871 181.965 363.922 181.979 363.974 181.993C363.974 181.993 363.986 182.047 364.017 182.364C364.017 182.364 364.017 182.364 364.017 182.365C364.083 183.084 364.242 185.157 364.555 191.027Z" fill="#FFF0F1"/>
<path d="M349.116 181.712C349.111 181.713 349.107 181.714 349.102 181.716C349.036 181.731 348.947 181.755 348.833 181.794C348.826 181.797 348.819 181.798 348.814 181.8C348.807 181.803 348.802 181.804 348.798 181.805C348.791 181.808 348.787 181.809 348.787 181.809C347.856 182.132 345.523 183.316 342.266 187.56C342.838 189.504 344.6 190.94 346.708 191.023C346.74 191.024 346.772 191.025 346.804 191.025C346.837 191.027 346.87 191.027 346.903 191.027H348.659H351.591C351.642 188.038 351.678 185.437 351.701 183.655C351.71 182.868 351.717 182.241 351.723 181.809C351.727 181.376 351.73 181.141 351.73 181.141C351.727 181.141 351.724 181.141 351.721 181.141C350.797 181.252 349.664 181.555 349.116 181.712Z" fill="#018061"/>
<path d="M363.981 181.994C363.744 181.906 363.582 181.87 363.5 181.856C363.499 181.856 363.498 181.856 363.497 181.855C362.874 181.697 361.465 181.358 360.336 181.223C360.336 181.223 360.336 181.223 360.336 181.224C360.336 181.249 360.339 181.788 360.346 182.717V182.718C360.352 183.313 360.359 184.07 360.366 184.955C360.382 186.602 360.405 188.695 360.436 191.028H363.784H365.51C365.59 191.028 365.669 191.026 365.748 191.022C367.849 190.92 369.598 189.478 370.158 187.531C367.112 183.54 364.936 182.347 363.981 181.994Z" fill="#018061"/>
<path d="M359.35 172.185C359.189 171.988 358.924 171.875 358.622 171.875H357.092C356.801 171.875 356.598 171.959 356.488 172.124C356.437 172.201 356.411 172.287 356.401 172.377C356.401 172.377 356.401 172.377 356.401 172.378C356.145 172.314 355.895 172.347 355.722 172.39V172.389C355.713 172.295 355.688 172.204 355.634 172.124C355.525 171.959 355.322 171.875 355.03 171.875H353.501C353.199 171.875 352.934 171.988 352.773 172.185C352.626 172.364 352.577 172.597 352.63 172.859C352.804 173.723 353.8 173.833 354.297 173.833C354.451 173.833 354.557 173.823 354.577 173.821C355.042 173.82 355.37 173.554 355.608 172.985C355.649 172.888 355.714 172.705 355.724 172.515C355.889 172.471 356.143 172.431 356.398 172.501V172.501C356.406 172.697 356.473 172.886 356.515 172.985C356.753 173.554 357.081 173.82 357.546 173.821C357.566 173.823 357.672 173.833 357.826 173.833C358.323 173.833 359.319 173.723 359.493 172.859C359.546 172.597 359.497 172.364 359.35 172.185ZM355.62 172.547C355.604 172.718 355.543 172.879 355.515 172.946C355.295 173.474 354.995 173.72 354.574 173.72H354.568C354.564 173.721 354.151 173.769 353.719 173.681C353.152 173.565 352.818 173.282 352.729 172.838C352.683 172.607 352.725 172.403 352.851 172.249C352.992 172.075 353.23 171.976 353.501 171.976H355.03C355.286 171.976 355.461 172.045 355.551 172.18C355.598 172.249 355.619 172.332 355.623 172.417C355.623 172.417 355.623 172.418 355.623 172.418C355.545 172.443 355.495 172.465 355.489 172.468C355.458 172.482 355.445 172.517 355.459 172.548C355.469 172.57 355.491 172.583 355.514 172.583C355.522 172.583 355.531 172.581 355.539 172.578C355.54 172.577 355.57 172.564 355.62 172.546C355.62 172.547 355.62 172.547 355.62 172.547ZM359.394 172.838C359.305 173.282 358.971 173.565 358.403 173.681C357.971 173.769 357.559 173.721 357.555 173.72H357.549C357.128 173.72 356.828 173.474 356.608 172.946C356.579 172.877 356.517 172.712 356.502 172.536C356.502 172.536 356.502 172.536 356.502 172.536C356.531 172.548 356.56 172.561 356.589 172.576C356.618 172.591 356.655 172.58 356.67 172.551C356.686 172.521 356.675 172.485 356.645 172.469C356.597 172.444 356.549 172.424 356.5 172.407C356.5 172.407 356.5 172.407 356.5 172.407C356.507 172.325 356.528 172.247 356.572 172.18C356.662 172.045 356.837 171.976 357.092 171.976H358.622C358.894 171.976 359.131 172.075 359.273 172.249C359.399 172.403 359.441 172.607 359.394 172.838Z" fill="#FFE94D"/>
<path d="M330.637 274.468H305.563C301.964 274.468 299.047 271.55 299.047 267.949V242.863C299.047 239.262 301.964 236.344 305.563 236.344H330.637C334.235 236.344 337.152 239.262 337.152 242.863V267.95C337.152 271.55 334.235 274.468 330.637 274.468Z" fill="#FDD449"/>
<path d="M332.215 245.729V264.345C332.215 265.535 331.784 266.625 331.072 267.468C330.186 268.516 328.861 269.182 327.38 269.182H308.772C307.551 269.182 306.435 268.73 305.585 267.982C304.574 267.095 303.938 265.795 303.938 264.345V245.729C303.938 243.057 306.102 240.891 308.772 240.891H327.38C330.05 240.891 332.215 243.057 332.215 245.729Z" fill="#A3E9F3"/>
<path d="M316.111 258.213C316.111 258.213 313.076 258.061 312.99 256.308C312.905 254.555 310.398 253.277 311.124 251.87C312.015 250.144 311.202 248.486 312.326 247.325C313.565 246.047 315.13 246.741 315.956 245.996C316.782 245.252 318.292 244.565 319.781 245.485C321.27 246.405 322.406 245.91 323.385 246.796C324.466 247.775 324.057 249.008 324.949 249.677C325.766 250.29 325.433 251.967 324.744 253.328C324.248 254.31 325.392 255.23 323.428 256.358C322.611 256.828 322.788 258.009 320.306 258.213C319.189 258.305 316.763 257.781 316.111 258.213Z" fill="#393B3A"/>
<path d="M316.196 256.659C316.196 256.659 316.107 259.397 315.757 260.624L312.984 262.559L323.422 264.122L320.933 260.681C320.933 260.681 320.181 257.009 320.575 255.651C320.97 254.293 316.196 256.659 316.196 256.659Z" fill="#B56F40"/>
<path d="M316.18 257.035C316.18 257.034 317.005 259.023 318.56 258.979C320.114 258.936 320.468 257.177 320.468 257.177L316.18 257.035Z" fill="#99592E"/>
<path d="M318.387 258.212C317.261 258.193 315.188 256.692 315.188 254.833V251.933C315.188 251.255 315.66 250.699 316.239 250.699H320.536C321.114 250.699 321.587 251.255 321.587 251.933V254.669C321.587 256.618 319.679 258.235 318.387 258.212Z" fill="#B56F40"/>
<path d="M324.487 261.38C324.486 261.38 324.485 261.38 324.485 261.38C323.221 261.062 322.034 260.81 320.937 260.682C319.967 261.969 319.273 262.312 318.387 262.662C316.962 262.465 315.761 260.665 315.761 260.625C314.21 260.783 313.164 261.112 312.737 261.245C312.737 261.245 312.736 261.245 312.733 261.246C312.608 261.262 309.834 261.692 305.594 268.026C306.444 268.774 307.56 269.227 308.781 269.227H310.697H312.245H325.428C325.427 269.212 325.427 269.198 325.426 269.183H327.389C328.869 269.183 330.195 268.517 331.081 267.469C328.102 262.351 324.487 261.38 324.487 261.38Z" fill="#018061"/>
<path d="M315.186 253.11C315.186 253.11 315.968 250.722 318.53 251.095C321.092 251.467 321.314 252.015 321.586 252.65C321.859 253.286 322.384 250.328 322.384 250.328L319.362 249.43C319.362 249.43 315.705 249.846 315.442 250.459C315.18 251.073 315.18 251.073 315.18 251.073L315.186 253.11Z" fill="#393B3A"/>
<path d="M321.312 253.423C321.168 253.248 320.933 253.148 320.664 253.148H319.305C319.046 253.148 318.866 253.222 318.768 253.369C318.722 253.436 318.699 253.514 318.691 253.594C318.691 253.594 318.691 253.594 318.691 253.595C318.463 253.538 318.241 253.567 318.087 253.605V253.604C318.08 253.521 318.056 253.44 318.009 253.369C317.912 253.222 317.731 253.148 317.473 253.148H316.112C315.844 253.148 315.608 253.248 315.466 253.423C315.335 253.582 315.292 253.789 315.339 254.021C315.494 254.791 316.378 254.889 316.821 254.889C316.957 254.889 317.051 254.879 317.068 254.877C317.482 254.876 317.774 254.64 317.985 254.134C318.021 254.047 318.08 253.886 318.089 253.717C318.235 253.677 318.461 253.642 318.688 253.704V253.704C318.695 253.878 318.754 254.046 318.791 254.134C319.003 254.64 319.294 254.876 319.708 254.877C319.725 254.879 319.82 254.889 319.956 254.889C320.398 254.889 321.284 254.79 321.438 254.022C321.485 253.789 321.441 253.582 321.312 253.423ZM317.997 253.745C317.982 253.897 317.928 254.04 317.903 254.1C317.707 254.569 317.441 254.788 317.067 254.788H317.061C317.057 254.789 316.691 254.832 316.307 254.753C315.802 254.65 315.506 254.398 315.426 254.004C315.385 253.798 315.422 253.617 315.535 253.48C315.661 253.326 315.872 253.238 316.112 253.238H317.473C317.699 253.238 317.855 253.298 317.935 253.419C317.976 253.48 317.994 253.554 317.999 253.63V253.63C317.929 253.652 317.885 253.672 317.879 253.675C317.852 253.687 317.841 253.719 317.853 253.745C317.862 253.765 317.881 253.777 317.902 253.777C317.909 253.777 317.917 253.775 317.924 253.772C317.925 253.771 317.952 253.759 317.997 253.744C317.997 253.744 317.997 253.744 317.997 253.745ZM321.351 254.004C321.272 254.398 320.975 254.65 320.47 254.753C320.086 254.832 319.72 254.789 319.716 254.788H319.711C319.336 254.788 319.07 254.569 318.875 254.1C318.848 254.039 318.793 253.891 318.78 253.736C318.78 253.736 318.78 253.735 318.78 253.735C318.806 253.745 318.832 253.757 318.857 253.771C318.884 253.785 318.916 253.775 318.93 253.749C318.944 253.722 318.933 253.69 318.908 253.676C318.865 253.654 318.823 253.637 318.78 253.622C318.78 253.621 318.78 253.621 318.78 253.62C318.785 253.548 318.804 253.478 318.843 253.419C318.923 253.298 319.078 253.238 319.305 253.238H320.664C320.906 253.238 321.117 253.326 321.243 253.48C321.355 253.617 321.392 253.798 321.351 254.004Z" fill="#031C70"/>
<path d="M421.184 345.953H396.109C392.511 345.953 389.594 343.034 389.594 339.434V314.347C389.594 310.747 392.511 307.828 396.109 307.828H421.184C424.782 307.828 427.699 310.747 427.699 314.347V339.434C427.699 343.034 424.782 345.953 421.184 345.953Z" fill="#FDD449"/>
<path d="M422.762 317.213V335.829C422.762 337.02 422.331 338.11 421.619 338.953C420.733 340 419.407 340.667 417.927 340.667H399.319C398.098 340.667 396.982 340.214 396.132 339.466C395.121 338.58 394.484 337.279 394.484 335.829V317.213C394.484 314.542 396.649 312.375 399.319 312.375H417.927C420.597 312.375 422.762 314.542 422.762 317.213Z" fill="#A3E9F3"/>
<path d="M406.658 329.697C406.658 329.697 403.623 329.545 403.537 327.793C403.452 326.04 400.945 324.761 401.671 323.355C402.561 321.629 401.749 319.97 402.873 318.81C404.112 317.531 405.677 318.226 406.503 317.481C407.328 316.736 408.839 316.049 410.328 316.97C411.817 317.89 412.953 317.394 413.932 318.281C415.013 319.26 414.604 320.492 415.495 321.161C416.313 321.775 415.98 323.451 415.291 324.813C414.795 325.794 415.939 326.714 413.975 327.842C413.158 328.312 413.335 329.493 410.853 329.697C409.735 329.789 407.31 329.265 406.658 329.697Z" fill="#393B3A"/>
<path d="M406.743 328.143C406.743 328.143 406.654 330.882 406.304 332.109L403.531 334.044L413.969 335.607L411.48 332.166C411.48 332.166 410.728 328.494 411.122 327.135C411.516 325.777 406.743 328.143 406.743 328.143Z" fill="#B56F40"/>
<path d="M406.727 328.52C406.727 328.519 407.552 330.508 409.107 330.464C410.661 330.42 411.015 328.661 411.015 328.661L406.727 328.52Z" fill="#99592E"/>
<path d="M408.934 329.697C407.808 329.677 405.734 328.176 405.734 326.318V323.418C405.734 322.739 406.207 322.184 406.786 322.184H411.083C411.661 322.184 412.134 322.739 412.134 323.418V326.154C412.134 328.102 410.226 329.72 408.934 329.697Z" fill="#B56F40"/>
<path d="M415.033 332.865C415.033 332.864 415.032 332.864 415.032 332.864C413.768 332.546 412.581 332.294 411.484 332.166C410.514 333.453 409.82 333.796 408.934 334.147C407.509 333.95 406.308 332.15 406.308 332.109C404.757 332.268 403.711 332.597 403.284 332.729C403.284 332.729 403.282 332.729 403.28 332.73C403.155 332.746 400.38 333.177 396.141 339.511C396.991 340.258 398.106 340.711 399.328 340.711H401.244H402.792H415.975C415.974 340.696 415.973 340.682 415.973 340.667H417.936C419.416 340.667 420.741 340.001 421.628 338.953C418.649 333.836 415.033 332.865 415.033 332.865Z" fill="#018061"/>
<path d="M405.733 324.595C405.733 324.595 406.515 322.207 409.077 322.579C411.639 322.952 411.861 323.499 412.133 324.135C412.405 324.77 412.931 321.812 412.931 321.812L409.909 320.914C409.909 320.914 406.252 321.33 405.989 321.944C405.727 322.557 405.727 322.557 405.727 322.557L405.733 324.595Z" fill="#393B3A"/>
<path d="M411.859 324.908C411.715 324.733 411.48 324.633 411.211 324.633H409.852C409.593 324.633 409.413 324.706 409.314 324.854C409.269 324.921 409.246 324.999 409.238 325.078C409.238 325.079 409.238 325.079 409.238 325.079C409.01 325.022 408.788 325.051 408.634 325.09V325.089C408.627 325.006 408.603 324.924 408.556 324.854C408.459 324.706 408.278 324.633 408.02 324.633H406.659C406.391 324.633 406.155 324.733 406.013 324.908C405.882 325.066 405.838 325.274 405.886 325.506C406.04 326.275 406.925 326.373 407.368 326.373C407.504 326.373 407.598 326.363 407.615 326.362C408.029 326.361 408.321 326.124 408.532 325.619C408.568 325.532 408.627 325.37 408.635 325.201C408.782 325.162 409.008 325.126 409.235 325.189V325.189C409.242 325.362 409.301 325.53 409.338 325.619C409.55 326.124 409.841 326.361 410.255 326.362C410.272 326.363 410.367 326.373 410.503 326.373C410.945 326.373 411.831 326.275 411.985 325.506C412.032 325.274 411.988 325.066 411.859 324.908ZM408.544 325.229C408.529 325.381 408.475 325.524 408.45 325.584C408.254 326.053 407.988 326.272 407.614 326.272H407.608C407.604 326.273 407.238 326.316 406.853 326.237C406.349 326.135 406.053 325.883 405.973 325.488C405.932 325.282 405.969 325.101 406.082 324.964C406.208 324.811 406.418 324.722 406.659 324.722H408.02C408.246 324.722 408.402 324.782 408.482 324.903C408.523 324.964 408.541 325.038 408.545 325.114V325.115C408.476 325.137 408.432 325.156 408.426 325.159C408.399 325.171 408.387 325.203 408.4 325.23C408.409 325.249 408.428 325.261 408.449 325.261C408.456 325.261 408.464 325.26 408.471 325.256C408.472 325.256 408.499 325.244 408.544 325.228C408.544 325.229 408.544 325.229 408.544 325.229ZM411.898 325.488C411.818 325.883 411.522 326.135 411.017 326.237C410.633 326.316 410.266 326.273 410.263 326.272H410.258C409.883 326.272 409.617 326.054 409.421 325.584C409.395 325.523 409.34 325.375 409.327 325.22C409.327 325.22 409.327 325.22 409.327 325.219C409.353 325.23 409.379 325.242 409.404 325.255C409.43 325.269 409.463 325.259 409.477 325.233C409.49 325.207 409.48 325.174 409.454 325.161C409.412 325.138 409.37 325.121 409.327 325.106C409.327 325.106 409.327 325.105 409.327 325.105C409.332 325.032 409.35 324.962 409.39 324.903C409.469 324.783 409.625 324.722 409.852 324.722H411.211C411.453 324.722 411.664 324.811 411.79 324.965C411.902 325.101 411.939 325.282 411.898 325.488Z" fill="#031C70"/>
<path d="M294.418 382.172H269.344C265.745 382.172 262.828 379.253 262.828 375.653V350.566C262.828 346.965 265.745 344.047 269.344 344.047H294.418C298.017 344.047 300.934 346.965 300.934 350.566V375.653C300.934 379.253 298.017 382.172 294.418 382.172Z" fill="#FDD449"/>
<path d="M295.996 353.432V372.048C295.996 373.238 295.566 374.328 294.853 375.171C293.967 376.219 292.642 376.885 291.161 376.885H272.554C271.332 376.885 270.217 376.433 269.366 375.685C268.356 374.798 267.719 373.498 267.719 372.048V353.432C267.719 350.76 269.883 348.594 272.554 348.594H291.161C293.832 348.594 295.996 350.76 295.996 353.432Z" fill="#A3E9F3"/>
<path d="M279.893 365.916C279.893 365.916 276.857 365.764 276.772 364.011C276.686 362.259 274.179 360.98 274.905 359.573C275.796 357.848 274.984 356.189 276.108 355.028C277.346 353.75 278.912 354.444 279.737 353.7C280.563 352.955 282.073 352.268 283.562 353.188C285.051 354.108 286.188 353.613 287.166 354.499C288.248 355.478 287.838 356.711 288.73 357.38C289.547 357.994 289.214 359.67 288.525 361.031C288.029 362.013 289.173 362.933 287.209 364.061C286.392 364.531 286.569 365.712 284.088 365.916C282.97 366.008 280.544 365.484 279.893 365.916Z" fill="#393B3A"/>
<path d="M279.977 364.362C279.977 364.362 279.889 367.101 279.538 368.327L276.766 370.263L287.203 371.825L284.714 368.384C284.714 368.384 283.962 364.713 284.357 363.354C284.751 361.996 279.977 364.362 279.977 364.362Z" fill="#B56F40"/>
<path d="M279.961 364.738C279.961 364.737 280.786 366.726 282.341 366.682C283.896 366.639 284.25 364.88 284.25 364.88L279.961 364.738Z" fill="#99592E"/>
<path d="M282.169 365.916C281.042 365.896 278.969 364.395 278.969 362.536V359.636C278.969 358.958 279.442 358.402 280.02 358.402H284.318C284.896 358.402 285.369 358.958 285.369 359.636V362.372C285.369 364.321 283.461 365.938 282.169 365.916Z" fill="#B56F40"/>
<path d="M278.967 360.814C278.967 360.814 279.749 358.425 282.311 358.798C284.873 359.17 285.095 359.718 285.367 360.353C285.64 360.989 286.165 358.031 286.165 358.031L283.143 357.133C283.143 357.133 279.486 357.549 279.224 358.163C278.961 358.776 278.961 358.776 278.961 358.776L278.967 360.814Z" fill="#393B3A"/>
<path d="M285.093 361.126C284.95 360.951 284.714 360.852 284.446 360.852H283.086C282.827 360.852 282.647 360.925 282.549 361.072C282.503 361.14 282.481 361.218 282.473 361.297C282.473 361.297 282.473 361.298 282.473 361.298C282.245 361.241 282.022 361.27 281.868 361.309V361.308C281.861 361.224 281.838 361.143 281.79 361.072C281.693 360.925 281.512 360.852 281.254 360.852H279.893C279.626 360.852 279.39 360.951 279.247 361.126C279.116 361.285 279.073 361.492 279.12 361.724C279.275 362.494 280.159 362.592 280.602 362.592C280.739 362.592 280.832 362.582 280.85 362.58C281.264 362.58 281.555 362.343 281.767 361.837C281.802 361.751 281.861 361.589 281.87 361.42C282.017 361.38 282.243 361.345 282.469 361.407V361.407C282.476 361.581 282.536 361.749 282.572 361.837C282.784 362.343 283.075 362.58 283.489 362.58C283.507 362.582 283.601 362.592 283.738 362.592C284.18 362.592 285.065 362.494 285.22 361.725C285.266 361.492 285.223 361.285 285.093 361.126ZM281.778 361.448C281.763 361.6 281.709 361.743 281.684 361.803C281.489 362.272 281.223 362.491 280.848 362.491H280.842C280.838 362.492 280.473 362.535 280.088 362.456C279.583 362.354 279.287 362.102 279.208 361.707C279.166 361.501 279.203 361.32 279.316 361.183C279.442 361.029 279.653 360.941 279.893 360.941H281.254C281.481 360.941 281.636 361.001 281.716 361.122C281.757 361.183 281.776 361.257 281.78 361.333V361.333C281.711 361.355 281.667 361.375 281.661 361.378C281.634 361.39 281.622 361.422 281.634 361.449C281.643 361.468 281.663 361.48 281.683 361.48C281.69 361.48 281.698 361.478 281.705 361.475C281.706 361.474 281.733 361.463 281.778 361.447C281.778 361.448 281.778 361.448 281.778 361.448ZM285.133 361.707C285.053 362.102 284.756 362.354 284.252 362.456C283.867 362.535 283.501 362.492 283.497 362.491H283.492C283.118 362.491 282.852 362.272 282.656 361.803C282.63 361.742 282.574 361.594 282.561 361.439C282.561 361.439 282.561 361.438 282.561 361.438C282.587 361.449 282.613 361.46 282.639 361.474C282.665 361.488 282.697 361.478 282.711 361.452C282.725 361.425 282.715 361.393 282.689 361.379C282.647 361.357 282.604 361.34 282.561 361.325C282.561 361.324 282.561 361.324 282.561 361.323C282.566 361.251 282.585 361.181 282.624 361.122C282.704 361.001 282.859 360.941 283.086 360.941H284.446C284.687 360.941 284.898 361.029 285.024 361.183C285.136 361.32 285.174 361.501 285.133 361.707Z" fill="#031C70"/>
<path d="M305.855 324.031H280.781C277.183 324.031 274.266 321.112 274.266 317.512V292.425C274.266 288.825 277.183 285.906 280.781 285.906H305.855C309.454 285.906 312.371 288.825 312.371 292.425V317.512C312.371 321.112 309.454 324.031 305.855 324.031Z" fill="#031C70"/>
<path d="M307.434 295.291V313.907C307.434 315.936 306.185 317.674 304.414 318.392C304.31 318.434 304.205 318.473 304.097 318.508C303.625 318.662 303.121 318.745 302.598 318.745H283.992C281.321 318.745 279.156 316.579 279.156 313.907V295.291C279.156 292.619 281.321 290.453 283.992 290.453H302.598C305.269 290.453 307.434 292.619 307.434 295.291Z" fill="#A3E9F3"/>
<path d="M293.453 295.388C292.933 295.263 292.328 295.233 291.623 295.334C291.623 295.334 290.362 295.458 289.177 296.26C288.234 296.897 286.873 298.272 288.394 302.045L289.115 303.343C288.875 306.169 287.719 306.169 287.719 306.169C287.719 306.169 288.224 306.419 288.468 306.419C288.468 306.419 288.825 306.282 288.895 306.085C288.895 306.085 288.825 306.395 288.734 306.494C288.734 306.494 290.695 306.68 291.675 305.939C292.208 305.536 292.79 304.591 293.167 303.627L294.65 303.732C294.667 304.37 294.438 305.1 293.724 305.863C293.724 305.863 295.555 306.043 296.174 305.536C296.174 305.536 296.052 305.783 295.939 305.894C295.939 305.894 297.986 305.968 298.83 305.329C299.675 304.691 299.132 294.217 293.453 295.388Z" fill="#393B3A"/>
<path d="M300.543 318.747H286.057C285.881 317.622 285.773 316.573 285.841 315.566C285.926 314.302 286.484 313.164 287.142 312.24C288.215 310.732 289.554 309.791 289.554 309.791C289.554 309.791 289.588 309.784 289.645 309.775C289.749 309.756 289.927 309.728 290.118 309.71H290.121C290.301 309.615 290.374 308.959 290.396 308.19C290.402 307.976 290.405 307.754 290.404 307.533C290.403 307.342 290.401 307.15 290.396 306.96C290.394 306.872 290.392 306.784 290.389 306.697C290.389 306.672 290.388 306.648 290.387 306.624C290.386 306.587 290.385 306.551 290.383 306.514C290.383 306.486 290.382 306.459 290.38 306.431C290.38 306.387 290.377 306.345 290.376 306.302C290.373 306.245 290.371 306.189 290.369 306.134C290.368 306.122 290.367 306.11 290.367 306.098C290.365 306.046 290.363 305.996 290.361 305.946C290.357 305.885 290.355 305.826 290.351 305.771L290.349 305.727C290.345 305.638 290.34 305.554 290.336 305.478C290.335 305.458 290.333 305.438 290.333 305.418C290.331 305.394 290.33 305.373 290.329 305.351C290.327 305.33 290.327 305.31 290.325 305.291C290.321 305.228 290.317 305.174 290.315 305.131C290.315 305.121 290.314 305.112 290.313 305.103C290.312 305.092 290.311 305.083 290.311 305.074C290.308 305.034 290.307 305.013 290.307 305.013L292.752 304.529H292.753L294.428 304.197L294.625 304.158L294.674 304.148V304.151C294.671 304.78 294.706 305.361 294.767 305.89C294.819 306.338 294.89 306.749 294.973 307.119V307.119C295.278 308.471 295.752 309.285 296.095 309.42H296.096C296.108 309.425 296.119 309.429 296.13 309.432C297.798 309.774 300.332 314.102 300.543 318.747Z" fill="#D9935C"/>
<path d="M290.305 305.012C290.305 305.012 290.399 306.31 290.401 307.532C292.708 307.467 293.927 305.362 294.426 304.195L290.305 305.012Z" fill="#CB7D45"/>
<path d="M289.536 306.169C289.536 306.169 294.993 306.26 294.997 302.859C295 299.458 295.707 297.179 292.223 296.978C288.74 296.777 288.061 298.073 287.784 299.208C287.507 300.343 288.117 306.058 289.536 306.169Z" fill="#D9935C"/>
<path d="M289.742 296.894C289.742 296.894 291.236 300.884 293.529 301.474C295.822 302.064 296.817 301.449 296.817 301.449C296.817 301.449 295.058 300.051 294.693 297.611C294.693 297.611 290.869 294.995 289.742 296.894Z" fill="#393B3A"/>
<path d="M290.107 297.217C290.107 297.217 288.991 298.108 288.719 298.974C288.447 299.84 288.325 301.623 287.805 301.562C287.805 301.562 286.68 298.85 287.945 297.316C289.286 295.689 290.107 297.217 290.107 297.217Z" fill="#393B3A"/>
<path d="M289.898 297.352C289.898 297.352 290.963 301.53 293.856 302.868C293.856 302.868 290.963 300.301 290.717 297.543C290.472 294.785 289.898 297.352 289.898 297.352Z" fill="#393B3A"/>
<path d="M303.702 316.679C303.609 316.457 303.517 316.238 303.427 316.023C303.382 315.915 303.337 315.809 303.292 315.703C303.292 315.697 303.29 315.695 303.29 315.695C302.029 312.699 301.03 310.437 300.932 310.271C300.651 309.796 296.808 309.324 296.244 309.327C295.835 309.327 295.611 307.973 295.521 307.231C295.494 307.027 295.263 306.92 295.093 307.036C295.053 307.063 295.012 307.091 294.972 307.116C294.921 307.149 294.871 307.181 294.821 307.212C294.77 307.243 294.72 307.273 294.669 307.303C294.635 307.322 294.601 307.342 294.567 307.361C294.529 307.383 294.49 307.403 294.452 307.424C294.417 307.443 294.382 307.461 294.347 307.479C294.311 307.497 294.277 307.514 294.241 307.532C294.206 307.549 294.171 307.566 294.136 307.582C294.108 307.595 294.081 307.608 294.053 307.621C294.002 307.644 293.951 307.667 293.9 307.688C293.864 307.704 293.827 307.719 293.791 307.734C293.765 307.745 293.739 307.755 293.714 307.765C293.573 307.82 293.433 307.871 293.294 307.916C292.122 308.301 291.027 308.337 290.395 308.188C290.38 308.184 290.364 308.18 290.349 308.177C290.028 308.094 289.735 308.38 289.804 308.705C289.889 309.09 289.911 309.512 289.693 309.725C288.717 309.942 286.342 310.549 285.897 311.395C285.577 312.001 285.548 315.571 285.375 318.744H285.748H290.312H302.596C303.119 318.744 303.622 318.661 304.094 318.507C304.202 318.472 304.308 318.434 304.412 318.392C304.172 317.807 303.934 317.234 303.702 316.679Z" fill="#FFE94D"/>
<path d="M298.482 318.746H296.172C296.756 317.779 297.313 317.076 297.636 317.036C297.912 317.003 298.206 317.73 298.482 318.746Z" fill="#F9CF00"/>
<path d="M296.245 309.327C296.245 309.327 293.368 311.15 291.191 310.719C291.191 310.719 290.668 310.388 291.389 310.056C292.066 309.745 293.64 308.824 293.295 307.916C293.893 307.721 294.51 307.435 295.095 307.036C295.265 306.92 295.495 307.027 295.521 307.231C295.613 307.973 295.837 309.327 296.245 309.327Z" fill="#F9CF00"/>
<path d="M355.418 337.375H330.344C326.745 337.375 323.828 334.456 323.828 330.856V305.769C323.828 302.168 326.745 299.25 330.344 299.25H355.418C359.016 299.25 361.934 302.168 361.934 305.769V330.856C361.934 334.456 359.016 337.375 355.418 337.375Z" fill="#FC694C"/>
<path d="M356.996 308.634V327.25C356.996 328.525 356.503 329.684 355.697 330.548C354.815 331.495 353.557 332.088 352.16 332.088H333.553C332.119 332.088 330.83 331.463 329.944 330.469C329.182 329.614 328.719 328.486 328.719 327.25V308.634C328.719 305.963 330.883 303.797 333.553 303.797H352.16C354.831 303.797 356.996 305.963 356.996 308.634Z" fill="#A3E9F3"/>
<path d="M339.215 317.81C339.215 317.81 336.514 312.909 338.991 310.745C341.468 308.581 345.829 309.872 346.631 310.745C347.434 311.618 348.502 314.099 346.287 317.628L339.215 317.81Z" fill="#393B3A"/>
<path d="M340.33 319.828C340.33 319.828 340.232 322.854 339.845 324.21L336.781 326.348L348.315 328.075L345.564 324.273C345.564 324.273 344.734 320.216 345.169 318.715C345.605 317.214 340.33 319.828 340.33 319.828Z" fill="#B56F40"/>
<path d="M340.312 320.246C340.313 320.245 341.225 322.443 342.943 322.394C344.66 322.346 345.051 320.402 345.051 320.402L340.312 320.246Z" fill="#99592E"/>
<path d="M342.747 321.544C341.502 321.522 339.211 319.864 339.211 317.81V314.606C339.211 313.856 339.734 313.242 340.372 313.242H345.121C345.76 313.242 346.283 313.856 346.283 314.606V317.629C346.283 319.782 344.175 321.569 342.747 321.544Z" fill="#B56F40"/>
<path d="M355.698 330.546C354.816 331.494 353.558 332.087 352.161 332.087H333.554C332.12 332.087 330.831 331.461 329.945 330.467C333.933 325.165 336.461 324.831 336.527 324.823C336.998 324.677 338.145 324.344 339.86 324.168C339.86 324.212 341.197 326.171 342.772 326.389C343.75 326.002 344.484 325.622 345.554 324.2C346.768 324.341 348.115 324.621 349.51 324.973L349.509 324.966C349.509 324.966 351.872 325.559 355.698 330.546Z" fill="#018061"/>
<path d="M339.218 315.907C339.218 315.907 340.082 313.268 342.913 313.68C345.744 314.091 345.989 314.696 346.29 315.398C346.591 316.1 347.171 312.832 347.171 312.832L343.832 311.84C343.832 311.84 339.792 312.3 339.501 312.978C339.211 313.655 339.211 313.655 339.211 313.655L339.218 315.907Z" fill="#393B3A"/>
<path d="M342.52 310.802C342.52 310.802 339.529 308.082 340.812 307.501C342.096 306.92 342.52 310.802 342.52 310.802Z" fill="#393B3A"/>
<path d="M342.403 310.872C342.403 310.872 338.62 309.446 339.599 308.432C340.579 307.419 342.403 310.872 342.403 310.872Z" fill="#393B3A"/>
<path d="M342.65 310.952C342.65 310.952 342.031 307.443 343.526 307.469C345.022 307.495 342.65 310.952 342.65 310.952Z" fill="#393B3A"/>
<path d="M342.859 310.721C342.859 310.721 344.48 306.947 345.988 307.301C347.496 307.654 342.859 310.721 342.859 310.721Z" fill="#393B3A"/>
<path d="M342.773 310.948C342.773 310.948 345.352 307.752 346.709 308.5C348.066 309.248 342.773 310.948 342.773 310.948Z" fill="#393B3A"/>
<path d="M441.199 266.843H416.125C412.527 266.843 409.609 263.925 409.609 260.324V235.238C409.609 231.637 412.527 228.719 416.125 228.719H441.199C444.798 228.719 447.715 231.637 447.715 235.238V260.324C447.715 263.925 444.798 266.843 441.199 266.843Z" fill="#FDD449"/>
<path d="M442.777 238.103V256.719C442.777 257.994 442.284 259.152 441.479 260.016C440.596 260.964 439.338 261.557 437.942 261.557H419.335C417.9 261.557 416.611 260.931 415.726 259.938C414.963 259.083 414.5 257.955 414.5 256.719V238.103C414.5 235.431 416.665 233.266 419.335 233.266H437.942C440.612 233.266 442.777 235.431 442.777 238.103Z" fill="#A3E9F3"/>
<path d="M424.996 247.279C424.996 247.279 422.295 242.378 424.772 240.214C427.249 238.05 431.61 239.341 432.413 240.214C433.215 241.086 434.283 243.568 432.068 247.097L424.996 247.279Z" fill="#393B3A"/>
<path d="M426.111 249.297C426.111 249.297 426.014 252.323 425.626 253.679L422.562 255.817L434.096 257.544L431.345 253.742C431.345 253.742 430.515 249.684 430.95 248.184C431.386 246.683 426.111 249.297 426.111 249.297Z" fill="#B56F40"/>
<path d="M426.094 249.715C426.094 249.714 427.006 251.911 428.724 251.863C430.442 251.815 430.833 249.871 430.833 249.871L426.094 249.715Z" fill="#99592E"/>
<path d="M428.528 251.013C427.283 250.991 424.992 249.333 424.992 247.279V244.074C424.992 243.325 425.515 242.711 426.154 242.711H430.903C431.541 242.711 432.064 243.325 432.064 244.074V247.098C432.064 249.251 429.956 251.038 428.528 251.013Z" fill="#B56F40"/>
<path d="M441.48 260.015C440.597 260.962 439.339 261.555 437.943 261.555H419.336C417.901 261.555 416.612 260.93 415.727 259.936C419.714 254.634 422.242 254.3 422.308 254.292C422.779 254.146 423.926 253.813 425.641 253.637C425.641 253.681 426.978 255.64 428.553 255.857C429.531 255.471 430.265 255.091 431.336 253.669C432.549 253.81 433.896 254.09 435.291 254.442L435.29 254.435C435.29 254.435 437.654 255.028 441.48 260.015Z" fill="#018061"/>
<path d="M424.999 245.376C424.999 245.376 425.863 242.737 428.694 243.149C431.525 243.56 431.77 244.165 432.071 244.867C432.372 245.569 432.953 242.301 432.953 242.301L429.614 241.309C429.614 241.309 425.573 241.769 425.283 242.446C424.992 243.124 424.992 243.124 424.992 243.124L424.999 245.376Z" fill="#393B3A"/>
<path d="M428.302 240.271C428.302 240.271 425.31 237.551 426.594 236.969C427.877 236.388 428.302 240.271 428.302 240.271Z" fill="#393B3A"/>
<path d="M428.184 240.34C428.184 240.34 424.401 238.914 425.381 237.901C426.36 236.888 428.184 240.34 428.184 240.34Z" fill="#393B3A"/>
<path d="M428.432 240.421C428.432 240.421 427.813 236.912 429.308 236.938C430.803 236.963 428.432 240.421 428.432 240.421Z" fill="#393B3A"/>
<path d="M428.641 240.19C428.641 240.19 430.261 236.416 431.769 236.769C433.278 237.122 428.641 240.19 428.641 240.19Z" fill="#393B3A"/>
<path d="M428.555 240.417C428.555 240.417 431.134 237.221 432.491 237.969C433.848 238.717 428.555 240.417 428.555 240.417Z" fill="#393B3A"/>
</g>
</g>
<path d="M425.833 398H70.4784C69.1101 398 68 399.11 68 400.478C68 401.848 69.1101 402.957 70.4784 402.957H425.832C427.201 402.957 428.31 401.847 428.31 400.478C428.311 399.11 427.201 398 425.833 398Z" fill="#FFD4D7"/>
<defs>
<filter id="filter0_d_3012_8573" x="40.8359" y="39.2227" width="109.422" height="63.3477" filterUnits="userSpaceOnUse" color-interpolation-filters="sRGB">
<feFlood flood-opacity="0" result="BackgroundImageFix"/>
<feColorMatrix in="SourceAlpha" type="matrix" values="0 0 0 0 0 0 0 0 0 0 0 0 0 0 0 0 0 0 127 0" result="hardAlpha"/>
<feOffset dy="4"/>
<feGaussianBlur stdDeviation="2"/>
<feComposite in2="hardAlpha" operator="out"/>
<feColorMatrix type="matrix" values="0 0 0 0 0 0 0 0 0 0 0 0 0 0 0 0 0 0 0.25 0"/>
<feBlend mode="normal" in2="BackgroundImageFix" result="effect1_dropShadow_3012_8573"/>
<feBlend mode="normal" in="SourceGraphic" in2="effect1_dropShadow_3012_8573" result="shape"/>
</filter>
<filter id="filter1_d_3012_8573" x="279.031" y="161.047" width="167.172" height="214.824" filterUnits="userSpaceOnUse" color-interpolation-filters="sRGB">
<feFlood flood-opacity="0" result="BackgroundImageFix"/>
<feColorMatrix in="SourceAlpha" type="matrix" values="0 0 0 0 0 0 0 0 0 0 0 0 0 0 0 0 0 0 127 0" result="hardAlpha"/>
<feOffset dx="4" dy="4"/>
<feGaussianBlur stdDeviation="2"/>
<feComposite in2="hardAlpha" operator="out"/>
<feColorMatrix type="matrix" values="0 0 0 0 0 0 0 0 0 0 0 0 0 0 0 0 0 0 0.25 0"/>
<feBlend mode="normal" in2="BackgroundImageFix" result="effect1_dropShadow_3012_8573"/>
<feBlend mode="normal" in="SourceGraphic" in2="effect1_dropShadow_3012_8573" result="shape"/>
</filter>
<clipPath id="clip0_3012_8573">
<rect x="279.031" y="161.047" width="159.169" height="206.826" rx="20" fill="white"/>
</clipPath>
</defs>
</svg>
