<svg width="28" height="28" viewBox="0 0 28 28" fill="none" xmlns="http://www.w3.org/2000/svg">
<path fill-rule="evenodd" clip-rule="evenodd" d="M8.57231 4.68645C12.1818 4.28681 15.8245 4.28681 19.434 4.68645C21.4325 4.91045 23.0448 6.48429 23.2793 8.48979C23.707 12.1508 23.707 15.8491 23.2793 19.5101C23.0448 21.5156 21.4325 23.0895 19.434 23.3135C15.8245 23.7131 12.1818 23.7131 8.57231 23.3135C6.57381 23.0895 4.96148 21.5156 4.72698 19.5101C4.29934 15.8495 4.29934 12.1516 4.72698 8.49095C4.84559 7.51663 5.28975 6.61092 5.98748 5.92061C6.68521 5.23029 7.59561 4.79582 8.57114 4.68762M9.88481 9.88162C10.0489 9.71776 10.2713 9.62572 10.5031 9.62572C10.735 9.62572 10.9574 9.71776 11.1215 9.88162L14.0031 12.7633L16.8848 9.88162C16.9649 9.79565 17.0615 9.7267 17.1688 9.67887C17.2762 9.63105 17.392 9.60534 17.5095 9.60326C17.627 9.60119 17.7437 9.6228 17.8527 9.66681C17.9616 9.71082 18.0606 9.77632 18.1437 9.85941C18.2268 9.9425 18.2923 10.0415 18.3363 10.1504C18.3803 10.2594 18.4019 10.3761 18.3998 10.4936C18.3978 10.611 18.372 10.7269 18.3242 10.8342C18.2764 10.9416 18.2074 11.0382 18.1215 11.1183L15.2398 14L18.1215 16.8816C18.276 17.0475 18.3602 17.2669 18.3562 17.4936C18.3522 17.7202 18.2604 17.9365 18.1 18.0968C17.9397 18.2572 17.7234 18.349 17.4968 18.353C17.2701 18.357 17.0507 18.2728 16.8848 18.1183L14.0031 15.2366L11.1215 18.1183C11.0414 18.2043 10.9448 18.2732 10.8374 18.321C10.7301 18.3689 10.6142 18.3946 10.4968 18.3966C10.3793 18.3987 10.2626 18.3771 10.1536 18.3331C10.0447 18.2891 9.94569 18.2236 9.8626 18.1405C9.77951 18.0574 9.71401 17.9584 9.67 17.8495C9.62599 17.7405 9.60438 17.6238 9.60645 17.5063C9.60853 17.3889 9.63424 17.273 9.68207 17.1657C9.72989 17.0583 9.79884 16.9617 9.88481 16.8816L12.7665 14L9.88481 11.1183C9.72095 10.9542 9.62891 10.7318 9.62891 10.5C9.62891 10.2681 9.72095 10.0457 9.88481 9.88162Z" fill="black"/>
</svg>
