<svg width="20" height="20" viewBox="0 0 20 20" fill="none" xmlns="http://www.w3.org/2000/svg">
<mask id="path-1-outside-1_3105_21" maskUnits="userSpaceOnUse" x="0.335938" y="0.332031" width="19" height="19" fill="black">
<rect fill="white" x="0.335938" y="0.332031" width="19" height="19"/>
<path d="M7.0026 10.6654C7.3066 10.6654 7.5706 10.6654 7.8026 10.7214C8.16142 10.807 8.48957 10.9901 8.75077 11.2506C9.01196 11.5111 9.19603 11.8388 9.2826 12.1974C9.33594 12.4307 9.33594 12.6947 9.33594 12.9987V16.332C9.33594 16.636 9.33594 16.9 9.28127 17.132C9.19545 17.4912 9.01188 17.8196 8.75089 18.0808C8.48989 18.342 8.16168 18.5259 7.8026 18.612C7.5706 18.6654 7.3066 18.6654 7.0026 18.6654H3.66927C3.36527 18.6654 3.10127 18.6654 2.86927 18.6107C2.51078 18.5245 2.18307 18.341 1.92236 18.0803C1.66165 17.8196 1.47809 17.4919 1.39194 17.1334C1.33594 16.9 1.33594 16.636 1.33594 16.332V12.9987C1.33594 12.6947 1.33594 12.4307 1.39194 12.1987C1.47798 11.8404 1.66135 11.5128 1.92181 11.2521C2.18227 10.9914 2.50969 10.8077 2.86794 10.7214C3.10127 10.6654 3.36527 10.6654 3.66927 10.6654H7.0026ZM16.3359 10.6654C16.6399 10.6654 16.9039 10.6654 17.1359 10.7214C17.4945 10.8072 17.8224 10.9905 18.0833 11.2509C18.3443 11.5114 18.5281 11.8389 18.6146 12.1974C18.6706 12.4307 18.6693 12.6947 18.6693 12.9987V16.332C18.6693 16.636 18.6693 16.9 18.6146 17.132C18.5287 17.4908 18.3452 17.8188 18.0845 18.0797C17.8238 18.3407 17.4959 18.5244 17.1373 18.6107C16.9039 18.6667 16.6399 18.6654 16.3359 18.6654H13.0026C12.6986 18.6654 12.4346 18.6654 12.2026 18.6107C11.8441 18.5245 11.5164 18.341 11.2557 18.0803C10.995 17.8196 10.8114 17.4919 10.7253 17.1334C10.6693 16.9 10.6693 16.636 10.6693 16.332V12.9987C10.6693 12.6947 10.6693 12.4307 10.7253 12.1987C10.8113 11.8404 10.9947 11.5128 11.2551 11.2521C11.5156 10.9914 11.843 10.8077 12.2013 10.7214C12.4346 10.6654 12.6986 10.6654 13.0026 10.6654H16.3359ZM3.73594 11.9987C3.3266 11.9987 3.2386 12.0027 3.18127 12.0174C3.0615 12.046 2.952 12.1073 2.86492 12.1943C2.77784 12.2814 2.71658 12.3909 2.68794 12.5107C2.6746 12.568 2.66927 12.6574 2.66927 13.0654V16.2654C2.66927 16.676 2.67327 16.764 2.68794 16.8214C2.71658 16.9411 2.77784 17.0506 2.86492 17.1377C2.952 17.2248 3.0615 17.2861 3.18127 17.3147C3.2386 17.328 3.32794 17.332 3.73594 17.332H6.93594C7.3466 17.332 7.4346 17.328 7.49194 17.3134C7.61154 17.2848 7.72093 17.2238 7.80799 17.1369C7.89506 17.0501 7.95641 16.9409 7.98527 16.8214C7.9986 16.764 8.0026 16.6747 8.0026 16.2654V13.0654C8.0026 12.656 7.9986 12.568 7.98394 12.5107C7.9554 12.3911 7.89434 12.2817 7.80751 12.1946C7.72068 12.1076 7.61147 12.0462 7.49194 12.0174C7.4346 12.004 7.34527 11.9987 6.93594 11.9987H3.73594ZM13.0693 11.9987C12.6599 11.9987 12.5719 12.0027 12.5146 12.0174C12.3948 12.046 12.2853 12.1073 12.1983 12.1943C12.1112 12.2814 12.0499 12.3909 12.0213 12.5107C12.0079 12.568 12.0026 12.6574 12.0026 13.0654V16.2654C12.0026 16.676 12.0066 16.764 12.0213 16.8214C12.0499 16.9411 12.1112 17.0506 12.1983 17.1377C12.2853 17.2248 12.3948 17.2861 12.5146 17.3147C12.5719 17.328 12.6613 17.332 13.0693 17.332H16.2693C16.6799 17.332 16.7679 17.328 16.8253 17.3134C16.9449 17.2848 17.0543 17.2238 17.1413 17.1369C17.2284 17.0501 17.2897 16.9409 17.3186 16.8214C17.3319 16.764 17.3359 16.6747 17.3359 16.2654V13.0654C17.3359 12.656 17.3306 12.568 17.3173 12.5107C17.2887 12.3911 17.2277 12.2817 17.1408 12.1946C17.054 12.1076 16.9448 12.0462 16.8253 12.0174C16.7679 12.004 16.6786 11.9987 16.2693 11.9987H13.0693ZM7.0026 1.33203C7.3066 1.33203 7.5706 1.33203 7.8026 1.38803C8.16142 1.47364 8.48957 1.65681 8.75077 1.9173C9.01196 2.17779 9.19603 2.50545 9.2826 2.86403C9.33594 3.09736 9.33594 3.36136 9.33594 3.66536V6.9987C9.33594 7.3027 9.33594 7.5667 9.28127 7.7987C9.19545 8.15785 9.01188 8.48623 8.75089 8.74746C8.48989 9.00868 8.16168 9.19255 7.8026 9.2787C7.5706 9.33203 7.3066 9.33203 7.0026 9.33203H3.66927C3.36527 9.33203 3.10127 9.33203 2.86927 9.27736C2.51036 9.19133 2.18226 9.00766 1.92129 8.74668C1.66031 8.4857 1.47664 8.1576 1.3906 7.7987C1.33594 7.5667 1.33594 7.3027 1.33594 6.9987V3.66536C1.33594 3.36136 1.33594 3.09736 1.39194 2.86536C1.47798 2.50704 1.66135 2.17945 1.92181 1.91876C2.18227 1.65806 2.50969 1.4744 2.86794 1.38803C3.10127 1.33203 3.36527 1.33203 3.66927 1.33203H7.0026ZM16.3359 1.33203C16.6399 1.33203 16.9039 1.33203 17.1359 1.38803C17.4945 1.47386 17.8224 1.65713 18.0833 1.9176C18.3443 2.17808 18.5281 2.50562 18.6146 2.86403C18.6706 3.09736 18.6693 3.36136 18.6693 3.66536V6.9987C18.6693 7.3027 18.6693 7.5667 18.6146 7.7987C18.5288 8.15785 18.3452 8.48623 18.0842 8.74746C17.8232 9.00868 17.495 9.19255 17.1359 9.2787C16.9039 9.33203 16.6399 9.33203 16.3359 9.33203H13.0026C12.6986 9.33203 12.4346 9.33203 12.2026 9.27736C11.8437 9.19133 11.5156 9.00766 11.2546 8.74668C10.9936 8.4857 10.81 8.1576 10.7239 7.7987C10.6693 7.5667 10.6693 7.3027 10.6693 6.9987V3.66536C10.6693 3.36136 10.6693 3.09736 10.7253 2.86536C10.8113 2.50704 10.9947 2.17945 11.2551 1.91876C11.5156 1.65806 11.843 1.4744 12.2013 1.38803C12.4346 1.33203 12.6986 1.33203 13.0026 1.33203H16.3359ZM3.73594 2.66536C3.3266 2.66536 3.2386 2.66936 3.18127 2.68403C3.0615 2.71267 2.952 2.77393 2.86492 2.86101C2.77784 2.94809 2.71658 3.05759 2.68794 3.17736C2.6746 3.2347 2.66927 3.32403 2.66927 3.73203V6.93203C2.66927 7.3427 2.67327 7.4307 2.68794 7.48803C2.71658 7.6078 2.77784 7.7173 2.86492 7.80438C2.952 7.89146 3.0615 7.95272 3.18127 7.98136C3.2386 7.9947 3.32794 7.9987 3.73594 7.9987H6.93594C7.3466 7.9987 7.4346 7.9947 7.49194 7.98003C7.61154 7.9515 7.72093 7.89044 7.80799 7.80361C7.89506 7.71678 7.95641 7.60756 7.98527 7.48803C7.9986 7.4307 8.0026 7.34136 8.0026 6.93203V3.73203C8.0026 3.3227 7.9986 3.2347 7.98394 3.17736C7.9554 3.05776 7.89434 2.94838 7.80751 2.86131C7.72068 2.77425 7.61147 2.71289 7.49194 2.68403C7.4346 2.6707 7.34527 2.66536 6.93594 2.66536H3.73594ZM13.0693 2.66536C12.6599 2.66536 12.5719 2.66936 12.5146 2.68403C12.3948 2.71267 12.2853 2.77393 12.1983 2.86101C12.1112 2.94809 12.0499 3.05759 12.0213 3.17736C12.0079 3.2347 12.0026 3.32403 12.0026 3.73203V6.93203C12.0026 7.3427 12.0066 7.4307 12.0213 7.48803C12.0499 7.6078 12.1112 7.7173 12.1983 7.80438C12.2853 7.89146 12.3948 7.95272 12.5146 7.98136C12.5719 7.9947 12.6613 7.9987 13.0693 7.9987H16.2693C16.6799 7.9987 16.7679 7.9947 16.8253 7.98003C16.9449 7.9515 17.0543 7.89044 17.1413 7.80361C17.2284 7.71678 17.2897 7.60756 17.3186 7.48803C17.3319 7.4307 17.3359 7.34136 17.3359 6.93203V3.73203C17.3359 3.3227 17.3306 3.2347 17.3173 3.17736C17.2887 3.05776 17.2277 2.94838 17.1408 2.86131C17.054 2.77425 16.9448 2.71289 16.8253 2.68403C16.7679 2.6707 16.6786 2.66536 16.2693 2.66536H13.0693Z"/>
</mask>
<path d="M7.0026 10.6654C7.3066 10.6654 7.5706 10.6654 7.8026 10.7214C8.16142 10.807 8.48957 10.9901 8.75077 11.2506C9.01196 11.5111 9.19603 11.8388 9.2826 12.1974C9.33594 12.4307 9.33594 12.6947 9.33594 12.9987V16.332C9.33594 16.636 9.33594 16.9 9.28127 17.132C9.19545 17.4912 9.01188 17.8196 8.75089 18.0808C8.48989 18.342 8.16168 18.5259 7.8026 18.612C7.5706 18.6654 7.3066 18.6654 7.0026 18.6654H3.66927C3.36527 18.6654 3.10127 18.6654 2.86927 18.6107C2.51078 18.5245 2.18307 18.341 1.92236 18.0803C1.66165 17.8196 1.47809 17.4919 1.39194 17.1334C1.33594 16.9 1.33594 16.636 1.33594 16.332V12.9987C1.33594 12.6947 1.33594 12.4307 1.39194 12.1987C1.47798 11.8404 1.66135 11.5128 1.92181 11.2521C2.18227 10.9914 2.50969 10.8077 2.86794 10.7214C3.10127 10.6654 3.36527 10.6654 3.66927 10.6654H7.0026ZM16.3359 10.6654C16.6399 10.6654 16.9039 10.6654 17.1359 10.7214C17.4945 10.8072 17.8224 10.9905 18.0833 11.2509C18.3443 11.5114 18.5281 11.8389 18.6146 12.1974C18.6706 12.4307 18.6693 12.6947 18.6693 12.9987V16.332C18.6693 16.636 18.6693 16.9 18.6146 17.132C18.5287 17.4908 18.3452 17.8188 18.0845 18.0797C17.8238 18.3407 17.4959 18.5244 17.1373 18.6107C16.9039 18.6667 16.6399 18.6654 16.3359 18.6654H13.0026C12.6986 18.6654 12.4346 18.6654 12.2026 18.6107C11.8441 18.5245 11.5164 18.341 11.2557 18.0803C10.995 17.8196 10.8114 17.4919 10.7253 17.1334C10.6693 16.9 10.6693 16.636 10.6693 16.332V12.9987C10.6693 12.6947 10.6693 12.4307 10.7253 12.1987C10.8113 11.8404 10.9947 11.5128 11.2551 11.2521C11.5156 10.9914 11.843 10.8077 12.2013 10.7214C12.4346 10.6654 12.6986 10.6654 13.0026 10.6654H16.3359ZM3.73594 11.9987C3.3266 11.9987 3.2386 12.0027 3.18127 12.0174C3.0615 12.046 2.952 12.1073 2.86492 12.1943C2.77784 12.2814 2.71658 12.3909 2.68794 12.5107C2.6746 12.568 2.66927 12.6574 2.66927 13.0654V16.2654C2.66927 16.676 2.67327 16.764 2.68794 16.8214C2.71658 16.9411 2.77784 17.0506 2.86492 17.1377C2.952 17.2248 3.0615 17.2861 3.18127 17.3147C3.2386 17.328 3.32794 17.332 3.73594 17.332H6.93594C7.3466 17.332 7.4346 17.328 7.49194 17.3134C7.61154 17.2848 7.72093 17.2238 7.80799 17.1369C7.89506 17.0501 7.95641 16.9409 7.98527 16.8214C7.9986 16.764 8.0026 16.6747 8.0026 16.2654V13.0654C8.0026 12.656 7.9986 12.568 7.98394 12.5107C7.9554 12.3911 7.89434 12.2817 7.80751 12.1946C7.72068 12.1076 7.61147 12.0462 7.49194 12.0174C7.4346 12.004 7.34527 11.9987 6.93594 11.9987H3.73594ZM13.0693 11.9987C12.6599 11.9987 12.5719 12.0027 12.5146 12.0174C12.3948 12.046 12.2853 12.1073 12.1983 12.1943C12.1112 12.2814 12.0499 12.3909 12.0213 12.5107C12.0079 12.568 12.0026 12.6574 12.0026 13.0654V16.2654C12.0026 16.676 12.0066 16.764 12.0213 16.8214C12.0499 16.9411 12.1112 17.0506 12.1983 17.1377C12.2853 17.2248 12.3948 17.2861 12.5146 17.3147C12.5719 17.328 12.6613 17.332 13.0693 17.332H16.2693C16.6799 17.332 16.7679 17.328 16.8253 17.3134C16.9449 17.2848 17.0543 17.2238 17.1413 17.1369C17.2284 17.0501 17.2897 16.9409 17.3186 16.8214C17.3319 16.764 17.3359 16.6747 17.3359 16.2654V13.0654C17.3359 12.656 17.3306 12.568 17.3173 12.5107C17.2887 12.3911 17.2277 12.2817 17.1408 12.1946C17.054 12.1076 16.9448 12.0462 16.8253 12.0174C16.7679 12.004 16.6786 11.9987 16.2693 11.9987H13.0693ZM7.0026 1.33203C7.3066 1.33203 7.5706 1.33203 7.8026 1.38803C8.16142 1.47364 8.48957 1.65681 8.75077 1.9173C9.01196 2.17779 9.19603 2.50545 9.2826 2.86403C9.33594 3.09736 9.33594 3.36136 9.33594 3.66536V6.9987C9.33594 7.3027 9.33594 7.5667 9.28127 7.7987C9.19545 8.15785 9.01188 8.48623 8.75089 8.74746C8.48989 9.00868 8.16168 9.19255 7.8026 9.2787C7.5706 9.33203 7.3066 9.33203 7.0026 9.33203H3.66927C3.36527 9.33203 3.10127 9.33203 2.86927 9.27736C2.51036 9.19133 2.18226 9.00766 1.92129 8.74668C1.66031 8.4857 1.47664 8.1576 1.3906 7.7987C1.33594 7.5667 1.33594 7.3027 1.33594 6.9987V3.66536C1.33594 3.36136 1.33594 3.09736 1.39194 2.86536C1.47798 2.50704 1.66135 2.17945 1.92181 1.91876C2.18227 1.65806 2.50969 1.4744 2.86794 1.38803C3.10127 1.33203 3.36527 1.33203 3.66927 1.33203H7.0026ZM16.3359 1.33203C16.6399 1.33203 16.9039 1.33203 17.1359 1.38803C17.4945 1.47386 17.8224 1.65713 18.0833 1.9176C18.3443 2.17808 18.5281 2.50562 18.6146 2.86403C18.6706 3.09736 18.6693 3.36136 18.6693 3.66536V6.9987C18.6693 7.3027 18.6693 7.5667 18.6146 7.7987C18.5288 8.15785 18.3452 8.48623 18.0842 8.74746C17.8232 9.00868 17.495 9.19255 17.1359 9.2787C16.9039 9.33203 16.6399 9.33203 16.3359 9.33203H13.0026C12.6986 9.33203 12.4346 9.33203 12.2026 9.27736C11.8437 9.19133 11.5156 9.00766 11.2546 8.74668C10.9936 8.4857 10.81 8.1576 10.7239 7.7987C10.6693 7.5667 10.6693 7.3027 10.6693 6.9987V3.66536C10.6693 3.36136 10.6693 3.09736 10.7253 2.86536C10.8113 2.50704 10.9947 2.17945 11.2551 1.91876C11.5156 1.65806 11.843 1.4744 12.2013 1.38803C12.4346 1.33203 12.6986 1.33203 13.0026 1.33203H16.3359ZM3.73594 2.66536C3.3266 2.66536 3.2386 2.66936 3.18127 2.68403C3.0615 2.71267 2.952 2.77393 2.86492 2.86101C2.77784 2.94809 2.71658 3.05759 2.68794 3.17736C2.6746 3.2347 2.66927 3.32403 2.66927 3.73203V6.93203C2.66927 7.3427 2.67327 7.4307 2.68794 7.48803C2.71658 7.6078 2.77784 7.7173 2.86492 7.80438C2.952 7.89146 3.0615 7.95272 3.18127 7.98136C3.2386 7.9947 3.32794 7.9987 3.73594 7.9987H6.93594C7.3466 7.9987 7.4346 7.9947 7.49194 7.98003C7.61154 7.9515 7.72093 7.89044 7.80799 7.80361C7.89506 7.71678 7.95641 7.60756 7.98527 7.48803C7.9986 7.4307 8.0026 7.34136 8.0026 6.93203V3.73203C8.0026 3.3227 7.9986 3.2347 7.98394 3.17736C7.9554 3.05776 7.89434 2.94838 7.80751 2.86131C7.72068 2.77425 7.61147 2.71289 7.49194 2.68403C7.4346 2.6707 7.34527 2.66536 6.93594 2.66536H3.73594ZM13.0693 2.66536C12.6599 2.66536 12.5719 2.66936 12.5146 2.68403C12.3948 2.71267 12.2853 2.77393 12.1983 2.86101C12.1112 2.94809 12.0499 3.05759 12.0213 3.17736C12.0079 3.2347 12.0026 3.32403 12.0026 3.73203V6.93203C12.0026 7.3427 12.0066 7.4307 12.0213 7.48803C12.0499 7.6078 12.1112 7.7173 12.1983 7.80438C12.2853 7.89146 12.3948 7.95272 12.5146 7.98136C12.5719 7.9947 12.6613 7.9987 13.0693 7.9987H16.2693C16.6799 7.9987 16.7679 7.9947 16.8253 7.98003C16.9449 7.9515 17.0543 7.89044 17.1413 7.80361C17.2284 7.71678 17.2897 7.60756 17.3186 7.48803C17.3319 7.4307 17.3359 7.34136 17.3359 6.93203V3.73203C17.3359 3.3227 17.3306 3.2347 17.3173 3.17736C17.2887 3.05776 17.2277 2.94838 17.1408 2.86131C17.054 2.77425 16.9448 2.71289 16.8253 2.68403C16.7679 2.6707 16.6786 2.66536 16.2693 2.66536H13.0693Z" fill="black"/>
<path d="M7.0026 10.6654C7.3066 10.6654 7.5706 10.6654 7.8026 10.7214C8.16142 10.807 8.48957 10.9901 8.75077 11.2506C9.01196 11.5111 9.19603 11.8388 9.2826 12.1974C9.33594 12.4307 9.33594 12.6947 9.33594 12.9987V16.332C9.33594 16.636 9.33594 16.9 9.28127 17.132C9.19545 17.4912 9.01188 17.8196 8.75089 18.0808C8.48989 18.342 8.16168 18.5259 7.8026 18.612C7.5706 18.6654 7.3066 18.6654 7.0026 18.6654H3.66927C3.36527 18.6654 3.10127 18.6654 2.86927 18.6107C2.51078 18.5245 2.18307 18.341 1.92236 18.0803C1.66165 17.8196 1.47809 17.4919 1.39194 17.1334C1.33594 16.9 1.33594 16.636 1.33594 16.332V12.9987C1.33594 12.6947 1.33594 12.4307 1.39194 12.1987C1.47798 11.8404 1.66135 11.5128 1.92181 11.2521C2.18227 10.9914 2.50969 10.8077 2.86794 10.7214C3.10127 10.6654 3.36527 10.6654 3.66927 10.6654H7.0026ZM16.3359 10.6654C16.6399 10.6654 16.9039 10.6654 17.1359 10.7214C17.4945 10.8072 17.8224 10.9905 18.0833 11.2509C18.3443 11.5114 18.5281 11.8389 18.6146 12.1974C18.6706 12.4307 18.6693 12.6947 18.6693 12.9987V16.332C18.6693 16.636 18.6693 16.9 18.6146 17.132C18.5287 17.4908 18.3452 17.8188 18.0845 18.0797C17.8238 18.3407 17.4959 18.5244 17.1373 18.6107C16.9039 18.6667 16.6399 18.6654 16.3359 18.6654H13.0026C12.6986 18.6654 12.4346 18.6654 12.2026 18.6107C11.8441 18.5245 11.5164 18.341 11.2557 18.0803C10.995 17.8196 10.8114 17.4919 10.7253 17.1334C10.6693 16.9 10.6693 16.636 10.6693 16.332V12.9987C10.6693 12.6947 10.6693 12.4307 10.7253 12.1987C10.8113 11.8404 10.9947 11.5128 11.2551 11.2521C11.5156 10.9914 11.843 10.8077 12.2013 10.7214C12.4346 10.6654 12.6986 10.6654 13.0026 10.6654H16.3359ZM3.73594 11.9987C3.3266 11.9987 3.2386 12.0027 3.18127 12.0174C3.0615 12.046 2.952 12.1073 2.86492 12.1943C2.77784 12.2814 2.71658 12.3909 2.68794 12.5107C2.6746 12.568 2.66927 12.6574 2.66927 13.0654V16.2654C2.66927 16.676 2.67327 16.764 2.68794 16.8214C2.71658 16.9411 2.77784 17.0506 2.86492 17.1377C2.952 17.2248 3.0615 17.2861 3.18127 17.3147C3.2386 17.328 3.32794 17.332 3.73594 17.332H6.93594C7.3466 17.332 7.4346 17.328 7.49194 17.3134C7.61154 17.2848 7.72093 17.2238 7.80799 17.1369C7.89506 17.0501 7.95641 16.9409 7.98527 16.8214C7.9986 16.764 8.0026 16.6747 8.0026 16.2654V13.0654C8.0026 12.656 7.9986 12.568 7.98394 12.5107C7.9554 12.3911 7.89434 12.2817 7.80751 12.1946C7.72068 12.1076 7.61147 12.0462 7.49194 12.0174C7.4346 12.004 7.34527 11.9987 6.93594 11.9987H3.73594ZM13.0693 11.9987C12.6599 11.9987 12.5719 12.0027 12.5146 12.0174C12.3948 12.046 12.2853 12.1073 12.1983 12.1943C12.1112 12.2814 12.0499 12.3909 12.0213 12.5107C12.0079 12.568 12.0026 12.6574 12.0026 13.0654V16.2654C12.0026 16.676 12.0066 16.764 12.0213 16.8214C12.0499 16.9411 12.1112 17.0506 12.1983 17.1377C12.2853 17.2248 12.3948 17.2861 12.5146 17.3147C12.5719 17.328 12.6613 17.332 13.0693 17.332H16.2693C16.6799 17.332 16.7679 17.328 16.8253 17.3134C16.9449 17.2848 17.0543 17.2238 17.1413 17.1369C17.2284 17.0501 17.2897 16.9409 17.3186 16.8214C17.3319 16.764 17.3359 16.6747 17.3359 16.2654V13.0654C17.3359 12.656 17.3306 12.568 17.3173 12.5107C17.2887 12.3911 17.2277 12.2817 17.1408 12.1946C17.054 12.1076 16.9448 12.0462 16.8253 12.0174C16.7679 12.004 16.6786 11.9987 16.2693 11.9987H13.0693ZM7.0026 1.33203C7.3066 1.33203 7.5706 1.33203 7.8026 1.38803C8.16142 1.47364 8.48957 1.65681 8.75077 1.9173C9.01196 2.17779 9.19603 2.50545 9.2826 2.86403C9.33594 3.09736 9.33594 3.36136 9.33594 3.66536V6.9987C9.33594 7.3027 9.33594 7.5667 9.28127 7.7987C9.19545 8.15785 9.01188 8.48623 8.75089 8.74746C8.48989 9.00868 8.16168 9.19255 7.8026 9.2787C7.5706 9.33203 7.3066 9.33203 7.0026 9.33203H3.66927C3.36527 9.33203 3.10127 9.33203 2.86927 9.27736C2.51036 9.19133 2.18226 9.00766 1.92129 8.74668C1.66031 8.4857 1.47664 8.1576 1.3906 7.7987C1.33594 7.5667 1.33594 7.3027 1.33594 6.9987V3.66536C1.33594 3.36136 1.33594 3.09736 1.39194 2.86536C1.47798 2.50704 1.66135 2.17945 1.92181 1.91876C2.18227 1.65806 2.50969 1.4744 2.86794 1.38803C3.10127 1.33203 3.36527 1.33203 3.66927 1.33203H7.0026ZM16.3359 1.33203C16.6399 1.33203 16.9039 1.33203 17.1359 1.38803C17.4945 1.47386 17.8224 1.65713 18.0833 1.9176C18.3443 2.17808 18.5281 2.50562 18.6146 2.86403C18.6706 3.09736 18.6693 3.36136 18.6693 3.66536V6.9987C18.6693 7.3027 18.6693 7.5667 18.6146 7.7987C18.5288 8.15785 18.3452 8.48623 18.0842 8.74746C17.8232 9.00868 17.495 9.19255 17.1359 9.2787C16.9039 9.33203 16.6399 9.33203 16.3359 9.33203H13.0026C12.6986 9.33203 12.4346 9.33203 12.2026 9.27736C11.8437 9.19133 11.5156 9.00766 11.2546 8.74668C10.9936 8.4857 10.81 8.1576 10.7239 7.7987C10.6693 7.5667 10.6693 7.3027 10.6693 6.9987V3.66536C10.6693 3.36136 10.6693 3.09736 10.7253 2.86536C10.8113 2.50704 10.9947 2.17945 11.2551 1.91876C11.5156 1.65806 11.843 1.4744 12.2013 1.38803C12.4346 1.33203 12.6986 1.33203 13.0026 1.33203H16.3359ZM3.73594 2.66536C3.3266 2.66536 3.2386 2.66936 3.18127 2.68403C3.0615 2.71267 2.952 2.77393 2.86492 2.86101C2.77784 2.94809 2.71658 3.05759 2.68794 3.17736C2.6746 3.2347 2.66927 3.32403 2.66927 3.73203V6.93203C2.66927 7.3427 2.67327 7.4307 2.68794 7.48803C2.71658 7.6078 2.77784 7.7173 2.86492 7.80438C2.952 7.89146 3.0615 7.95272 3.18127 7.98136C3.2386 7.9947 3.32794 7.9987 3.73594 7.9987H6.93594C7.3466 7.9987 7.4346 7.9947 7.49194 7.98003C7.61154 7.9515 7.72093 7.89044 7.80799 7.80361C7.89506 7.71678 7.95641 7.60756 7.98527 7.48803C7.9986 7.4307 8.0026 7.34136 8.0026 6.93203V3.73203C8.0026 3.3227 7.9986 3.2347 7.98394 3.17736C7.9554 3.05776 7.89434 2.94838 7.80751 2.86131C7.72068 2.77425 7.61147 2.71289 7.49194 2.68403C7.4346 2.6707 7.34527 2.66536 6.93594 2.66536H3.73594ZM13.0693 2.66536C12.6599 2.66536 12.5719 2.66936 12.5146 2.68403C12.3948 2.71267 12.2853 2.77393 12.1983 2.86101C12.1112 2.94809 12.0499 3.05759 12.0213 3.17736C12.0079 3.2347 12.0026 3.32403 12.0026 3.73203V6.93203C12.0026 7.3427 12.0066 7.4307 12.0213 7.48803C12.0499 7.6078 12.1112 7.7173 12.1983 7.80438C12.2853 7.89146 12.3948 7.95272 12.5146 7.98136C12.5719 7.9947 12.6613 7.9987 13.0693 7.9987H16.2693C16.6799 7.9987 16.7679 7.9947 16.8253 7.98003C16.9449 7.9515 17.0543 7.89044 17.1413 7.80361C17.2284 7.71678 17.2897 7.60756 17.3186 7.48803C17.3319 7.4307 17.3359 7.34136 17.3359 6.93203V3.73203C17.3359 3.3227 17.3306 3.2347 17.3173 3.17736C17.2887 3.05776 17.2277 2.94838 17.1408 2.86131C17.054 2.77425 16.9448 2.71289 16.8253 2.68403C16.7679 2.6707 16.6786 2.66536 16.2693 2.66536H13.0693Z" stroke="black" stroke-width="0.8" mask="url(#path-1-outside-1_3105_21)"/>
</svg>
