<svg width="26" height="20" viewBox="0 0 26 20" fill="none" xmlns="http://www.w3.org/2000/svg">
<path d="M14.391 8.54669C15.1807 7.41505 15.6053 6.05832 15.6053 4.6667C15.6053 3.27509 15.1807 1.91836 14.391 0.786714C15.1304 0.27009 16.0053 -0.00421911 16.9 4.90619e-05C18.1067 4.90619e-05 19.264 0.491713 20.1173 1.36688C20.9706 2.24205 21.45 3.42903 21.45 4.6667C21.45 5.90438 20.9706 7.09136 20.1173 7.96653C19.264 8.84169 18.1067 9.33336 16.9 9.33336C16.0053 9.33763 15.1304 9.06332 14.391 8.54669ZM4.55 4.6667C4.55 3.74373 4.81685 2.84148 5.31681 2.07405C5.81677 1.30662 6.52739 0.708485 7.35879 0.355277C8.19019 0.00206919 9.10505 -0.0903462 9.98766 0.0897178C10.8703 0.269782 11.681 0.714238 12.3173 1.36688C12.9537 2.01952 13.387 2.85104 13.5626 3.75628C13.7381 4.66153 13.648 5.59984 13.3037 6.45256C12.9593 7.30527 12.3761 8.03411 11.6278 8.54689C10.8796 9.05966 9.9999 9.33336 9.1 9.33336C7.89326 9.33336 6.73595 8.84169 5.88266 7.96653C5.02937 7.09136 4.55 5.90438 4.55 4.6667ZM7.15 4.6667C7.15 5.06227 7.26437 5.44894 7.47863 5.77784C7.6929 6.10674 7.99745 6.36308 8.35377 6.51446C8.71008 6.66583 9.10216 6.70544 9.48043 6.62827C9.85869 6.5511 10.2061 6.36062 10.4789 6.08091C10.7516 5.80121 10.9373 5.44484 11.0125 5.05688C11.0878 4.66892 11.0492 4.26679 10.9016 3.90134C10.754 3.53589 10.504 3.22353 10.1834 3.00377C9.86269 2.78401 9.48567 2.66671 9.1 2.66671C8.58283 2.66671 8.08684 2.87742 7.72114 3.25249C7.35545 3.62757 7.15 4.13627 7.15 4.6667ZM18.2 17.3333V20H0V17.3333C0 17.3333 0 12 9.1 12C18.2 12 18.2 17.3333 18.2 17.3333ZM15.6 17.3333C15.418 16.2933 13.871 14.6667 9.1 14.6667C4.329 14.6667 2.691 16.4133 2.6 17.3333M18.135 12C18.9318 12.6357 19.5832 13.4425 20.0436 14.3638C20.504 15.2852 20.7622 16.2988 20.8 17.3333V20H26V17.3333C26 17.3333 26 12.4934 18.122 12H18.135Z" fill="black"/>
</svg>
