<svg width="19" height="20" viewBox="0 0 19 20" fill="none" xmlns="http://www.w3.org/2000/svg">
<path d="M3.52826 0.00108099C3.63881 0.000904442 3.74937 0.00067264 3.85992 0.000390071C4.12794 -0.000139713 4.39595 -6.47944e-05 4.66397 0.000313647C4.88218 0.000608845 5.10039 0.000646767 5.31859 0.00050572C5.36538 0.000475813 5.36538 0.000475813 5.41311 0.000445302C5.47651 0.000403696 5.5399 0.00036151 5.60329 0.000318754C6.1965 -5.14724e-05 6.7897 0.000372965 7.38291 0.00107347C7.89001 0.0016538 8.3971 0.00155447 8.9042 0.000953922C9.49496 0.000254611 10.0857 -1.47884e-05 10.6765 0.000383013C10.7397 0.000424455 10.8029 0.000465359 10.8662 0.00050572C10.8973 0.000525793 10.9284 0.000545867 10.9604 0.000566548C11.1778 0.000678065 11.3951 0.00049105 11.6125 0.000183094C11.9063 -0.000224046 12.2 7.36978e-05 12.4938 0.000819908C12.6009 0.000990325 12.7081 0.000945377 12.8152 0.000655617C13.6195 -0.00131719 14.43 0.0245391 15.1951 0.286278C15.2345 0.299309 15.2738 0.312339 15.3143 0.325764C16.0765 0.58728 16.7075 1.00611 17.2943 1.53592C17.3512 1.58607 17.3512 1.58607 17.4093 1.63723C18.014 2.18754 18.4502 2.90904 18.7203 3.66113C18.7305 3.68931 18.7408 3.7175 18.7514 3.74655C19.0018 4.49327 18.9961 5.24714 18.9944 6.0224C18.9942 6.18855 18.9947 6.3547 18.9952 6.52085C18.996 6.84529 18.996 7.16973 18.9958 7.49417C18.9956 7.75794 18.9957 8.02171 18.9959 8.28548C18.9959 8.32316 18.996 8.36084 18.996 8.39966C18.9961 8.47623 18.9962 8.55279 18.9962 8.62936C18.9968 9.34538 18.9966 10.0614 18.9961 10.7774C18.9956 11.4318 18.9962 12.0862 18.9973 12.7405C18.9984 13.4138 18.9988 14.0871 18.9985 14.7604C18.9984 15.1378 18.9985 15.5153 18.9993 15.8928C19 16.2138 19 16.5349 18.9992 16.8559C18.9988 17.0195 18.9987 17.1831 18.9994 17.3468C19.0002 17.5244 18.9995 17.7021 18.9987 17.8797C18.9991 17.931 18.9995 17.9823 19 18.0351C18.9952 18.55 18.836 18.961 18.4703 19.3426C18.1115 19.6762 17.6991 19.7659 17.2155 19.7654C16.7711 19.7567 16.4465 19.5895 16.07 19.3806C15.5058 19.0686 14.9122 18.9578 14.2663 19.1068C13.9577 19.199 13.6768 19.345 13.3933 19.4914C12.4307 19.9865 11.3822 20.1509 10.3147 19.847C10.2633 19.83 10.2119 19.8129 10.1589 19.7953C10.1112 19.7796 10.0635 19.7639 10.0144 19.7477C9.70621 19.6351 9.43904 19.4782 9.1613 19.3096C8.98502 19.2103 8.81223 19.1462 8.61361 19.1014C8.57893 19.0936 8.54425 19.0857 8.50851 19.0777C7.78504 18.9613 7.20145 19.1617 6.58852 19.5121C6.15747 19.755 5.71246 19.812 5.21668 19.7318C4.73963 19.612 4.35406 19.3248 4.10124 18.9215C3.96418 18.6693 3.92568 18.4613 3.92694 18.177C3.9269 18.1449 3.92686 18.1129 3.92682 18.0799C3.92675 17.9725 3.927 17.8652 3.92725 17.7579C3.92726 17.6809 3.92725 17.604 3.92723 17.527C3.92721 17.3181 3.92748 17.1091 3.9278 16.9002C3.92808 16.6818 3.92811 16.4635 3.92816 16.2451C3.9283 15.8316 3.92868 15.4181 3.92913 15.0047C3.92964 14.5339 3.92989 14.0632 3.93012 13.5924C3.93059 12.6241 3.93139 11.6557 3.9324 10.6873C3.89583 10.6878 3.85926 10.6883 3.82159 10.6888C3.47528 10.6931 3.12898 10.6964 2.78265 10.6986C2.60464 10.6997 2.42665 10.7012 2.24865 10.7037C2.07655 10.706 1.90448 10.7073 1.73236 10.7079C1.66703 10.7083 1.60169 10.7091 1.53636 10.7102C1.09037 10.718 0.724448 10.6828 0.381183 10.3867C-0.0178455 10.0021 0.00380689 9.52573 0.0054596 9.01902C0.00520008 8.94702 0.00488345 8.87502 0.00451437 8.80302C0.00370159 8.60828 0.00375227 8.41355 0.00401194 8.2188C0.00415289 8.05565 0.00387497 7.8925 0.00360104 7.72935C0.00296339 7.34394 0.00303297 6.95854 0.00355111 6.57313C0.00407182 6.1771 0.00343491 5.78108 0.0022151 5.38504C0.00120386 5.0438 0.000907294 4.70256 0.00117313 4.36132C0.00132544 4.15806 0.00122216 3.95481 0.000434564 3.75156C-0.0002751 3.56006 -8.13344e-05 3.36858 0.000766746 3.17709C0.000932512 3.10737 0.000798121 3.03765 0.000317364 2.96793C-0.00517003 2.10533 0.198157 1.34908 0.841898 0.711862C1.64584 0.0445341 2.51393 -0.00164442 3.52826 0.00108099ZM1.78673 1.85748C1.50794 2.24203 1.49818 2.63363 1.50299 3.08563C1.50304 3.15363 1.50301 3.22164 1.50291 3.28964C1.50286 3.47305 1.50392 3.65644 1.5052 3.83985C1.50634 4.03196 1.50644 4.22408 1.50665 4.4162C1.50722 4.77946 1.50871 5.14272 1.51054 5.50598C1.51257 5.91977 1.51357 6.33355 1.51448 6.74734C1.51638 7.59804 1.51971 8.44873 1.52363 9.29943C2.31852 9.29943 3.11342 9.29943 3.9324 9.29943C3.93446 8.43605 3.93613 7.57269 3.93711 6.70931C3.93758 6.30841 3.93822 5.9075 3.93926 5.5066C3.94017 5.15705 3.94075 4.8075 3.94096 4.45795C3.94108 4.27297 3.94135 4.088 3.94202 3.90303C3.94264 3.72867 3.94282 3.55431 3.94269 3.37994C3.94271 3.3162 3.94289 3.25246 3.94324 3.18872C3.95025 2.43802 3.95025 2.43802 3.58142 1.8014C3.31793 1.56195 3.06649 1.4682 2.70813 1.4302C2.33452 1.44792 2.04866 1.61391 1.78673 1.85748ZM7.50296 5.40141C7.36241 5.57475 7.32316 5.74262 7.34105 5.95982C7.41517 6.16414 7.52805 6.30209 7.70464 6.4369C8.03936 6.54654 8.37418 6.53622 8.72465 6.53556C8.79076 6.53575 8.85686 6.53597 8.92297 6.53623C9.10167 6.53681 9.28036 6.53684 9.45906 6.53673C9.60859 6.53668 9.75812 6.53689 9.90765 6.5371C10.2606 6.53758 10.6135 6.5376 10.9664 6.53734C11.3298 6.53708 11.6931 6.53761 12.0565 6.53853C12.3691 6.5393 12.6818 6.53956 12.9945 6.53942C13.181 6.53934 13.3674 6.53945 13.5538 6.54006C13.7292 6.5406 13.9046 6.54052 14.0799 6.53995C14.144 6.53985 14.2081 6.53997 14.2722 6.54033C14.833 6.5561 14.833 6.5561 15.3223 6.33056C15.5077 6.12545 15.538 5.98582 15.5344 5.72297C15.5157 5.55973 15.4544 5.47328 15.34 5.35262C15.0825 5.15917 14.877 5.1305 14.5564 5.12967C14.4992 5.12942 14.4421 5.12917 14.3832 5.12892C14.3202 5.12886 14.2572 5.12881 14.1942 5.12877C14.1276 5.12857 14.061 5.12835 13.9944 5.12812C13.8137 5.12755 13.6331 5.12727 13.4524 5.12708C13.3394 5.12695 13.2264 5.12677 13.1135 5.12658C12.7597 5.12598 12.406 5.12557 12.0522 5.1254C11.6444 5.1252 11.2365 5.12444 10.8287 5.12319C10.5131 5.12225 10.1974 5.12181 9.88183 5.12175C9.69349 5.12171 9.50515 5.12145 9.31681 5.12068C9.13958 5.11996 8.96235 5.11987 8.78512 5.12025C8.72026 5.12028 8.65541 5.12009 8.59056 5.11966C7.99136 5.10639 7.99136 5.10639 7.50296 5.40141ZM7.45751 8.67867C7.34347 8.90939 7.30537 9.10851 7.38934 9.35364C7.51083 9.5182 7.64999 9.642 7.84099 9.73314C7.9347 9.7376 8.02856 9.73919 8.12239 9.73952C8.15157 9.73968 8.18074 9.73984 8.2108 9.74001C8.30902 9.74049 8.40723 9.74065 8.50544 9.74082C8.57568 9.74109 8.64593 9.74138 8.71617 9.74168C8.90737 9.74244 9.09856 9.74289 9.28975 9.74325C9.40921 9.74347 9.52866 9.74374 9.64811 9.74401C10.0218 9.74484 10.3956 9.74545 10.7693 9.74582C11.2007 9.74624 11.6321 9.74738 12.0635 9.74913C12.3969 9.75044 12.7303 9.75108 13.0637 9.75123C13.2629 9.75133 13.462 9.75172 13.6611 9.75281C13.8486 9.75382 14.036 9.754 14.2235 9.75356C14.2922 9.75354 14.3609 9.75381 14.4295 9.75441C14.9164 9.76404 14.9164 9.76404 15.34 9.55966C15.491 9.40453 15.534 9.28664 15.5417 9.07986C15.5313 8.86531 15.4855 8.74037 15.3205 8.58939C15.1106 8.4135 14.9677 8.38322 14.695 8.38224C14.6361 8.38193 14.5772 8.38162 14.5164 8.3813C14.451 8.38118 14.3855 8.38106 14.32 8.38095C14.2512 8.38067 14.1824 8.38039 14.1135 8.38008C13.8873 8.37917 13.6611 8.37872 13.4349 8.37829C13.357 8.37811 13.2791 8.37793 13.2011 8.37775C12.835 8.37693 12.4689 8.37631 12.1027 8.37595C11.6804 8.37552 11.258 8.37438 10.8356 8.37263C10.509 8.37132 10.1824 8.37068 9.85576 8.37054C9.66076 8.37043 9.46577 8.37005 9.27078 8.36895C9.0872 8.36794 8.90364 8.36776 8.72006 8.36821C8.65286 8.36823 8.58566 8.36796 8.51846 8.36736C8.09417 8.3638 7.75887 8.36159 7.45751 8.67867ZM7.46319 11.9099C7.35666 12.0793 7.32695 12.2252 7.34105 12.4222C7.40132 12.6251 7.48917 12.7436 7.66203 12.8749C7.88619 12.9886 8.07444 12.9927 8.32269 12.993C8.38257 12.9933 8.38257 12.9933 8.44366 12.9936C8.57588 12.9943 8.7081 12.9946 8.84032 12.9948C8.9322 12.9951 9.02408 12.9953 9.11596 12.9956C9.30871 12.996 9.50146 12.9963 9.69421 12.9964C9.94102 12.9967 10.1878 12.9977 10.4346 12.9989C10.6245 12.9997 10.8143 13 11.0042 13C11.0951 13.0002 11.1861 13.0005 11.2771 13.0011C11.4045 13.0018 11.5319 13.0017 11.6593 13.0015C11.6967 13.0019 11.7342 13.0023 11.7728 13.0027C12.0631 13.0007 12.2472 12.935 12.4682 12.7475C12.6301 12.571 12.629 12.4089 12.6255 12.1838C12.6067 12.0196 12.5482 11.9351 12.4313 11.815C12.1777 11.6469 11.9941 11.6163 11.6892 11.619C11.6479 11.6187 11.6066 11.6184 11.5641 11.6181C11.4284 11.6174 11.2928 11.6179 11.1571 11.6184C11.0625 11.6183 10.9678 11.6182 10.8731 11.6179C10.675 11.6177 10.477 11.6181 10.2789 11.6189C10.0252 11.6199 9.77161 11.6193 9.51797 11.6183C9.32259 11.6176 9.12722 11.6178 8.93184 11.6183C8.83832 11.6184 8.7448 11.6182 8.65128 11.6178C8.52052 11.6174 8.38982 11.6181 8.25907 11.619C8.20137 11.6185 8.20137 11.6185 8.1425 11.618C7.84365 11.6221 7.68179 11.7125 7.46319 11.9099Z" fill="black"/>
</svg>
