<svg width="26" height="29" viewBox="0 0 26 29" fill="none" xmlns="http://www.w3.org/2000/svg">
<g filter="url(#filter0_d_3012_8555)">
<path d="M13 16.5C14.1935 16.5 15.3381 16.0259 16.182 15.182C17.0259 14.3381 17.5 13.1935 17.5 12C17.5 10.8065 17.0259 9.66193 16.182 8.81802C15.3381 7.97411 14.1935 7.5 13 7.5C11.8065 7.5 10.6619 7.97411 9.81802 8.81802C8.97411 9.66193 8.5 10.8065 8.5 12C8.5 13.1935 8.97411 14.3381 9.81802 15.182C10.6619 16.0259 11.8065 16.5 13 16.5ZM13 3C11.8181 3 10.6478 3.23279 9.55585 3.68508C8.46392 4.13738 7.47177 4.80031 6.63604 5.63604C5.80031 6.47177 5.13738 7.46392 4.68508 8.55585C4.23279 9.64778 4 10.8181 4 12C4 13.1819 4.23279 14.3522 4.68508 15.4442C5.13738 16.5361 5.80031 17.5282 6.63604 18.364C7.47177 19.1997 8.46392 19.8626 9.55585 20.3149C10.6478 20.7672 11.8181 21 13 21C15.3869 21 17.6761 20.0518 19.364 18.364C21.0518 16.6761 22 14.3869 22 12C22 9.61305 21.0518 7.32387 19.364 5.63604C17.6761 3.94821 15.3869 3 13 3ZM5.5 12C5.5 10.0109 6.29018 8.10322 7.6967 6.6967C9.10322 5.29018 11.0109 4.5 13 4.5C14.9891 4.5 16.8968 5.29018 18.3033 6.6967C19.7098 8.10322 20.5 10.0109 20.5 12C20.5 13.9891 19.7098 15.8968 18.3033 17.3033C16.8968 18.7098 14.9891 19.5 13 19.5C11.0109 19.5 9.10322 18.7098 7.6967 17.3033C6.29018 15.8968 5.5 13.9891 5.5 12Z" fill="#A32E37"/>
</g>
<defs>
<filter id="filter0_d_3012_8555" x="-3" y="0" width="32" height="32" filterUnits="userSpaceOnUse" color-interpolation-filters="sRGB">
<feFlood flood-opacity="0" result="BackgroundImageFix"/>
<feColorMatrix in="SourceAlpha" type="matrix" values="0 0 0 0 0 0 0 0 0 0 0 0 0 0 0 0 0 0 127 0" result="hardAlpha"/>
<feOffset dy="4"/>
<feGaussianBlur stdDeviation="2"/>
<feComposite in2="hardAlpha" operator="out"/>
<feColorMatrix type="matrix" values="0 0 0 0 0 0 0 0 0 0 0 0 0 0 0 0 0 0 0.25 0"/>
<feBlend mode="normal" in2="BackgroundImageFix" result="effect1_dropShadow_3012_8555"/>
<feBlend mode="normal" in="SourceGraphic" in2="effect1_dropShadow_3012_8555" result="shape"/>
</filter>
</defs>
</svg>
