<svg width="19" height="20" viewBox="0 0 19 20" fill="none" xmlns="http://www.w3.org/2000/svg">
<path d="M16.8476 10.8533C17.888 11.7468 18.598 12.8713 18.7789 14.2491C18.829 14.9774 18.814 15.6977 18.5922 16.3963C18.5775 16.4439 18.5775 16.4439 18.5626 16.4924C18.3396 17.1981 17.9662 17.8071 17.4719 18.3568C17.4399 18.3926 17.408 18.4284 17.3751 18.4653C16.6383 19.2456 15.5916 19.7891 14.5312 19.9439C14.4962 19.9491 14.4612 19.9542 14.4252 19.9596C13.0757 20.1252 11.7131 19.7999 10.6248 18.9753C9.6805 18.2304 9.07223 17.2684 8.74305 16.1163C8.7321 16.0784 8.72115 16.0406 8.70987 16.0016C8.39319 14.6913 8.70693 13.289 9.38347 12.1499C9.52287 11.9291 9.68781 11.7349 9.86333 11.5418C9.88836 11.5102 9.91339 11.4786 9.93918 11.4461C10.6575 10.5499 11.8953 9.96046 13.0213 9.82476C14.3895 9.69913 15.7569 9.99044 16.8476 10.8533ZM15.3305 13.2952C15.2823 13.3539 15.234 13.4126 15.1856 13.4713C15.1619 13.5003 15.1382 13.5293 15.1138 13.5591C15.0139 13.6792 14.9086 13.7932 14.8025 13.9078C14.6536 14.07 14.5115 14.2351 14.3736 14.4067C14.1291 14.7096 13.8653 14.9937 13.5976 15.2761C13.5655 15.3117 13.5335 15.3474 13.5004 15.3842C13.3983 15.4738 13.3404 15.4944 13.2067 15.5095C13.1556 15.5167 13.1556 15.5167 13.1035 15.524C12.6997 15.4718 12.3789 14.9933 12.1158 14.7201C12.0557 14.6587 12.0557 14.6587 11.9943 14.5959C11.9401 14.5398 11.9401 14.5398 11.8849 14.4825C11.726 14.3449 11.5935 14.3013 11.3862 14.2783C11.1143 14.3064 10.9569 14.4053 10.7794 14.6109C10.6781 14.8135 10.6125 14.9992 10.685 15.2229C10.816 15.4921 10.9932 15.6869 11.2044 15.8967C11.2394 15.932 11.2744 15.9673 11.3105 16.0037C11.3843 16.0778 11.4583 16.1517 11.5326 16.2254C11.6454 16.3376 11.7571 16.4509 11.8688 16.5643C11.9409 16.6365 12.0132 16.7086 12.0855 16.7807C12.1185 16.8143 12.1514 16.8479 12.1854 16.8825C12.4379 17.1304 12.693 17.2958 13.0462 17.3547C13.483 17.3499 13.7803 17.2433 14.1111 16.9565C14.1763 16.8814 14.2395 16.8044 14.3007 16.726C14.4635 16.5226 14.6329 16.3296 14.8112 16.1396C14.9816 15.9578 15.1453 15.774 15.3014 15.5795C15.4574 15.385 15.6212 15.2012 15.7915 15.0193C16.0039 14.7924 16.2047 14.5593 16.3994 14.3168C16.4827 14.2136 16.568 14.1129 16.655 14.0128C16.8268 13.811 16.8345 13.6928 16.8315 13.4341C16.8066 13.2089 16.6793 13.0858 16.5296 12.9276C16.0469 12.6379 15.642 12.9002 15.3305 13.2952Z" fill="black"/>
<path d="M10.8001 1.08466C10.8463 1.11932 10.8925 1.15398 10.9401 1.18969C11.711 1.84312 12.1965 2.90243 12.3405 3.88536C12.415 5.24363 12.1735 6.42212 11.2669 7.47959C11.2461 7.50709 11.2253 7.53458 11.204 7.56291C10.5653 8.3891 9.45332 8.87687 8.441 9.00684C7.17682 9.10957 5.9814 8.83363 4.99173 8.00599C4.09044 7.20622 3.46075 6.18839 3.36781 4.96149C3.30552 3.71337 3.58121 2.5438 4.42557 1.58937C4.49625 1.51419 4.56723 1.4393 4.63854 1.36473C4.66664 1.33314 4.69474 1.30155 4.7237 1.269C5.3419 0.599838 6.22787 0.213921 7.11249 0.0577386C7.17122 0.0471485 7.22995 0.0365584 7.29045 0.0256473C8.59701 -0.102553 9.78599 0.249772 10.8001 1.08466Z" fill="black"/>
<path d="M7.00238 10.211C7.12967 10.2114 7.25687 10.21 7.38415 10.2085C7.4662 10.2085 7.54825 10.2085 7.63031 10.2086C7.68654 10.2078 7.68654 10.2078 7.74391 10.207C7.98835 10.2101 8.13196 10.2532 8.32355 10.4185C8.46004 10.6168 8.45032 10.8407 8.41691 11.072C8.3557 11.2262 8.27116 11.3594 8.1806 11.4979C8.13297 11.5756 8.08562 11.6535 8.03856 11.7315C8.01537 11.7698 7.99218 11.8082 7.96829 11.8477C7.15236 13.2469 7.02601 15.0058 7.41624 16.5538C7.60523 17.2622 7.89375 17.9214 8.31485 18.5231C8.45758 18.7335 8.49998 18.892 8.51026 19.1473C8.44872 19.3646 8.37657 19.5015 8.18264 19.623C7.98138 19.7052 7.76128 19.6857 7.5473 19.6835C7.46573 19.6837 7.46573 19.6837 7.38251 19.684C7.20289 19.6844 7.02332 19.6834 6.8437 19.6823C6.71859 19.6822 6.59348 19.6821 6.46837 19.6822C6.20609 19.6821 5.94383 19.6813 5.68156 19.68C5.37934 19.6785 5.07713 19.678 4.77491 19.6781C4.48321 19.6782 4.19151 19.6777 3.89981 19.6769C3.77617 19.6766 3.65252 19.6764 3.52888 19.6764C3.35562 19.6762 3.18237 19.6753 3.00911 19.6744C2.95841 19.6744 2.90772 19.6744 2.85549 19.6745C2.15799 19.6687 1.55596 19.4749 0.995061 19.054C0.956972 19.0257 0.918884 18.9974 0.879642 18.9683C0.411047 18.567 0.106993 17.9793 0.014817 17.3736C0.000964537 17.1789 -0.00075768 16.9852 0.000229996 16.7901C0.000459399 16.7364 0.000688802 16.6828 0.000925156 16.6275C0.00685602 16.1937 0.049272 15.7868 0.154852 15.3664C0.162614 15.3345 0.170376 15.3026 0.178373 15.2698C0.451119 14.1783 0.977928 13.2032 1.74191 12.379C1.77531 12.3429 1.77531 12.3429 1.80938 12.3061C3.17379 10.85 5.03309 10.2014 7.00238 10.211Z" fill="black"/>
</svg>
