<svg width="20" height="20" viewBox="0 0 20 20" fill="none" xmlns="http://www.w3.org/2000/svg">
<g clip-path="url(#clip0_3105_333)">
<path d="M10.0256 -0.0116391C10.0617 -0.0115549 10.0977 -0.0114707 10.1349 -0.0113839C10.684 -0.00933131 11.2191 0.00987349 11.759 0.117755C11.7981 0.125309 11.8373 0.132862 11.8776 0.140644C13.4579 0.453089 14.9082 1.11489 16.173 2.10994C16.2106 2.13915 16.2482 2.16835 16.2869 2.19844C17.4091 3.09225 18.281 4.20312 18.9465 5.46932C18.9611 5.49664 18.9758 5.52396 18.9908 5.55212C19.4657 6.44807 19.7774 7.47584 19.923 8.47713C19.9337 8.54937 19.9337 8.54937 19.9446 8.62306C20.007 9.07718 20.0152 9.52805 20.0134 9.98592C20.0133 10.0238 20.0132 10.0618 20.0131 10.1008C20.0111 10.661 19.9953 11.2077 19.884 11.7584C19.8726 11.8169 19.8726 11.8169 19.8611 11.8767C19.5487 13.4572 18.8869 14.9075 17.8918 16.1724C17.8626 16.21 17.8334 16.2476 17.8033 16.2863C16.9095 17.4085 15.7986 18.2804 14.5324 18.9459C14.5051 18.9605 14.4778 18.9752 14.4496 18.9902C13.5537 19.4652 12.5259 19.7768 11.5246 19.9224C11.4764 19.9295 11.4283 19.9366 11.3787 19.944C10.9245 20.0065 10.4737 20.0146 10.0158 20.0128C9.97789 20.0127 9.93996 20.0126 9.90089 20.0125C9.34069 20.0105 8.79404 19.9947 8.24335 19.8834C8.20431 19.8758 8.16526 19.8683 8.12504 19.8605C6.54458 19.5481 5.09421 18.8863 3.82929 17.8912C3.79172 17.862 3.75416 17.8328 3.71546 17.8027C2.59378 16.9093 1.72005 15.7982 1.05585 14.5318C1.041 14.5039 1.02615 14.4759 1.01086 14.4471C0.574252 13.6152 0.28691 12.6806 0.11835 11.7584C0.112068 11.7263 0.105787 11.6942 0.0993147 11.6611C-0.101159 10.604 -0.0960446 9.37499 0.11835 8.32088C0.125903 8.28299 0.133456 8.2451 0.141238 8.20606C0.312751 7.37232 0.580457 6.55442 0.938662 5.78182C1.07262 5.83994 1.16276 5.91628 1.26746 6.01742C1.3012 6.04991 1.33495 6.0824 1.36971 6.11587C1.5223 6.26498 1.67475 6.4142 1.82649 6.56417C1.90662 6.64326 1.98729 6.72175 2.06849 6.79976C2.16681 6.89422 2.26412 6.9896 2.3608 7.08573C2.41555 7.1397 2.47124 7.19272 2.52694 7.24571C2.76649 7.48687 2.76649 7.48687 2.78939 7.63583C2.7804 7.7261 2.76271 7.8048 2.73554 7.89119C2.72508 7.94362 2.72508 7.94362 2.71441 7.99711C2.70693 8.0259 2.69945 8.0547 2.69174 8.08437C2.68341 8.1176 2.67508 8.15084 2.66649 8.18508C2.64928 8.25193 2.63198 8.31877 2.61461 8.38558C2.47895 8.92821 2.44607 9.46373 2.44745 10.0201C2.44747 10.0526 2.44749 10.0851 2.44752 10.1186C2.44911 10.6524 2.48709 11.1608 2.61835 11.6803C2.62714 11.7156 2.63592 11.7509 2.64498 11.7874C2.88057 12.713 3.26264 13.6021 3.82929 14.3756C3.85884 14.4162 3.8884 14.4568 3.91886 14.4987C4.63416 15.4637 5.53454 16.2113 6.60272 16.7584C6.62731 16.7712 6.6519 16.7839 6.67723 16.7971C7.31434 17.1245 8.00872 17.3339 8.7121 17.4615C8.74743 17.4684 8.78276 17.4753 8.81916 17.4824C9.20477 17.5509 9.58635 17.5552 9.97675 17.5543C10.0113 17.5543 10.0458 17.5542 10.0814 17.5542C10.6282 17.5527 11.1491 17.5195 11.6808 17.3834C11.7161 17.3746 11.7513 17.3658 11.7876 17.3568C12.7134 17.1212 13.6025 16.7392 14.3762 16.1724C14.4168 16.1429 14.4574 16.1133 14.4993 16.0829C15.4643 15.3676 16.2119 14.4672 16.759 13.399C16.7717 13.3744 16.7845 13.3498 16.7977 13.3245C17.1251 12.6874 17.3344 11.993 17.4621 11.2896C17.469 11.2543 17.4759 11.219 17.483 11.1826C17.5515 10.797 17.5558 10.4154 17.5549 10.025C17.5549 9.99043 17.5548 9.95588 17.5548 9.92028C17.5533 9.37358 17.5201 8.85262 17.384 8.32088C17.3752 8.28565 17.3664 8.25042 17.3573 8.21413C17.1218 7.28831 16.7398 6.3992 16.173 5.62557C16.1435 5.58493 16.1139 5.5443 16.0835 5.50243C15.3682 4.5374 14.4678 3.78979 13.3996 3.24276C13.3627 3.2236 13.3627 3.2236 13.3251 3.20406C12.6881 2.87665 11.9936 2.66704 11.2902 2.53963C11.2544 2.53273 11.2185 2.52583 11.1816 2.51873C10.8105 2.45347 10.4452 2.44602 10.0695 2.44686C10.037 2.44685 10.0046 2.44685 9.97108 2.44684C9.25788 2.44831 8.56276 2.51837 7.88278 2.74532C7.75908 2.77812 7.66794 2.78634 7.54022 2.77401C7.44531 2.7078 7.44531 2.7078 7.35226 2.61388C7.31708 2.57894 7.28191 2.544 7.24566 2.508C7.20803 2.46943 7.17041 2.43084 7.13281 2.39223C7.09378 2.35296 7.05471 2.31374 7.01559 2.27456C6.93387 2.19248 6.85255 2.11004 6.77152 2.02728C6.6675 1.92104 6.5628 1.81549 6.45784 1.71018C6.37724 1.62926 6.29687 1.54812 6.21657 1.46689C6.17802 1.42789 6.13942 1.38892 6.10079 1.34999C6.047 1.29567 5.99352 1.24106 5.94005 1.18642C5.90953 1.15537 5.87901 1.12432 5.84757 1.09232C5.78241 1.01619 5.78241 1.01619 5.78241 0.938068C7.16804 0.355779 8.51873 -0.0179906 10.0256 -0.0116391Z" fill="#A32E37"/>
<path d="M11.4031 4.88239C11.4328 4.89055 11.4625 4.89871 11.4931 4.90712C12.86 5.29227 13.981 6.25258 14.6709 7.48222C15.3062 8.65555 15.4825 10.1194 15.1141 11.4058C15.1059 11.4355 15.0978 11.4651 15.0893 11.4956C14.7043 12.8626 13.744 13.9836 12.5143 14.6735C11.3409 15.3089 9.87704 15.4851 8.59064 15.1168C8.54618 15.1045 8.54618 15.1045 8.50083 15.092C7.13382 14.7069 6.01286 13.7466 5.32293 12.5169C4.90526 11.7456 4.71442 10.9254 4.71125 10.0508C4.71115 10.024 4.71104 9.99712 4.71094 9.96945C4.71069 9.36892 4.77553 8.79028 5.03596 8.24176C5.37467 8.19192 5.71017 8.15172 6.00619 8.35242C6.16389 8.47725 6.30515 8.61632 6.44358 8.76199C6.53009 8.8521 6.62012 8.93697 6.71137 9.02225C6.98772 9.29433 7.17449 9.51336 7.18512 9.91327C7.18041 10.0559 7.16802 10.1967 7.15215 10.3386C7.113 10.8594 7.46273 11.4606 7.792 11.8434C7.84846 11.9136 7.84846 11.9136 7.88538 11.996C7.93781 12.09 7.98612 12.1038 8.08283 12.148C8.13972 12.1951 8.1958 12.2433 8.25129 12.2921C8.88455 12.8043 9.63497 12.9004 10.4266 12.8511C10.9412 12.7963 11.4502 12.5403 11.8408 12.2045C11.911 12.148 11.911 12.148 11.9934 12.1111C12.0873 12.0587 12.1011 12.0103 12.1453 11.9136C12.1925 11.8567 12.2406 11.8007 12.2894 11.7452C12.8016 11.1119 12.8977 10.3615 12.8485 9.56988C12.7937 9.0553 12.5377 8.54624 12.2018 8.1557C12.1453 8.08551 12.1453 8.08551 12.1084 8.00311C12.056 7.90912 12.0077 7.89535 11.911 7.85114C11.8541 7.804 11.798 7.75587 11.7425 7.70709C11.3773 7.4117 10.8168 7.11961 10.3357 7.15463C10.3032 7.15824 10.2708 7.16186 10.2374 7.16559C9.86774 7.20192 9.58248 7.20135 9.28147 6.96429C9.16014 6.85578 9.04607 6.74241 8.93494 6.62349C8.84918 6.53251 8.75985 6.44677 8.66923 6.36066C8.40315 6.09522 8.21058 5.88019 8.19774 5.49169C8.20231 5.3384 8.21675 5.1904 8.23908 5.03864C9.18505 4.58951 10.4112 4.60036 11.4031 4.88239Z" fill="#A32E37"/>
<path d="M3.30942 0.056863C3.53062 0.204333 3.70502 0.410302 3.87718 0.610274C4.02024 0.773882 4.17091 0.927981 4.32531 1.08083C4.35374 1.10914 4.38216 1.13745 4.41145 1.16661C4.47262 1.2275 4.53383 1.28835 4.59509 1.34916C4.69206 1.44545 4.78889 1.54188 4.88568 1.63835C5.1607 1.91242 5.43595 2.18626 5.71136 2.45994C5.88027 2.6278 6.04899 2.79586 6.21759 2.96403C6.28175 3.02794 6.34598 3.09178 6.41028 3.15554C6.50003 3.24454 6.58953 3.33377 6.67898 3.42306C6.70552 3.44926 6.73207 3.47546 6.75941 3.50246C6.78383 3.52692 6.80825 3.55139 6.8334 3.5766C6.85455 3.59762 6.87569 3.61864 6.89747 3.64029C6.99624 3.75486 7.07156 3.84877 7.07852 4.00346C7.07397 4.03857 7.06942 4.07368 7.06473 4.10986C7.06024 4.15028 7.05575 4.19069 7.05113 4.23234C7.04612 4.27606 7.04111 4.31978 7.03595 4.36483C6.95977 5.2656 6.90938 6.09193 7.52103 6.82101C7.85071 7.18673 8.2146 7.51821 8.58592 7.84076C8.78933 8.01787 8.98618 8.20168 9.18281 8.38624C9.4232 8.61187 9.6643 8.83655 9.91051 9.05585C9.9445 9.08615 9.97849 9.11645 10.0135 9.14767C10.0767 9.20377 10.1401 9.25965 10.2037 9.31525C10.5611 9.63235 10.5611 9.63235 10.6146 9.87833C10.6184 10.1023 10.6077 10.2421 10.4579 10.4157C10.3142 10.5585 10.2235 10.5934 10.0208 10.6037C9.98212 10.6066 9.9434 10.6094 9.9035 10.6123C9.57488 10.5435 9.33221 10.2305 9.12044 9.98631C9.06318 9.92164 9.00587 9.85703 8.9485 9.79247C8.91851 9.75862 8.88852 9.72477 8.85762 9.68989C8.55695 9.35286 8.24856 9.02278 7.93832 8.69456C7.92052 8.67571 7.90271 8.65687 7.88436 8.63745C6.77598 7.38957 6.77598 7.38957 5.25918 6.88037C4.91107 6.88095 4.5509 6.92773 4.215 7.01933C4.1791 7.02877 4.1432 7.03821 4.10621 7.04794C4.07563 7.05743 4.04504 7.06692 4.01352 7.07669C3.7141 7.05323 3.44877 6.69683 3.24896 6.49639C3.21563 6.46326 3.18231 6.43014 3.14798 6.39601C3.05745 6.30593 2.96709 6.21567 2.87683 6.12532C2.80118 6.04963 2.72542 5.97405 2.64966 5.89847C2.47087 5.72013 2.2923 5.54157 2.11385 5.36289C1.93024 5.17904 1.74628 4.99556 1.56214 4.81225C1.40348 4.65428 1.24505 4.49608 1.0868 4.3377C0.992522 4.24336 0.898165 4.1491 0.803583 4.05506C0.698218 3.95018 0.593233 3.84493 0.488335 3.73958C0.457244 3.70879 0.426154 3.678 0.394121 3.64627C0.032895 3.2816 0.032895 3.2816 -0.015625 3.01798C-0.00929509 2.7555 0.0348508 2.63202 0.213505 2.43553C0.392667 2.28928 0.602099 2.3178 0.82254 2.32295C0.889671 2.32336 0.889671 2.32336 0.958159 2.32378C1.10066 2.32487 1.2431 2.32732 1.38559 2.32981C1.48238 2.33079 1.57917 2.33168 1.67596 2.33248C1.91285 2.33463 2.1497 2.3379 2.38657 2.34202C2.38566 2.30562 2.38566 2.30562 2.38473 2.26849C2.37866 2.01502 2.37454 1.76156 2.37155 1.50803C2.37017 1.41353 2.36831 1.31904 2.36594 1.22456C2.36261 1.08841 2.36107 0.952328 2.35986 0.81614C2.35845 0.774177 2.35704 0.732213 2.35559 0.688977C2.35545 0.423203 2.40278 0.284455 2.58968 0.0931121C2.79096 -0.0665446 3.0862 -0.0355035 3.30942 0.056863Z" fill="#A32E37"/>
</g>
<defs>
<clipPath id="clip0_3105_333">
<rect width="20" height="20" fill="white"/>
</clipPath>
</defs>
</svg>
