<svg width="32" height="32" viewBox="0 0 32 32" fill="none" xmlns="http://www.w3.org/2000/svg">
<rect x="0.5" y="0.5" width="31" height="31" rx="7.5" stroke="black"/>
<path d="M15.9996 6C14.2974 6 12.665 6.67617 11.4614 7.87976C10.2578 9.08335 9.58168 10.7158 9.58168 12.4179V15.6525C9.58181 15.7947 9.54885 15.9351 9.48541 16.0623L7.91119 19.2099C7.83429 19.3636 7.79798 19.5345 7.80571 19.7063C7.81343 19.878 7.86494 20.045 7.95533 20.1912C8.04573 20.3374 8.17201 20.4582 8.32218 20.5419C8.47235 20.6256 8.64144 20.6695 8.81336 20.6695H23.1858C23.3577 20.6695 23.5268 20.6256 23.677 20.5419C23.8271 20.4582 23.9534 20.3374 24.0438 20.1912C24.1342 20.045 24.1857 19.878 24.1934 19.7063C24.2012 19.5345 24.1649 19.3636 24.088 19.2099L22.5147 16.0623C22.4509 15.9351 22.4176 15.7948 22.4175 15.6525V12.4179C22.4175 10.7158 21.7413 9.08335 20.5377 7.87976C19.3341 6.67617 17.7017 6 15.9996 6ZM15.9996 23.42C15.4305 23.4203 14.8754 23.2441 14.4107 22.9157C13.946 22.5873 13.5946 22.1228 13.4049 21.5863H18.5942C18.4046 22.1228 18.0532 22.5873 17.5884 22.9157C17.1237 23.2441 16.5686 23.4203 15.9996 23.42Z" fill="black"/>
</svg>
