<svg width="20" height="20" viewBox="0 0 20 20" fill="none" xmlns="http://www.w3.org/2000/svg">
<g clip-path="url(#clip0_3105_2)">
<path d="M9.91657 -0.0112184C10.0324 -0.0107973 10.1483 -0.0112181 10.2641 -0.0117143C10.6532 -0.011958 11.0266 -0.00242793 11.409 0.0770918C11.3553 0.219136 11.2916 0.349383 11.2173 0.481755C11.1949 0.521758 11.1725 0.561761 11.1494 0.602976C11.1255 0.645352 11.1016 0.687729 11.0769 0.731389C11.0522 0.775401 11.0274 0.819414 11.0019 0.86476C10.8523 1.13003 10.7006 1.39388 10.5453 1.65581C10.3991 1.90237 10.2557 2.15051 10.1126 2.39887C10.0752 2.46375 10.0752 2.46375 10.0371 2.52993C9.98597 2.61863 9.93488 2.70733 9.8838 2.79604C9.7608 3.00958 9.63761 3.22302 9.51444 3.43647C9.46561 3.5211 9.41678 3.60574 9.36796 3.69037C9.2703 3.85964 9.17264 4.02891 9.07499 4.19819C9.05082 4.24009 9.02664 4.28199 9.00174 4.32516C8.95294 4.40973 8.90415 4.4943 8.85535 4.57887C8.73272 4.79139 8.61015 5.00395 8.48768 5.21656C8.25243 5.62483 8.01652 6.03268 7.7786 6.4394C7.58035 6.77837 7.38467 7.11874 7.19022 7.4599C6.98654 7.81717 6.78185 8.1738 6.57499 8.52924C6.55263 8.56776 6.53027 8.60628 6.50724 8.64597C6.40138 8.8274 6.29378 9.00566 6.1746 9.17865C6.06368 9.07469 5.98442 8.9766 5.91123 8.84357C5.89165 8.80838 5.87207 8.7732 5.85189 8.73694C5.83109 8.69901 5.81029 8.66109 5.78886 8.62201C5.74334 8.54025 5.69777 8.45851 5.65214 8.3768C5.62872 8.33482 5.60531 8.29283 5.58118 8.24957C5.47037 8.05257 5.3563 7.85752 5.24198 7.66254C4.97657 7.20916 4.71382 6.75428 4.45159 6.29905C4.30509 6.04478 4.15839 5.79061 4.01169 5.53644C3.88851 5.32298 3.76543 5.10946 3.64255 4.89582C3.61793 4.85305 3.59331 4.81029 3.56794 4.76622C3.51905 4.68127 3.47022 4.59629 3.42145 4.51127C3.30172 4.30312 3.18022 4.09641 3.05479 3.89164C3.0309 3.85235 3.00701 3.81306 2.9824 3.77258C2.9372 3.6985 2.89154 3.62471 2.84534 3.55125C2.82533 3.51836 2.80532 3.48546 2.78471 3.45157C2.75808 3.4088 2.75808 3.4088 2.73092 3.36516C2.68782 3.25382 2.69873 3.19714 2.7371 3.0849C2.79209 3.01094 2.79209 3.01094 2.86253 2.94147C2.88838 2.91571 2.91423 2.88994 2.94086 2.86339C2.9826 2.82319 2.9826 2.82319 3.02518 2.78217C3.05377 2.75423 3.08235 2.7263 3.1118 2.69751C3.32868 2.48756 3.55029 2.28978 3.79179 2.10834C3.81684 2.08938 3.84189 2.07043 3.8677 2.05089C4.25733 1.75751 4.6556 1.49063 5.08167 1.25314C5.15371 1.21285 5.2251 1.17159 5.29645 1.1301C6.26863 0.583458 7.37817 0.239168 8.47929 0.0770918C8.5491 0.0666591 8.5491 0.0666591 8.62033 0.0560156C9.05244 -0.00398372 9.48075 -0.013101 9.91657 -0.0112184Z" fill="black"/>
<path d="M13.8281 10.8203C13.9521 10.9346 14.0333 11.0486 14.1158 11.1954C14.1404 11.239 14.1651 11.2826 14.1905 11.3275C14.217 11.3749 14.2435 11.4223 14.27 11.4697C14.2978 11.519 14.3257 11.5683 14.3536 11.6176C14.3965 11.6935 14.4395 11.7695 14.4823 11.8455C14.6215 12.0923 14.7629 12.3378 14.9048 12.583C14.9533 12.6669 15.0017 12.7509 15.0502 12.8348C15.0741 12.8762 15.0981 12.9176 15.1227 12.9602C15.2447 13.1714 15.3665 13.3826 15.4883 13.5938C15.5371 13.6784 15.5859 13.763 15.6348 13.8477C15.9277 14.3555 15.9277 14.3555 16.001 14.4825C16.0497 14.5668 16.0983 14.6511 16.1469 14.7354C16.2721 14.9522 16.3971 15.1692 16.5219 15.3862C16.5601 15.4525 16.5601 15.4525 16.599 15.5201C16.6489 15.6068 16.6987 15.6936 16.7485 15.7804C16.8529 15.9619 16.958 16.1425 17.0694 16.3199C17.0863 16.347 17.1032 16.3741 17.1207 16.402C17.164 16.4708 17.2081 16.539 17.2522 16.6072C17.314 16.7385 17.3074 16.7782 17.2656 16.9141C17.2106 16.988 17.2106 16.988 17.1402 17.0575C17.1143 17.0833 17.0885 17.109 17.0619 17.1356C17.034 17.1624 17.0062 17.1892 16.9775 17.2168C16.9347 17.2587 16.9347 17.2587 16.8909 17.3015C16.674 17.5114 16.4523 17.7089 16.2109 17.8906C16.1873 17.9088 16.1637 17.9269 16.1394 17.9456C14.5389 19.1701 12.5019 20.0039 10.4645 20.0066C10.4282 20.0067 10.3919 20.0068 10.3545 20.007C10.2782 20.0072 10.2019 20.0072 10.1256 20.0072C10.0106 20.0073 9.89559 20.008 9.78058 20.0088C9.37732 20.0099 8.99123 19.997 8.59375 19.9219C8.64418 19.7895 8.70148 19.6671 8.77136 19.5439C8.79119 19.5089 8.81102 19.4738 8.83145 19.4377C8.85291 19.4001 8.87437 19.3625 8.89648 19.3237C8.91903 19.284 8.94157 19.2443 8.9648 19.2034C9.14552 18.8861 9.32929 18.5705 9.51389 18.2553C9.69101 17.9526 9.86545 17.6485 10.0391 17.3438C10.2555 16.964 10.474 16.5856 10.6947 16.2083C10.9351 15.7972 11.1728 15.3846 11.4105 14.972C11.5327 14.7599 11.655 14.5479 11.7773 14.3359C11.8262 14.2513 11.875 14.1667 11.9238 14.082C12.0703 13.8281 12.0703 13.8281 12.2168 13.5742C12.241 13.5323 12.2651 13.4904 12.29 13.4472C12.3388 13.3627 12.3876 13.2781 12.4364 13.1935C12.5591 12.981 12.6816 12.7685 12.8041 12.5558C13.0519 12.1258 13.3002 11.6961 13.5498 11.2671C13.585 11.2064 13.585 11.2064 13.621 11.1445C13.6425 11.1075 13.664 11.0706 13.6862 11.0326C13.7147 10.9837 13.7147 10.9837 13.7437 10.9338C13.7891 10.8594 13.7891 10.8594 13.8281 10.8203Z" fill="black"/>
<path d="M2.06808 3.82812C2.23752 3.8846 2.27487 4.01244 2.35373 4.1626C2.38878 4.2275 2.42393 4.29235 2.45917 4.35715C2.47802 4.39186 2.49687 4.42657 2.51629 4.46234C2.61902 4.64843 2.72698 4.83141 2.83469 5.01465C3.03719 5.36003 3.2371 5.70681 3.43527 6.05469C3.65166 6.43443 3.87018 6.81285 4.09087 7.19011C4.33127 7.6012 4.56901 8.01382 4.80671 8.42648C4.9289 8.63854 5.05123 8.85052 5.17355 9.0625C5.22238 9.14713 5.27121 9.23177 5.32004 9.31641C5.34421 9.3583 5.36838 9.4002 5.39328 9.44336C5.66183 9.90885 5.93039 10.3743 6.19894 10.8398C6.22315 10.8818 6.24735 10.9237 6.27229 10.967C6.32078 11.051 6.36926 11.1351 6.41773 11.2192C6.53136 11.4162 6.6451 11.6132 6.75927 11.81C6.79962 11.8796 6.83994 11.9491 6.88025 12.0187C6.93078 12.106 6.98139 12.1931 7.03207 12.2803C7.05498 12.3199 7.0779 12.3594 7.1015 12.4002C7.1215 12.4347 7.1415 12.4691 7.16211 12.5046C7.23917 12.644 7.30934 12.7872 7.38058 12.9297C5.07316 12.9297 2.76574 12.9297 0.388396 12.9297C-0.0135444 11.3219 -0.195046 9.68601 0.154021 8.04688C0.161335 8.01079 0.168649 7.97471 0.176185 7.93753C0.469646 6.5095 1.08046 5.17726 1.9455 4.00656C1.98789 3.94816 2.02806 3.88817 2.06808 3.82812Z" fill="black"/>
<path d="M12.6172 7.07031C14.9246 7.07031 17.232 7.07031 19.6094 7.07031C19.9904 8.59423 20.2 10.1958 19.8828 11.7578C19.8759 11.793 19.869 11.8282 19.8619 11.8644C19.8111 12.1173 19.7521 12.3675 19.6875 12.6172C19.6793 12.6492 19.6711 12.6813 19.6627 12.7143C19.3734 13.8204 18.8564 14.8474 18.2031 15.7812C18.175 15.8218 18.1469 15.8623 18.118 15.9041C18.0556 15.9936 17.9929 16.0829 17.9297 16.1719C17.7824 16.1228 17.7732 16.0822 17.7007 15.9483C17.6792 15.9092 17.6577 15.8701 17.6356 15.8299C17.6126 15.7872 17.5896 15.7446 17.5659 15.7007C17.5165 15.6106 17.4669 15.5206 17.4173 15.4306C17.3983 15.3961 17.3983 15.3961 17.379 15.3609C17.2546 15.135 17.1252 14.9123 16.9946 14.6899C16.949 14.6122 16.9035 14.5344 16.8579 14.4566C16.8351 14.4177 16.8123 14.3788 16.7888 14.3387C16.6678 14.1315 16.548 13.9237 16.4282 13.7158C16.4039 13.6736 16.3796 13.6314 16.3545 13.588C16.3052 13.5024 16.256 13.4169 16.2067 13.3313C16.0845 13.1193 15.9622 12.9073 15.8398 12.6953C15.791 12.6107 15.7422 12.526 15.6934 12.4414C15.6692 12.3995 15.645 12.3576 15.6201 12.3145C14.9609 11.1719 14.3018 10.0293 13.6426 8.88672C13.6184 8.84475 13.5941 8.80277 13.5692 8.75953C13.5208 8.67569 13.4725 8.59185 13.4241 8.50801C13.309 8.30839 13.1938 8.10884 13.0782 7.90951C13.0232 7.81463 12.9683 7.71971 12.9133 7.62479C12.8742 7.55724 12.8349 7.48975 12.7957 7.42226C12.7723 7.3818 12.7489 7.34134 12.7248 7.29965C12.6935 7.24583 12.6935 7.24583 12.6617 7.19092C12.6172 7.10938 12.6172 7.10938 12.6172 7.07031Z" fill="black"/>
<path d="M12.2266 0.234375C13.6208 0.4471 14.9943 1.16472 16.0938 2.03125C16.1519 2.07702 16.1519 2.07702 16.2112 2.12372C16.8213 2.61479 17.4188 3.16154 17.8906 3.78906C17.9094 3.8137 17.9281 3.83833 17.9474 3.86372C18.5051 4.59984 18.9539 5.39269 19.2969 6.25C15.8293 6.25 12.3617 6.25 8.78906 6.25C8.84367 6.11349 8.8952 5.99805 8.96667 5.87204C8.9865 5.83698 9.00633 5.80193 9.02677 5.76581C9.04823 5.72821 9.06969 5.6906 9.0918 5.65186C9.11434 5.61216 9.13688 5.57247 9.16011 5.53157C9.34083 5.21418 9.5246 4.89861 9.70921 4.58346C9.88632 4.28076 10.0608 3.97659 10.2344 3.67188C10.4507 3.29219 10.6692 2.91381 10.8899 2.53662C11.0566 2.2516 11.2219 1.96582 11.3867 1.67969C11.6648 1.19684 11.9453 0.715377 12.2266 0.234375Z" fill="black"/>
<path d="M0.703125 13.75C4.1707 13.75 7.63828 13.75 11.2109 13.75C11.1529 13.895 11.095 14.0198 11.0193 14.1547C10.9969 14.1947 10.9745 14.2347 10.9514 14.2759C10.9275 14.3183 10.9036 14.3606 10.8789 14.4043C10.8542 14.4483 10.8294 14.4923 10.8039 14.5377C10.6543 14.8029 10.5026 15.0668 10.3472 15.3287C10.2011 15.5753 10.0577 15.8234 9.91455 16.0718C9.87717 16.1367 9.87717 16.1367 9.83903 16.2028C9.78793 16.2915 9.73685 16.3802 9.68576 16.4689C9.56276 16.6825 9.43958 16.8959 9.31641 17.1094C9.26758 17.194 9.21875 17.2786 9.16992 17.3633C9.07227 17.5326 8.97461 17.7018 8.87695 17.8711C8.85274 17.9131 8.82853 17.955 8.80359 17.9983C8.75518 18.0822 8.70676 18.1661 8.65834 18.25C8.54367 18.4487 8.42905 18.6474 8.31461 18.8463C8.26042 18.9404 8.2062 19.0346 8.15197 19.1287C8.1136 19.1954 8.07528 19.262 8.03696 19.3287C8.01379 19.3689 7.99063 19.4091 7.96677 19.4505C7.94636 19.486 7.92595 19.5215 7.90492 19.558C7.86329 19.6286 7.81887 19.6975 7.77344 19.7656C7.47575 19.7188 7.19459 19.6496 6.90918 19.5532C6.86901 19.5397 6.82883 19.5261 6.78744 19.5121C5.57656 19.0928 4.46101 18.4813 3.49893 17.6322C3.45452 17.5931 3.40985 17.5543 3.36501 17.5157C2.89202 17.1073 2.45177 16.6651 2.08118 16.1612C2.02993 16.092 1.97746 16.0238 1.92474 15.9557C1.4118 15.2851 1.01596 14.5321 0.703125 13.75Z" fill="black"/>
</g>
<defs>
<clipPath id="clip0_3105_2">
<rect width="20" height="20" fill="white"/>
</clipPath>
</defs>
</svg>
