<svg width="14" height="14" viewBox="0 0 14 14" fill="none" xmlns="http://www.w3.org/2000/svg">
<path fill-rule="evenodd" clip-rule="evenodd" d="M6.39923 1.75123C6.43338 1.90207 6.40623 2.0603 6.32375 2.19112C6.24127 2.32195 6.11022 2.41467 5.9594 2.4489C5.84493 2.47494 5.73149 2.5053 5.61931 2.5399C5.54612 2.5625 5.46919 2.57046 5.39292 2.56332C5.31664 2.55619 5.24252 2.53411 5.17479 2.49833C5.10705 2.46255 5.04703 2.41378 4.99814 2.35481C4.94925 2.29583 4.91245 2.2278 4.88986 2.15461C4.86726 2.08141 4.8593 2.00448 4.86643 1.92821C4.87356 1.85194 4.89565 1.77782 4.93143 1.71008C4.9672 1.64234 5.01597 1.58232 5.07495 1.53343C5.13392 1.48454 5.20195 1.44775 5.27515 1.42515C5.41515 1.38159 5.55709 1.34368 5.70098 1.3114C5.77571 1.2944 5.85305 1.2923 5.9286 1.30521C6.00414 1.31812 6.0764 1.34579 6.14124 1.38663C6.20609 1.42748 6.26225 1.4807 6.30651 1.54326C6.35078 1.60582 6.38229 1.67649 6.39923 1.75123ZM7.59506 1.75123C7.62929 1.60041 7.72201 1.46936 7.85284 1.38688C7.98367 1.3044 8.14189 1.27725 8.29273 1.3114C10.8909 1.90056 12.8311 4.2234 12.8311 7.00007C12.8311 10.2218 10.2189 12.8334 6.99773 12.8334C4.22048 12.8334 1.89765 10.8938 1.30848 8.29565C1.27824 8.1463 1.30764 7.99106 1.39038 7.86311C1.47313 7.73516 1.60265 7.64466 1.75126 7.61098C1.89986 7.57729 2.05575 7.60309 2.18558 7.68286C2.31541 7.76263 2.40887 7.89003 2.44598 8.03782C2.63161 8.85084 3.03171 9.59927 3.60466 10.2052C4.1776 10.8112 4.90247 11.2526 5.70383 11.4834C6.50519 11.7142 7.35377 11.7261 8.16127 11.5178C8.96878 11.3095 9.70572 10.8886 10.2954 10.2989C10.8851 9.70922 11.306 8.97228 11.5143 8.16478C11.7226 7.35727 11.7107 6.50869 11.4799 5.70733C11.2491 4.90597 10.8077 4.18111 10.2017 3.60816C9.59577 3.03521 8.84734 2.63511 8.03431 2.44948C7.88348 2.41513 7.75246 2.32227 7.67009 2.19132C7.58771 2.06038 7.56073 1.90207 7.59506 1.75123ZM3.85531 2.7534C3.90748 2.80957 3.94807 2.87547 3.97475 2.94733C4.00143 3.0192 4.01369 3.09562 4.01082 3.17222C4.00795 3.24883 3.99 3.32412 3.95802 3.39378C3.92603 3.46345 3.88062 3.52613 3.8244 3.57823C3.73806 3.65795 3.65504 3.74079 3.57531 3.82673C3.46935 3.93699 3.32432 4.00123 3.17145 4.00562C3.01859 4.01 2.87011 3.95418 2.758 3.85017C2.64589 3.74617 2.5791 3.60229 2.57202 3.44953C2.56494 3.29676 2.61813 3.14733 2.72015 3.0334C2.81931 2.92606 2.92276 2.82243 3.03048 2.72248C3.08665 2.67031 3.15255 2.62973 3.22442 2.60304C3.29628 2.57636 3.3727 2.56411 3.44931 2.56698C3.52591 2.56985 3.6012 2.58779 3.67086 2.61978C3.74053 2.65177 3.80321 2.69717 3.85531 2.7534ZM6.99715 3.50007C7.15186 3.50007 7.30023 3.56152 7.40963 3.67092C7.51902 3.78032 7.58048 3.92869 7.58048 4.0834V6.75857L9.15956 8.33765C9.26582 8.44767 9.32462 8.59502 9.32329 8.74797C9.32196 8.90091 9.26061 9.04722 9.15246 9.15538C9.0443 9.26353 8.898 9.32488 8.74505 9.32621C8.5921 9.32754 8.44475 9.26874 8.33473 9.16248L6.58473 7.41248C6.47533 7.30311 6.41385 7.15476 6.41381 7.00007V4.0834C6.41381 3.92869 6.47527 3.78032 6.58467 3.67092C6.69406 3.56152 6.84244 3.50007 6.99715 3.50007ZM2.1514 4.89306C2.29921 4.93865 2.42287 5.04107 2.49517 5.17781C2.56748 5.31455 2.58252 5.47441 2.53698 5.62223C2.50238 5.73441 2.47203 5.84785 2.44598 5.96232C2.40887 6.1101 2.31541 6.2375 2.18558 6.31727C2.05575 6.39704 1.89986 6.42284 1.75126 6.38915C1.60265 6.35547 1.47313 6.26498 1.39038 6.13703C1.30764 6.00908 1.27824 5.85383 1.30848 5.70448C1.34115 5.56059 1.37906 5.41865 1.42223 5.27865C1.46781 5.13084 1.57023 5.00718 1.70697 4.93487C1.84371 4.86256 2.00357 4.84753 2.1514 4.89306Z" fill="#FE0909"/>
</svg>
