<svg width="219" height="200" viewBox="0 0 219 200" fill="none" xmlns="http://www.w3.org/2000/svg">
<path d="M217.287 144.981C216.347 150.912 214.687 156.821 212.278 162.411C211.243 164.819 210.069 167.165 208.753 169.43H13.4266C11.8761 167.174 10.4595 164.824 9.1856 162.411C6.83827 157.998 4.95885 153.357 3.55193 148.621C-1.00373 133.271 -0.822533 116.928 2.09224 101.232C7.02911 74.6888 20.0479 49.2288 40.5224 30.4098C61.002 11.5913 89.0998 -0.190787 117.709 0.00233853C146.317 0.195464 174.964 12.9303 191.751 34.7508C205.056 52.0371 210.432 73.5296 214.387 94.55C217.516 111.203 219.949 128.256 217.287 144.981Z" fill="#FFF0F1"/>
<path d="M212.241 162.418H9.14844C10.4219 164.831 11.8389 167.181 13.3894 169.437H13.3871C18.1781 176.437 24.2572 182.606 31.5226 187.345C44.2625 195.659 59.9515 199.22 75.4332 199.885C86.2299 200.346 96.911 199.355 107.624 198.237C136.021 195.285 165.913 204.785 191.508 187.959C198.764 183.189 204.474 176.75 208.716 169.437H208.716C210.032 167.172 211.206 164.827 212.241 162.418Z" fill="#FFDFE1"/>
<path d="M197.327 98.4594V97.9961H108.713C107.912 105.429 107.016 110.365 106.047 110.365H190.204C194.139 110.364 197.327 105.033 197.327 98.4594Z" fill="#BABAC1"/>
<path d="M189.721 110.363C185.786 110.363 182.599 105.037 182.599 98.4634V40.9101C182.594 34.341 179.407 29.0156 175.472 29.0156H95.1172V98.4634C95.1172 105.032 101.634 110.363 105.569 110.363H189.721Z" fill="#D7CFCF"/>
<path d="M182.623 40.6828V41.1461H94.0094C93.2089 33.7133 92.313 28.7773 91.3438 28.7773H175.501C179.437 28.7778 182.623 34.1087 182.623 40.6828Z" fill="#D7CFCF"/>
<path d="M175.401 28.7773C171.466 28.7773 168.279 34.089 168.279 40.6456V162.03C168.273 168.582 165.086 173.893 161.151 173.893H80.7969V40.6456C80.7969 34.094 87.3136 28.7773 91.2486 28.7773H175.401Z" fill="white"/>
<path d="M87.4844 65.1836H158.079" stroke="#F6F3F2" stroke-miterlimit="10"/>
<path d="M91.3438 36.0977H161.939" stroke="#F6F3F2" stroke-miterlimit="10"/>
<path d="M87.4844 95.0781H158.079" stroke="#F6F3F2" stroke-miterlimit="10"/>
<mask id="mask0_3012_12769" style="mask-type:luminance" maskUnits="userSpaceOnUse" x="80" y="28" width="96" height="146">
<path d="M175.401 28.7773C171.466 28.7773 168.279 34.089 168.279 40.6456V162.03C168.273 168.582 165.086 173.893 161.151 173.893H80.7969V40.6456C80.7969 34.094 87.3136 28.7773 91.2486 28.7773H175.401Z" fill="white"/>
</mask>
<g mask="url(#mask0_3012_12769)">
<path d="M100.281 62.5159C106.844 62.5159 112.164 57.1958 112.164 50.633C112.164 44.0702 106.844 38.75 100.281 38.75C93.7186 38.75 88.3984 44.0702 88.3984 50.633C88.3984 57.1958 93.7186 62.5159 100.281 62.5159Z" fill="#F0EBE9"/>
<mask id="mask1_3012_12769" style="mask-type:luminance" maskUnits="userSpaceOnUse" x="88" y="38" width="25" height="25">
<path d="M100.281 62.5159C106.844 62.5159 112.164 57.1958 112.164 50.633C112.164 44.0702 106.844 38.75 100.281 38.75C93.7186 38.75 88.3984 44.0702 88.3984 50.633C88.3984 57.1958 93.7186 62.5159 100.281 62.5159Z" fill="white"/>
</mask>
<g mask="url(#mask1_3012_12769)">
<path d="M103.17 48.8813C103.872 48.462 104.797 48.2024 105.486 48.6428C106.213 49.107 106.334 50.1002 106.392 50.9612C106.451 51.8222 106.604 52.82 107.355 53.2448C107.853 53.5264 108.466 53.4599 109.03 53.5567C110.636 53.8329 111.747 55.5866 111.538 57.2027C111.329 58.8188 109.997 60.1601 108.438 60.6354C106.879 61.1102 105.155 60.8074 103.701 60.0725C102.246 59.3376 101.031 58.2018 99.9538 56.9793C98.9891 55.8843 98.1056 54.6852 97.6124 53.3122C97.2134 52.2007 96.6133 49.6254 98.4973 49.7589C99.3033 49.8158 99.9901 50.2653 100.821 50.1314C101.719 49.9859 102.414 49.3318 103.17 48.8813Z" fill="black"/>
<path d="M105.141 53.3555C108.464 55.006 109.531 63.4205 109.531 63.4205L103.273 64.3581L105.141 53.3555Z" fill="#E4786B"/>
<path d="M93.8578 47.7321C93.349 47.9532 92.8504 48.328 92.7288 48.8693C92.5196 49.8014 93.5073 50.6767 93.3444 51.618C93.2247 52.3102 92.5086 52.7538 91.8146 52.8644C91.121 52.9745 90.4127 52.8447 89.7104 52.863C89.0081 52.8814 88.2411 53.0979 87.8649 53.691C87.4268 54.3819 87.6805 55.2943 88.0369 56.0305C88.3933 56.7668 88.8535 57.5155 88.7934 58.3315C88.7255 59.2485 88.0066 60.0247 87.9594 60.9431C87.8998 62.0931 88.9071 63.0257 89.9498 63.5138C91.3301 64.1602 92.9242 64.3405 94.4142 64.0189C95.9042 63.6973 97.2817 62.8753 98.2721 61.7165C99.5134 60.2651 100.115 58.354 100.298 56.453C100.481 54.5521 100.275 52.6373 100.069 50.7386C99.958 49.7088 99.8465 48.6789 99.7346 47.6491C99.6419 46.7931 99.73 45.5664 99.2708 44.8123C98.4574 43.4764 96.5308 45.082 96.5308 45.082C96.8936 47.3876 94.8688 47.2935 93.8578 47.7321Z" fill="black"/>
<path d="M105.143 53.3556L105.002 55.6754L104.724 60.2081L104.684 60.8659L104.556 62.9508L104.395 65.5711H95.6888L95.681 65.4927L94.7016 54.0781L94.6406 53.3551L97.1825 52.6762L101.606 51.4922L104.007 52.7564C104.007 52.7583 104.007 52.7583 104.007 52.7583L105.143 53.3556Z" fill="#E4786B"/>
<path d="M97.1797 52.6753L101.604 51.4922L104.004 52.7555C104.004 52.7574 104.004 52.7574 104.004 52.7574C104.176 57.5094 99.1169 56.4089 97.1797 52.6753Z" fill="white"/>
<path d="M101.066 53.8254L99.1972 53.8217C98.5132 53.8204 97.9596 53.2648 97.9609 52.5809L97.9692 48.8789L102.401 48.8872L102.394 52.5024C102.392 53.2341 101.798 53.8268 101.066 53.8254Z" fill="white"/>
<path d="M102.395 51.592L102.394 52.2507C100.511 52.4457 98.4335 51.1892 99.0129 48.1992L102.4 48.2047L102.395 51.592Z" fill="white"/>
<path d="M101.135 41.6969C103.28 41.4744 105.2 43.0328 105.422 45.1778L105.555 46.4581C105.761 48.4407 104.321 50.2147 102.338 50.4206L98.7701 50.7908C98.433 50.8257 98.1311 50.5807 98.0963 50.2435L97.654 45.9842C97.4311 43.8397 98.9894 41.9199 101.135 41.6969Z" fill="white"/>
<path d="M98.2586 47.1514C98.2586 47.1514 100.602 45.161 101.691 41.6788C95.6154 41.1957 95.5502 46.6317 98.2586 47.1514Z" fill="black"/>
<path d="M99.1855 47.5156C98.2424 45.7376 97.3887 45.6156 96.6997 45.9761C95.4368 46.6367 95.9877 49.646 98.3259 49.0079L99.1855 47.5156Z" fill="white"/>
<path d="M100.289 41.6762C100.289 41.6762 104.234 41.361 105.478 45.6713C105.514 41.9923 103.127 41.2551 100.289 41.6762Z" fill="black"/>
<path d="M92.4297 55.7551C92.2279 57.5768 91.9233 63.5077 92.3435 68.3028L96.0555 66.844C98.8391 54.9684 95.9964 52.9922 95.9964 52.9922C95.9964 52.9922 92.7132 53.1982 92.4297 55.7551Z" fill="#E4786B"/>
</g>
<path d="M112.014 81.7203C113.074 75.2435 108.683 69.1338 102.206 68.0739C95.7293 67.014 89.6196 71.4053 88.5597 77.8821C87.4998 84.3589 91.8911 90.4686 98.3679 91.5285C104.845 92.5884 110.954 88.1971 112.014 81.7203Z" fill="#F0EBE9"/>
<mask id="mask2_3012_12769" style="mask-type:luminance" maskUnits="userSpaceOnUse" x="88" y="67" width="25" height="25">
<path d="M112.014 81.7203C113.074 75.2435 108.683 69.1338 102.206 68.0739C95.7293 67.014 89.6196 71.4053 88.5597 77.8821C87.4998 84.3589 91.8911 90.4686 98.3679 91.5285C104.845 92.5884 110.954 88.1971 112.014 81.7203Z" fill="white"/>
</mask>
<g mask="url(#mask2_3012_12769)">
<path d="M103.015 75.2415C104.525 75.2415 105.749 74.0174 105.749 72.5075C105.749 70.9975 104.525 69.7734 103.015 69.7734C101.505 69.7734 100.281 70.9975 100.281 72.5075C100.281 74.0174 101.505 75.2415 103.015 75.2415Z" fill="black"/>
<path d="M97.302 84.5905L99.9379 85.413C99.9338 85.491 99.8902 86.2676 99.7686 87.3374C99.5883 88.9104 99.2415 91.11 98.608 92.6504C98.4649 92.9954 98.1718 93.4555 97.7598 93.9587L94.0391 89.7779C94.5707 88.9407 94.857 87.9838 95.1194 86.7837C95.2148 86.341 95.6203 85.686 96.191 85.1956C96.4731 84.9506 96.7965 84.7465 97.1433 84.6314C97.1561 84.6249 97.1736 84.6185 97.1864 84.6162C97.2213 84.6075 97.2538 84.5965 97.2864 84.5859L97.302 84.5905Z" fill="#026B51"/>
<path d="M107.491 87.6598C107.491 87.6727 107.489 87.686 107.486 87.6965C107.347 88.686 107.146 89.6814 106.892 90.6448C106.44 92.3499 105.818 93.96 105.067 95.2725C104.772 95.7867 104.458 96.2574 104.126 96.6698C104.074 96.7326 104.022 96.7955 103.97 96.8565L103.684 96.5418L103.619 96.4702L97.546 97.6501L96.5721 88.7576L96.173 88.3213C96.0038 87.7006 95.8996 87.2171 95.8455 86.8245C95.7762 86.291 95.9171 85.7698 96.212 85.3579C96.3033 85.2299 96.4093 85.1107 96.5286 85.0065C96.5437 84.9937 96.5611 84.9785 96.5763 84.9652C96.7804 84.796 97.0208 84.6657 97.2878 84.5877C97.2942 84.5854 97.2988 84.5854 97.3052 84.5836C99.3773 83.9762 103.043 83.3468 104.313 83.1432C104.38 83.1321 104.438 83.1216 104.493 83.1129C104.656 83.0867 104.751 83.0716 104.76 83.0716C105.539 83 106.127 83.1152 106.561 83.384C107.179 83.7638 107.483 84.4515 107.58 85.3345C107.656 86.0107 107.611 86.8025 107.491 87.6598Z" fill="#018061"/>
<path d="M107.488 87.6598C107.488 87.6727 107.485 87.686 107.483 87.6965C107.344 88.686 107.143 89.6815 106.889 90.6448L106.229 95.0032L105.064 95.2725C104.769 95.7867 104.454 96.2574 104.122 96.6698L103.68 96.5418L103.716 95.5808L104.638 87.5621L104.94 84.9414L107.576 85.3341C107.653 86.0107 107.607 86.8025 107.488 87.6598Z" fill="#026B51"/>
<path d="M96.0487 88.3892L96.4414 88.8199L96.6588 88.7552C96.5703 87.0359 96.8919 85.5368 97.18 84.6523C97.1749 84.6537 97.1699 84.6556 97.1644 84.6569C96.196 84.9395 95.5872 85.8937 95.7217 86.8932C95.7749 87.2878 95.8799 87.7703 96.0487 88.3892Z" fill="#026B51"/>
<path d="M96.8555 85.9414C94.7756 89.3901 93.9769 91.787 96.4825 92.332C98.9886 92.877 98.9523 89.7535 98.9523 89.7535L96.8555 85.9414Z" fill="#026B51"/>
<path d="M94.9561 76.6371C93.8474 74.2838 95.4125 70.7231 100.339 72.8599L94.9561 76.6371Z" fill="black"/>
<path d="M97.5469 84.5159C97.7588 87.2633 102.933 86.1233 103.462 83.2852L100.574 83.2884L97.5469 84.5159Z" fill="white"/>
<path d="M100.681 79.5054C101.579 81.9133 104.206 80.705 104.207 76.6874C104.208 72.9887 101.352 71.1129 95.8359 74.847L100.681 79.5054Z" fill="black"/>
<path d="M98.3316 84.9397L103.006 84.0131L101.885 77.7656L97.2109 78.6918L98.3316 84.9397Z" fill="white"/>
<path d="M98.1146 83.734L98.4848 83.6675C99.8629 83.4202 100.78 82.1028 100.533 80.7247L100.076 78.1797L97.2109 78.6935L98.1146 83.734Z" fill="white"/>
<path d="M102.288 77.3102V82.2718H97.5081C95.9503 82.2718 94.6617 81.1392 94.4186 79.6511C94.3906 79.4841 94.375 79.3126 94.375 79.1392V77.3102C94.375 77.1194 94.3878 76.9327 94.4163 76.7505C94.4686 76.3753 94.5746 76.0193 94.7287 75.6854C95.3471 74.3119 96.7269 73.3555 98.3325 73.3555C98.4325 73.3555 98.5343 73.3596 98.6297 73.3665C100.105 73.477 101.355 74.3968 101.938 75.6858C102.086 76.0198 102.192 76.3758 102.244 76.751C102.275 76.9327 102.288 77.1189 102.288 77.3102Z" fill="white"/>
<path d="M97.2109 72.8125C97.6467 75.4915 101.127 75.0557 101.127 75.0557C101.127 75.0557 100.598 77.0507 101.479 78.3342L103.462 77.1567L102.37 73.9758L97.2109 72.8125Z" fill="black"/>
<path d="M100.945 78.4213C102.002 76.7946 102.832 76.7501 103.463 77.1547C104.247 77.658 104.148 79.2287 103.157 79.8709C102.29 80.4319 101.131 79.8213 100.995 78.7979L100.945 78.4213Z" fill="white"/>
<path d="M110.29 89.7698L105.651 90.7121C103.73 84.8417 105.451 83.0508 105.451 83.0508C105.451 83.0508 106.382 83.1425 107.041 83.5302C108.112 84.1568 108.62 84.9651 109.365 86.8491C109.662 87.6 109.969 88.5505 110.29 89.7698Z" fill="#026B51"/>
</g>
<path d="M112.014 112.447C113.074 105.97 108.683 99.8603 102.206 98.8004C95.7293 97.7405 89.6196 102.132 88.5597 108.609C87.4998 115.085 91.8911 121.195 98.3679 122.255C104.845 123.315 110.954 118.924 112.014 112.447Z" fill="#F0EBE9"/>
<mask id="mask3_3012_12769" style="mask-type:luminance" maskUnits="userSpaceOnUse" x="88" y="98" width="25" height="25">
<path d="M112.014 112.447C113.074 105.97 108.683 99.8603 102.206 98.8004C95.7293 97.7405 89.6196 102.132 88.5597 108.609C87.4998 115.085 91.8911 121.195 98.3679 122.255C104.845 123.315 110.954 118.924 112.014 112.447Z" fill="white"/>
</mask>
<g mask="url(#mask3_3012_12769)">
<path d="M106.428 113.504L111.287 121.903L104.985 122.705L101.664 119.088L106.428 113.504Z" fill="#FDD449"/>
<path d="M97.347 112.641L99.703 111.984L102.632 112.744L103.432 115.404L96.8359 115.606L97.347 112.641Z" fill="#E59A38"/>
<path d="M104.861 103.657C104.625 105.11 103.255 106.097 101.802 105.861C100.348 105.625 99.3612 104.255 99.5974 102.802C99.8337 101.348 101.203 100.361 102.657 100.597C104.11 100.834 105.097 102.203 104.861 103.657Z" fill="#362C2A"/>
<path d="M101.441 103.959C101.24 105.197 100.074 106.037 98.8362 105.836C97.5985 105.635 96.7581 104.469 96.9595 103.231C97.1604 101.993 98.3265 101.153 99.5642 101.354C100.801 101.555 101.642 102.721 101.441 103.959Z" fill="#362C2A"/>
<path d="M102.14 114.39L98.0137 113.909L96.9531 107.992L101.079 108.472L101.168 108.967L101.838 112.707L102.14 114.39Z" fill="white"/>
<path d="M101.838 112.707L100.825 112.59C99.5286 112.439 98.3221 111.456 98.1331 110.398L97.8047 108.574L101.168 108.968L101.838 112.707Z" fill="white"/>
<path d="M101.996 111.118L97.6604 111.292L97.4792 106.794C97.4724 106.619 97.4788 106.449 97.4976 106.284C97.5302 105.941 97.6141 105.616 97.7361 105.306C97.9462 104.791 98.2669 104.331 98.677 103.963C99.2114 103.479 99.9046 103.241 100.65 103.082C100.835 103.042 101.198 103.05 101.636 103.137C102.063 103.218 102.558 103.376 103.022 103.638C103.143 103.707 103.263 103.783 103.378 103.866C103.643 104.057 103.886 104.291 104.084 104.571C104.357 104.952 104.545 105.423 104.596 105.999C104.61 106.165 104.647 106.332 104.654 106.505L104.722 108.162C104.785 109.73 103.565 111.055 101.996 111.118Z" fill="white"/>
<path d="M97.8648 108.146C99.5868 107.73 97.862 104.09 97.862 104.09C97.862 104.09 93.8857 103.802 96.6106 108.022L97.8648 108.146Z" fill="#362C2A"/>
<path d="M98.516 108.261C97.5801 106.665 96.7916 106.587 96.1728 106.945C95.4035 107.39 95.4296 108.891 96.3457 109.546C97.1466 110.118 98.2783 109.587 98.4522 108.618L98.516 108.261Z" fill="white"/>
<path d="M97.9481 106.319C98.6669 106.347 99.2399 105.763 99.2399 105.763L99.1215 103.75L97.4375 104.255L97.9481 106.319Z" fill="#362C2A"/>
<path d="M98.585 105L98.7515 108.078L97.9492 108.227L97.3047 105.822L98.585 105Z" fill="#362C2A"/>
<path d="M98.0237 104.335L101.522 103.357C99.8325 102.103 97.9971 103.303 98.0237 104.335Z" fill="#362C2A"/>
<path d="M100.266 103.173C101.981 104.759 103.458 103.27 103.458 103.27C102.435 101.833 100.266 103.173 100.266 103.173Z" fill="#362C2A"/>
<path d="M107.558 131.703L94.5698 129.594L93.7734 116.484C93.7744 116.467 93.7748 116.451 93.7776 116.434C93.8542 115.412 94.384 114.524 95.1606 113.964C95.4717 113.74 95.823 113.567 96.2006 113.461C96.5093 113.373 96.8359 113.327 97.174 113.333L97.4167 113.337L97.4203 113.338L102.929 113.428C103.189 113.433 103.441 113.466 103.682 113.525C103.909 113.581 104.126 113.659 104.332 113.761C104.48 113.831 104.622 113.915 104.757 114.007C104.833 114.058 104.908 114.113 104.978 114.171C105.594 114.669 106.03 115.382 106.172 116.196C106.211 116.407 106.228 116.626 106.222 116.847L106.177 119.035L106.115 121.963L106.061 124.405L107.558 131.703Z" fill="#EFEFEF"/>
<path d="M104.342 113.741C103.892 114.932 102.646 116.127 100.906 116.115C98.6041 116.098 96.7577 114.847 96.2109 113.441C96.5197 113.353 96.8463 113.307 97.1844 113.313L97.427 113.317L97.4307 113.318L102.939 113.408C103.199 113.413 103.451 113.446 103.693 113.505C103.919 113.562 104.137 113.64 104.342 113.741Z" fill="white"/>
<path d="M92.9759 113.324L87.7656 123.547L95.4063 125.171L95.1324 119.656L92.9759 113.324Z" fill="#FDD449"/>
<path d="M97.346 112.641L94.5748 129.593L92.9766 113.325L97.346 112.641Z" fill="#FDD449"/>
<path d="M102.633 112.746L106.069 124.407L106.458 113.514L102.633 112.746Z" fill="#FDD449"/>
</g>
<path d="M117.68 48.4414H158.077" stroke="#F0EBE9" stroke-width="4" stroke-miterlimit="10"/>
<path d="M117.68 52.168H158.077" stroke="#F0EBE9" stroke-width="4" stroke-miterlimit="10"/>
<path d="M117.68 55.8906H135.422" stroke="#F0EBE9" stroke-width="4" stroke-miterlimit="10"/>
<path d="M117.68 44.8516H158.077" stroke="#F0EBE9" stroke-width="4" stroke-miterlimit="10"/>
<path d="M120.758 27.6719H161.156" stroke="#F0EBE9" stroke-width="4" stroke-miterlimit="10"/>
<path d="M119.219 31.3945H136.962" stroke="#F0EBE9" stroke-width="4" stroke-miterlimit="10"/>
<path d="M117.68 77.6094H158.077" stroke="#F0EBE9" stroke-width="4" stroke-miterlimit="10"/>
<path d="M117.68 81.332H158.077" stroke="#F0EBE9" stroke-width="4" stroke-miterlimit="10"/>
<path d="M117.68 85.0586H135.422" stroke="#F0EBE9" stroke-width="4" stroke-miterlimit="10"/>
<path d="M117.68 74.0195H158.077" stroke="#F0EBE9" stroke-width="4" stroke-miterlimit="10"/>
<path d="M117.68 108.332H158.077" stroke="#F0EBE9" stroke-width="4" stroke-miterlimit="10"/>
<path d="M117.68 112.055H158.077" stroke="#F0EBE9" stroke-width="4" stroke-miterlimit="10"/>
<path d="M117.68 115.777H135.422" stroke="#F0EBE9" stroke-width="4" stroke-miterlimit="10"/>
<path d="M117.68 104.742H158.077" stroke="#F0EBE9" stroke-width="4" stroke-miterlimit="10"/>
<path d="M113.7 29.8387C119.099 24.9664 120.259 17.4522 116.291 13.0553C112.322 8.65835 104.729 9.04376 99.3302 13.9161C93.9313 18.7885 92.7715 26.3027 96.7396 30.6996C100.708 35.0965 108.301 34.7111 113.7 29.8387Z" fill="#F0EBE9"/>
<mask id="mask4_3012_12769" style="mask-type:luminance" maskUnits="userSpaceOnUse" x="94" y="9" width="25" height="25">
<path d="M113.7 29.8387C119.099 24.9664 120.259 17.4522 116.291 13.0553C112.322 8.65835 104.729 9.04376 99.3302 13.9161C93.9313 18.7885 92.7715 26.3027 96.7396 30.6996C100.708 35.0965 108.301 34.7111 113.7 29.8387Z" fill="white"/>
</mask>
<g mask="url(#mask4_3012_12769)">
<path d="M105.281 29.0051C106.461 24.9435 107.641 20.8819 108.821 16.8203L111.231 17.2139C110.9 18.3282 110.798 19.4635 110.933 20.5255C111.035 21.3296 111.27 22.0861 111.465 22.8558C111.661 23.626 111.818 24.4229 111.76 25.2623C111.703 26.1018 111.411 26.9963 110.811 27.7124C110.211 28.429 109.272 28.9294 108.446 28.8473" fill="black"/>
</g>
<mask id="mask5_3012_12769" style="mask-type:luminance" maskUnits="userSpaceOnUse" x="94" y="9" width="25" height="25">
<path d="M113.7 29.8387C119.099 24.9664 120.259 17.4522 116.291 13.0553C112.322 8.65835 104.729 9.04376 99.3302 13.9161C93.9313 18.7885 92.7715 26.3027 96.7396 30.6996C100.708 35.0965 108.301 34.7111 113.7 29.8387Z" fill="white"/>
</mask>
<g mask="url(#mask5_3012_12769)">
<path d="M110.803 24.6016C113.785 26.2521 113.123 34.6666 113.123 34.6666L106.672 35.6042L110.803 24.6016Z" fill="#915D8A"/>
<path d="M110.591 24.0421L109.973 26.3619L108.763 30.8946L108.588 31.5525L108.031 33.6374L107.331 36.2577H98.625L98.6333 36.1792L100.001 24.7646L100.089 24.0417L102.77 23.3627L108.074 22.9375L109.578 23.443C109.578 23.4449 109.578 23.4449 109.578 23.4449L110.591 24.0421Z" fill="#915D8A"/>
<path d="M97.6036 27.0012C97.027 28.8228 95.5031 34.7538 94.9375 39.5489L98.9496 38.0901C104.175 26.2145 101.739 24.2383 101.739 24.2383C101.739 24.2383 98.4128 24.4443 97.6036 27.0012Z" fill="#915D8A"/>
</g>
</g>
<path d="M161.376 173.892C157.44 173.892 154.25 168.565 154.25 161.988H66.7734C66.7734 168.561 69.9607 173.892 73.8966 173.892H161.376Z" fill="#D7CFCF"/>
<path d="M154.25 150.277H66.7734V161.991H154.25V150.277Z" fill="#D7CFCF"/>
<path d="M154.247 136.965H62.9688V150.275H154.247V136.965Z" fill="#D7CFCF"/>
<path d="M62.9688 125.062C66.9042 125.062 66.7698 130.389 66.7698 136.967H154.247C154.247 130.394 151.06 125.062 147.124 125.062H62.9688Z" fill="#D7CFCF"/>
<path d="M147.588 125.062C143.653 125.062 140.466 130.388 140.466 136.967V161.989C140.466 168.564 137.279 173.894 133.344 173.894H52.9844V136.967H52.9894C52.9894 130.393 59.5007 125.062 63.4356 125.062H147.588Z" fill="white"/>
<mask id="mask6_3012_12769" style="mask-type:luminance" maskUnits="userSpaceOnUse" x="52" y="125" width="96" height="49">
<path d="M63.432 125.062C59.4965 125.062 52.9853 130.393 52.9848 136.965H52.9844V173.894H133.339C137.274 173.894 140.461 168.563 140.461 161.989V136.965C140.461 130.389 143.652 125.062 147.588 125.062H63.432Z" fill="white"/>
</mask>
<g mask="url(#mask6_3012_12769)">
<path d="M79.7542 180.012C84.3948 175.371 84.3948 167.847 79.7542 163.207C75.1137 158.566 67.5899 158.566 62.9493 163.207C58.3088 167.847 58.3088 175.371 62.9493 180.012C67.5899 184.652 75.1137 184.652 79.7542 180.012Z" fill="#F0EBE9"/>
<mask id="mask7_3012_12769" style="mask-type:luminance" maskUnits="userSpaceOnUse" x="59" y="159" width="25" height="25">
<path d="M79.7545 180.012C84.3951 175.371 84.395 167.847 79.7545 163.207C75.1139 158.566 67.59 158.566 62.9494 163.207C58.3088 167.847 58.3088 175.371 62.9494 180.012C67.59 184.652 75.1139 184.652 79.7545 180.012Z" fill="white"/>
</mask>
<g mask="url(#mask7_3012_12769)">
<path d="M68.4173 173.723L70.7733 173.066L73.7019 173.826L74.5028 176.486L67.9062 176.688L68.4173 173.723Z" fill="#508E94"/>
<path d="M75.9312 164.739C75.695 166.192 74.3257 167.179 72.872 166.943C71.4182 166.707 70.4315 165.337 70.6678 163.884C70.904 162.43 72.2733 161.443 73.727 161.679C75.1803 161.916 76.167 163.285 75.9312 164.739Z" fill="#362C2A"/>
<path d="M72.5115 165.041C72.3106 166.279 71.1445 167.119 69.9068 166.918C68.6692 166.717 67.8288 165.551 68.0297 164.313C68.2306 163.075 69.3967 162.235 70.6344 162.436C71.8725 162.637 72.7124 163.803 72.5115 165.041Z" fill="#362C2A"/>
<path d="M73.2099 175.473L69.084 174.992L68.0234 169.074L72.1493 169.555L72.2383 170.049L72.9085 173.79L73.2099 175.473Z" fill="#E8AF81"/>
<path d="M72.9086 173.789L71.8953 173.672C70.5989 173.522 69.3925 172.538 69.2035 171.48L68.875 169.656L72.238 170.05L72.9086 173.789Z" fill="#CD774E"/>
<path d="M73.0662 172.2L68.7308 172.374L68.5496 167.876C68.5427 167.701 68.5491 167.531 68.5679 167.366C68.6005 167.023 68.6844 166.698 68.8069 166.388C69.017 165.873 69.3372 165.413 69.7478 165.045C70.2822 164.561 70.9753 164.323 71.7203 164.164C71.9061 164.124 72.2689 164.132 72.707 164.219C73.1341 164.3 73.6286 164.458 74.0924 164.721C74.214 164.789 74.3337 164.865 74.4488 164.948C74.714 165.139 74.9562 165.373 75.1544 165.653C75.4273 166.034 75.6159 166.505 75.6668 167.081C75.681 167.247 75.7177 167.414 75.725 167.587L75.7929 169.244C75.8553 170.812 74.6346 172.137 73.0662 172.2Z" fill="#E8AF81"/>
<path d="M68.9351 169.228C70.6567 168.812 68.9323 165.172 68.9323 165.172C68.9323 165.172 64.956 164.884 67.6809 169.104L68.9351 169.228Z" fill="#362C2A"/>
<path d="M69.5863 169.343C68.6505 167.747 67.8614 167.669 67.2431 168.027C66.4738 168.472 66.4999 169.973 67.416 170.628C68.217 171.2 69.3486 170.669 69.522 169.7L69.5863 169.343Z" fill="#E8AF81"/>
<path d="M69.0184 167.401C69.7372 167.429 70.3102 166.845 70.3102 166.845L70.1923 164.832L68.5078 165.336L69.0184 167.401Z" fill="#362C2A"/>
<path d="M69.6553 166.078L69.8218 169.156L69.0195 169.305L68.375 166.901L69.6553 166.078Z" fill="#362C2A"/>
<path d="M69.094 165.413L72.5919 164.436C70.9028 163.181 69.0674 164.381 69.094 165.413Z" fill="#362C2A"/>
<path d="M71.3359 164.255C73.0511 165.841 74.5287 164.352 74.5287 164.352C73.5057 162.916 71.3359 164.255 71.3359 164.255Z" fill="#362C2A"/>
<path d="M68.4163 173.723L65.6451 190.675L64.0469 174.407L68.4163 173.723Z" fill="#7CBBC0"/>
<path d="M73.7031 173.828L77.139 185.489L77.528 174.596L73.7031 173.828Z" fill="#7CBBC0"/>
</g>
</g>
<mask id="mask8_3012_12769" style="mask-type:luminance" maskUnits="userSpaceOnUse" x="52" y="125" width="96" height="49">
<path d="M63.432 125.062C59.4965 125.062 52.9853 130.393 52.9848 136.965H52.9844V173.894H133.339C137.274 173.894 140.461 168.563 140.461 161.989V136.965C140.461 130.389 143.652 125.062 147.588 125.062H63.432Z" fill="white"/>
</mask>
<g mask="url(#mask8_3012_12769)">
<path d="M71.3517 153.102C77.9145 153.102 83.2347 147.782 83.2347 141.219C83.2347 134.656 77.9145 129.336 71.3517 129.336C64.7889 129.336 59.4688 134.656 59.4688 141.219C59.4688 147.782 64.7889 153.102 71.3517 153.102Z" fill="#F0EBE9"/>
<mask id="mask9_3012_12769" style="mask-type:luminance" maskUnits="userSpaceOnUse" x="59" y="129" width="25" height="25">
<path d="M71.3517 153.102C77.9145 153.102 83.2347 147.782 83.2347 141.219C83.2347 134.656 77.9145 129.336 71.3517 129.336C64.7889 129.336 59.4688 134.656 59.4688 141.219C59.4688 147.782 64.7889 153.102 71.3517 153.102Z" fill="white"/>
</mask>
<g mask="url(#mask9_3012_12769)">
<path d="M71.5859 148.345C71.9304 144.283 72.2754 140.222 72.6199 136.16L75.1113 136.554C75.0094 137.668 75.1406 138.803 75.4939 139.865C75.7613 140.669 76.1521 141.426 76.5058 142.196C76.8595 142.966 77.1806 143.763 77.2953 144.602C77.41 145.442 77.3022 146.336 76.8494 147.052C76.3966 147.768 75.5613 148.27 74.7177 148.187" fill="black"/>
</g>
<mask id="mask10_3012_12769" style="mask-type:luminance" maskUnits="userSpaceOnUse" x="59" y="129" width="25" height="25">
<path d="M71.3517 153.102C77.9145 153.102 83.2347 147.782 83.2347 141.219C83.2347 134.656 77.9145 129.336 71.3517 129.336C64.7889 129.336 59.4688 134.656 59.4688 141.219C59.4688 147.782 64.7889 153.102 71.3517 153.102Z" fill="white"/>
</mask>
<g mask="url(#mask10_3012_12769)">
<path d="M76.2117 143.938C79.5334 145.588 80.6013 154.003 80.6013 154.003L74.3438 154.94L76.2117 143.938Z" fill="#A5BCE3"/>
<path d="M76.2053 143.941L76.0636 146.26L75.786 150.793L75.7461 151.451L75.6181 153.536L75.4576 156.156H66.7513L66.7435 156.078L65.7641 144.663L65.7031 143.94L68.245 143.261L73.4616 142.836L75.069 143.341C75.069 143.343 75.069 143.343 75.069 143.343L76.2053 143.941Z" fill="#A5BCE3"/>
<path d="M63.4999 146.337C63.2981 148.159 62.9935 154.09 63.4141 158.885L67.1262 157.426C69.9098 145.55 67.067 143.574 67.067 143.574C67.067 143.574 63.7834 143.78 63.4999 146.337Z" fill="#A5BCE3"/>
<path d="M67.0703 143.576L73.4678 142.836L75.0756 143.341C75.0756 143.343 75.0756 143.343 75.0756 143.343C75.2481 148.094 69.0071 147.309 67.0703 143.576Z" fill="white"/>
<path d="M72.1359 144.411L70.2675 144.408C69.5836 144.406 69.0299 143.851 69.0313 143.167L69.0395 139.465L73.4718 139.473L73.464 143.088C73.4626 143.821 72.8681 144.413 72.1359 144.411Z" fill="white"/>
<path d="M72.2052 132.283C74.3502 132.06 76.27 133.619 76.4925 135.764L76.6255 137.044C76.8315 139.027 75.3911 140.801 73.4085 141.007L69.8404 141.377C69.5033 141.412 69.2014 141.167 69.1666 140.829L68.7244 136.57C68.5014 134.425 70.0597 132.506 72.2052 132.283Z" fill="white"/>
<path d="M69.0993 138.057C69.0993 138.057 73.7284 137.287 73.8068 132.341C72.6765 132.126 71.3357 132.303 71.3357 132.303C71.3357 132.303 67.8713 135.494 69.0993 138.057Z" fill="black"/>
<path d="M71.3381 132.305C68.0458 132.316 66.009 133.015 66.0921 139.094C66.1095 140.381 65.5173 141.567 64.5448 142.411C63.4755 143.339 63.0442 144.868 63.5631 145.99C64.7081 143.963 70.1628 146.026 69.7789 142.809C69.3949 139.592 69.2903 137.646 69.2903 137.646L71.3381 132.305Z" fill="black"/>
<path d="M70.2558 138.098C69.3127 136.32 68.459 136.198 67.77 136.558C66.5071 137.219 67.058 140.228 69.3962 139.59L70.2558 138.098Z" fill="white"/>
<path d="M71.3359 132.304C71.3359 132.304 75.2975 131.946 76.5412 136.255C76.5779 132.577 74.1736 131.883 71.3359 132.304Z" fill="black"/>
</g>
</g>
<mask id="mask11_3012_12769" style="mask-type:luminance" maskUnits="userSpaceOnUse" x="52" y="125" width="96" height="49">
<path d="M63.432 125.062C59.4965 125.062 52.9853 130.393 52.9848 136.965H52.9844V173.894H133.339C137.274 173.894 140.461 168.563 140.461 161.989V136.965C140.461 130.389 143.652 125.062 147.588 125.062H63.432Z" fill="white"/>
</mask>
<g mask="url(#mask11_3012_12769)">
<path d="M89.6094 140.27H130.007" stroke="#F0EBE9" stroke-width="4" stroke-miterlimit="10"/>
<path d="M89.6094 143.996H130.007" stroke="#F0EBE9" stroke-width="4" stroke-miterlimit="10"/>
<path d="M89.6094 147.719H107.352" stroke="#F0EBE9" stroke-width="4" stroke-miterlimit="10"/>
<path d="M89.6094 136.68H130.007" stroke="#F0EBE9" stroke-width="4" stroke-miterlimit="10"/>
</g>
<path d="M39.4844 161.988C39.4844 168.561 42.6716 173.892 46.6076 173.892H134.089C130.153 173.892 126.962 168.566 126.962 161.988H39.4844Z" fill="#CBC0C0"/>
<path d="M136.281 124.523H142.802" stroke="#F0EBE9" stroke-width="2" stroke-miterlimit="10"/>
<path d="M79.6484 124.523H135.424" stroke="#F0EBE9" stroke-width="2" stroke-miterlimit="10"/>
<path d="M89.8027 45.0781H63.2683C61.2691 45.0781 59.6484 46.6988 59.6484 48.698V62.1149C59.6484 64.1141 61.2691 65.7348 63.2683 65.7348H89.8027C91.8018 65.7348 93.4225 64.1141 93.4225 62.1149V48.698C93.423 46.6988 91.8023 45.0781 89.8027 45.0781Z" fill="#F6F3F2"/>
<path d="M87.623 42.8516H61.0886C59.0894 42.8516 57.4688 44.4723 57.4688 46.4714V59.8884C57.4688 61.8875 59.0894 63.5082 61.0886 63.5082H87.623C89.6221 63.5082 91.2428 61.8875 91.2428 59.8884V46.4714C91.2428 44.4723 89.6221 42.8516 87.623 42.8516Z" fill="white" stroke="#F6F3F2" stroke-miterlimit="10"/>
<path d="M62.781 45.7656H62.6223C61.5237 45.7656 60.6328 46.6565 60.6328 47.7551V47.9139C60.6328 49.0125 61.5237 49.9034 62.6223 49.9034H62.781C63.8797 49.9034 64.7706 49.0125 64.7706 47.9139V47.7551C64.7706 46.656 63.8797 45.7656 62.781 45.7656Z" fill="#F6F3F2"/>
<path d="M62.781 51.2695H62.6223C61.5237 51.2695 60.6328 52.1604 60.6328 53.2591V53.4178C60.6328 54.5164 61.5237 55.4073 62.6223 55.4073H62.781C63.8797 55.4073 64.7706 54.5164 64.7706 53.4178V53.2595C64.7706 52.1604 63.8797 51.2695 62.781 51.2695Z" fill="#F6F3F2"/>
<path d="M62.781 56.7695H62.6223C61.5237 56.7695 60.6328 57.6604 60.6328 58.759V58.9178C60.6328 60.0164 61.5237 60.9073 62.6223 60.9073H62.781C63.8797 60.9073 64.7706 60.0164 64.7706 58.9178V58.759C64.7706 57.6604 63.8797 56.7695 62.781 56.7695Z" fill="#F6F3F2"/>
<path d="M67.2891 47.8359H87.1296" stroke="#F0EBE9" stroke-width="4" stroke-miterlimit="10"/>
<path d="M67.2891 53.3359H87.1296" stroke="#F0EBE9" stroke-width="4" stroke-miterlimit="10"/>
<path d="M67.2891 58.8398H87.1296" stroke="#F0EBE9" stroke-width="4" stroke-miterlimit="10"/>
<path d="M61.2188 46.9132L62.8009 48.6623L65.5964 45.1641" stroke="#D26D57" stroke-width="2" stroke-miterlimit="10"/>
<path d="M61.2188 52.4835L62.8009 54.2327L65.5964 50.7344" stroke="#EABC75" stroke-width="2" stroke-miterlimit="10"/>
<path d="M61.2188 58.1476L62.8009 59.8967L65.5964 56.3984" stroke="#A2B096" stroke-width="2" stroke-miterlimit="10"/>
<path d="M159.856 65.4531H128.847C127.508 65.4531 126.422 66.5389 126.422 67.878V106.454C126.422 107.793 127.507 108.878 128.847 108.878H159.856C161.196 108.878 162.281 107.793 162.281 106.454V67.878C162.281 66.5389 161.196 65.4531 159.856 65.4531Z" fill="#F6F3F2"/>
<path d="M156.771 61.6406H125.761C124.422 61.6406 123.336 62.7264 123.336 64.0655V102.641C123.336 103.98 124.421 105.066 125.761 105.066H156.771C158.11 105.066 159.195 103.981 159.195 102.641V64.0655C159.195 62.7264 158.11 61.6406 156.771 61.6406Z" fill="white" stroke="#F6F3F2" stroke-miterlimit="10"/>
<path d="M127.922 72.1328H136.721" stroke="#EBE4E1" stroke-width="4" stroke-miterlimit="10"/>
<path d="M127.922 76.0586H136.721" stroke="#EBE4E1" stroke-width="4" stroke-miterlimit="10"/>
<path d="M127.922 84.1328H154.253" stroke="#EBE4E1" stroke-width="4" stroke-miterlimit="10"/>
<path d="M127.922 88.2266H154.253" stroke="#EBE4E1" stroke-width="4" stroke-miterlimit="10"/>
<path d="M127.922 92.3242H154.253" stroke="#EBE4E1" stroke-width="4" stroke-miterlimit="10"/>
<path d="M127.922 96.418H139.168" stroke="#EBE4E1" stroke-width="4" stroke-miterlimit="10"/>
<path d="M148.382 81.487C152.796 81.487 156.374 77.9091 156.374 73.4955C156.374 69.0818 152.796 65.5039 148.382 65.5039C143.969 65.5039 140.391 69.0818 140.391 73.4955C140.391 77.9091 143.969 81.487 148.382 81.487Z" fill="#F0EBE9"/>
<mask id="mask12_3012_12769" style="mask-type:luminance" maskUnits="userSpaceOnUse" x="140" y="65" width="17" height="17">
<path d="M148.382 81.487C152.796 81.487 156.374 77.9091 156.374 73.4955C156.374 69.0818 152.796 65.5039 148.382 65.5039C143.969 65.5039 140.391 69.0818 140.391 73.4955C140.391 77.9091 143.969 81.487 148.382 81.487Z" fill="white"/>
</mask>
<g mask="url(#mask12_3012_12769)">
<path d="M148.22 78.2881C147.988 75.5568 147.757 72.825 147.525 70.0938L145.849 70.3584C145.918 71.108 145.83 71.8713 145.592 72.5851C145.412 73.126 145.149 73.6347 144.911 74.1526C144.673 74.6705 144.457 75.2063 144.38 75.771C144.303 76.3357 144.375 76.9371 144.68 77.4188C144.985 77.9004 145.546 78.2371 146.114 78.1821" fill="black"/>
</g>
<mask id="mask13_3012_12769" style="mask-type:luminance" maskUnits="userSpaceOnUse" x="140" y="65" width="17" height="17">
<path d="M148.382 81.487C152.796 81.487 156.374 77.9091 156.374 73.4955C156.374 69.0818 152.796 65.5039 148.382 65.5039C143.969 65.5039 140.391 69.0818 140.391 73.4955C140.391 77.9091 143.969 81.487 148.382 81.487Z" fill="white"/>
</mask>
<g mask="url(#mask13_3012_12769)">
<path d="M144.282 76.9961C141.556 78.3503 140.68 85.2555 140.68 85.2555L145.815 86.0248L144.282 76.9961Z" fill="#A32E37"/>
<path d="M144.281 76.9958L144.398 78.8996L144.625 82.6194L144.658 83.1594L144.763 84.87L144.895 87.0205H152.04L152.046 86.9558L152.849 77.589L152.9 76.9958L150.814 76.4385L146.533 76.0898L145.214 76.5045V76.5059L144.281 76.9958Z" fill="#A32E37"/>
<path d="M154.712 78.9663C154.878 80.4613 155.128 85.3284 154.783 89.2629L151.737 88.0661C149.453 78.3204 151.786 76.6992 151.786 76.6992C151.786 76.6992 154.48 76.868 154.712 78.9663Z" fill="#A32E37"/>
<path d="M151.783 76.6972L146.533 76.0898L145.214 76.5041C145.214 76.5055 145.214 76.5055 145.214 76.5055C145.072 80.4051 150.193 79.7611 151.783 76.6972Z" fill="white"/>
<path d="M147.627 77.3831L149.16 77.3803C149.722 77.3794 150.176 76.9234 150.175 76.3619L150.169 73.3242L146.531 73.3306L146.538 76.2973C146.539 76.8977 147.026 77.384 147.627 77.3831Z" fill="white"/>
<path d="M147.566 67.4314C145.805 67.2488 144.23 68.5273 144.047 70.2879L143.938 71.3384C143.769 72.9656 144.951 74.4211 146.578 74.5904L149.506 74.8945C149.783 74.9234 150.03 74.722 150.059 74.4454L150.422 70.9499C150.605 69.1893 149.326 67.6145 147.566 67.4314Z" fill="white"/>
<path d="M150.113 72.1688C150.113 72.1688 146.314 71.5367 146.25 67.4783C147.178 67.3012 148.278 67.4471 148.278 67.4471C148.278 67.4471 151.12 70.0656 150.113 72.1688Z" fill="black"/>
<path d="M148.281 67.4492C150.983 67.4584 152.654 68.0323 152.586 73.0205C152.572 74.0765 153.058 75.0504 153.856 75.7426C154.733 76.5041 155.087 77.7587 154.661 78.6799C153.722 77.0165 149.246 78.7092 149.56 76.0692C149.875 73.4292 149.961 71.8324 149.961 71.8324L148.281 67.4492Z" fill="black"/>
<path d="M149.164 72.2022C149.938 70.7435 150.638 70.643 151.204 70.9389C152.24 71.4811 151.788 73.9505 149.87 73.4266L149.164 72.2022Z" fill="white"/>
<path d="M148.28 67.4488C148.28 67.4488 145.029 67.1543 144.008 70.6911C143.978 67.6722 145.951 67.1034 148.28 67.4488Z" fill="black"/>
</g>
<path d="M59.8203 156.133H130.415" stroke="#F6F3F2" stroke-miterlimit="10"/>
<path d="M73.8087 98.1441L70.7476 96.3147L69.4283 98.5221C68.8062 98.3418 68.1713 98.2501 67.5383 98.245L66.9098 95.75L63.4515 96.6207L64.0799 99.1157C63.5249 99.4198 63.0092 99.8015 62.5468 100.255L60.339 98.9354L58.5096 101.997L60.7174 103.316C60.5371 103.938 60.4454 104.573 60.4404 105.206L57.9453 105.834L58.816 109.292L61.311 108.664C61.6152 109.219 61.9968 109.734 62.4501 110.197L61.1307 112.405L64.1919 114.234L65.5112 112.027C66.1332 112.207 66.7681 112.299 67.4011 112.304L68.0296 114.798L71.4875 113.928L70.8591 111.433C71.4141 111.128 71.9297 110.747 72.3921 110.294L74.6 111.613L76.4294 108.552L74.2215 107.232C74.4018 106.61 74.4936 105.976 74.4986 105.343L76.9937 104.714L76.123 101.256L73.628 101.884C73.3238 101.329 72.9422 100.813 72.4889 100.351L73.8087 98.1441ZM68.8929 102.893C70.2058 103.678 70.6356 105.384 69.8508 106.698C69.0659 108.011 67.3589 108.441 66.0461 107.656C64.7327 106.871 64.3029 105.165 65.0878 103.851C65.8731 102.538 67.58 102.108 68.8929 102.893Z" fill="#A32E37"/>
<path d="M56.7345 108.269L54.1 107.914L53.844 109.814C53.3647 109.873 52.9032 109.996 52.4678 110.179L51.305 108.654L49.1911 110.266L50.354 111.791C50.0632 112.162 49.8219 112.575 49.6379 113.021L47.7379 112.765L47.3828 115.4L49.2829 115.656C49.3421 116.135 49.4655 116.596 49.648 117.032L48.1232 118.195L49.7352 120.309L51.26 119.146C51.6316 119.436 52.044 119.678 52.4903 119.862L52.2344 121.762L54.8688 122.117L55.1248 120.217C55.6042 120.158 56.0657 120.035 56.501 119.852L57.6639 121.377L59.7777 119.765L58.6148 118.24C58.9057 117.869 59.147 117.456 59.3309 117.01L61.231 117.266L61.586 114.631L59.686 114.375C59.6268 113.896 59.5034 113.434 59.3213 112.999L60.8461 111.836L59.2346 109.722L57.7098 110.885C57.3382 110.594 56.9258 110.353 56.479 110.169L56.7345 108.269ZM54.8432 112.355C56.3097 112.553 57.3419 113.907 57.1442 115.373C56.9464 116.84 55.5927 117.872 54.1266 117.675C52.6601 117.477 51.6279 116.124 51.8252 114.657C52.0224 113.19 53.3766 112.158 54.8432 112.355Z" fill="#A32E37"/>
<path d="M160.292 107.441L151.266 112.402L142.203 98.1397L153.165 94.332L160.292 107.441Z" fill="#031C70"/>
<path d="M159.721 107.014L151.281 111.653L142.805 98.3148L153.056 94.7539L159.721 107.014Z" fill="white"/>
<path d="M162.811 104.519C162.811 104.519 161.24 103.768 160.55 103.375C159.861 102.982 158.087 102.443 157.944 102.315C157.801 102.187 152.686 101.872 152.376 101.604C152.066 101.336 151.764 102.231 153.09 102.522C154.415 102.812 156.26 103.522 156.361 104.04C156.462 104.558 154.999 104.681 154.851 105.108C154.703 105.534 154.893 105.439 155.102 105.53C155.312 105.622 156.842 104.774 157.515 105.015C158.187 105.255 159.216 104.922 159.731 105.099C160.247 105.275 162.754 106.119 162.754 106.119L162.811 104.519Z" fill="#EEA886"/>
<path d="M150.825 110.61C150.825 110.61 149.505 109.422 148.867 108.926C148.228 108.429 147.029 106.967 146.853 106.882C146.677 106.797 144.388 102.1 144.015 101.912C143.642 101.724 144.368 101.091 145.157 102.227C145.947 103.364 147.334 104.825 147.862 104.719C148.389 104.612 147.936 103.186 148.28 102.88C148.624 102.575 148.608 102.791 148.776 102.953C148.944 103.114 148.741 104.886 149.23 105.426C149.718 105.967 149.805 107.065 150.172 107.483C150.539 107.9 152.31 109.934 152.31 109.934L150.825 110.61Z" fill="#EEA886"/>
<path d="M179.25 174.095C179.25 174.095 179.535 176.077 179.571 176.374C179.607 176.672 182.747 176.199 182.747 176.199L183.001 173.84C183.001 173.84 179.642 173.816 179.25 174.095Z" fill="#424773"/>
<path d="M179.535 176.122C179.535 176.122 178.54 177.317 177.578 177.837C176.615 178.357 175.103 178.563 174.535 179.102C174.124 179.491 173.039 181.165 177.035 181.131C181.031 181.097 182.958 181.368 183.386 180.726C183.814 180.084 182.766 175.988 182.766 175.988C182.766 175.988 181.82 176.329 179.535 176.122Z" fill="black"/>
<path d="M156.75 174.095C156.75 174.095 157.035 176.077 157.071 176.374C157.107 176.672 160.247 176.199 160.247 176.199L160.501 173.84C160.501 173.84 157.143 173.816 156.75 174.095Z" fill="#424773"/>
<path d="M157.037 176.122C157.037 176.122 156.042 177.316 155.08 177.837C154.118 178.357 150.577 178.785 150.008 179.323C149.597 179.712 148.914 181.278 154.537 181.131C158.532 181.027 160.46 181.368 160.888 180.726C161.316 180.084 160.269 175.988 160.269 175.988C160.269 175.988 159.377 176.352 157.037 176.122Z" fill="black"/>
<path d="M176.649 123.184C176.649 123.184 179.6 127.871 179.38 132.108C179.159 136.345 180.449 140.971 180.893 145.398C181.387 150.332 183.409 162.014 183.482 164.654C183.555 167.293 183.168 175.722 183.168 175.722L179.121 175.814C179.121 175.814 175.721 155.391 174.841 153.308C173.96 151.224 169.594 136.368 169.447 134.701C169.301 133.033 176.649 123.184 176.649 123.184Z" fill="#031C70"/>
<path d="M161.117 123.818C161.117 123.818 158.893 135.431 158.6 138.024C158.306 140.618 158.111 150.574 157.964 152.195C157.817 153.816 156.986 173.405 156.203 175.813H161.378C161.378 175.813 165.35 161.573 165.35 154.835C165.35 148.097 168.419 140.187 170.4 135.741C172.38 131.296 176.915 131.191 178.133 122.943C178.133 122.943 162.765 121.202 161.117 123.818Z" fill="#031C70"/>
<path d="M171.725 83.773C171.725 83.773 167.765 82.2939 165.939 85.3083C164.113 88.3227 164.289 94.3576 166.285 95.0998C168.281 95.8419 171.28 95.4538 172.301 93.5676C173.323 91.6814 174.246 88.9546 174.202 87.1321C174.157 85.3098 172.764 84.2992 171.725 83.773Z" fill="#EEA886"/>
<path d="M166.711 95.239C166.711 95.239 166.876 96.3081 166.604 96.8349C166.331 97.3616 171.734 97.3753 171.734 97.3753C171.734 97.3753 172.173 94.5105 173.004 92.09C173.836 89.6695 166.711 95.239 166.711 95.239Z" fill="#EEA886"/>
<path d="M173.009 92.0879C173.009 92.0879 172.637 92.7031 171.115 92.4643C169.592 92.2257 167.735 90.2005 167.1 89.9782C166.464 89.7559 166.458 89.3825 166.458 89.3825L166.061 89.9637L165.386 90.0064C165.386 90.0064 166.001 88.1949 165.072 87.4561C164.144 86.7173 166.036 81.5927 170.918 83.2989C170.918 83.2989 174.667 84.3323 174.531 86.4647C174.395 88.597 173.848 91.0259 173.009 92.0879Z" fill="#3A3F47"/>
<path d="M166.281 96.7693C166.281 96.7693 166.298 95.763 166.755 95.6665C167.211 95.5701 171.789 95.1298 172.349 95.35V96.5221C172.349 96.5221 171.27 97.1861 166.281 96.7693Z" fill="#C53C21"/>
<path d="M166.557 88.6054C166.643 88.2477 167.552 87.2257 167.9 88.32C168.249 89.4143 167.374 90.8863 166.887 90.7603C166.399 90.6344 166.341 89.5122 166.557 88.6054Z" fill="#EEA886"/>
<path d="M148.113 108.661C148.115 108.66 148.117 108.66 148.12 108.66C148.089 108.674 148.084 108.675 148.113 108.661Z" fill="#323657"/>
<path d="M180.018 134.158C180.018 134.158 177.589 134.873 173.448 135.33C169.306 135.786 158.959 135.165 158.894 134.676C158.828 134.186 161.12 116.458 160.989 115.544C160.859 114.631 160.789 111.378 160.789 111.378C160.738 112.269 159.83 115.91 158.734 117.895C158.337 118.612 157.009 120.86 156.369 120.349C153.269 117.874 148.468 108.547 148.164 108.469C148.42 108.357 150.439 107.428 150.722 107.333C150.97 107.25 153.207 109.618 154.562 111.086C155.166 111.74 155.595 112.216 155.595 112.216C155.986 111.335 157.411 105.789 157.854 103.87C158.853 99.541 158.699 99.361 158.699 99.361C161.729 98.4445 166.328 96.5792 166.328 96.5792L172.396 96.332C172.396 96.332 177.965 97.5579 180.158 98.5486C180.366 98.6425 180.367 103.517 180.938 104.795L179.119 108.631C179.119 108.631 178.069 116.23 177.851 119.61C177.751 121.161 180.018 134.158 180.018 134.158Z" fill="#FC694C"/>
<path d="M181.146 111.313C180.987 111.824 180.268 112.256 179.801 112.445C179.502 112.566 179.166 112.606 178.829 112.543L178.592 112.499V112.499L174.433 111.728C174.433 111.728 173.523 101.249 180.114 98.7383C180.288 98.7952 182.601 106.621 181.146 111.313Z" fill="#FC694C"/>
<path d="M179.803 112.445V112.446C179.504 112.567 179.169 112.606 178.831 112.543L178.594 112.5V112.499L179.004 107.145L179.803 112.445Z" fill="#AB402B"/>
<path d="M155.55 112.407L155.041 114.559C155.041 114.559 154.49 112.399 154.517 111.277C155.121 111.932 155.55 112.407 155.55 112.407Z" fill="#AB402B"/>
<path d="M172.852 84.1282C172.852 84.1282 178.041 83.4783 172.94 92.1472L172.852 84.1282Z" fill="#3A3F47"/>
<path d="M146.371 97.3752L145.844 96.4689L149.999 95.0352L150.526 95.9367L146.371 97.3752Z" fill="#031C70"/>
<path d="M23.374 159.258C26.0742 157.36 29.2344 144.126 29.4229 136.244C29.5195 132.206 30.713 130.524 31.7659 129.04C32.7725 127.621 33.6419 126.396 33.1355 123.583C32.1678 118.207 34.712 115.886 34.7379 115.863L34.4433 115.527C34.3301 115.627 31.6805 118.02 32.696 123.662C33.1691 126.29 32.3892 127.39 31.4019 128.781C30.3658 130.242 29.0764 132.059 28.9765 136.233C28.7742 144.692 25.5434 157.187 23.1172 158.893L23.374 159.258Z" fill="url(#paint0_linear_3012_12769)"/>
<path d="M17.7172 155.398C17.4623 154.82 17.1986 154.223 16.9001 153.592C15.3575 150.336 13.9912 149.8 11.7273 148.912C11.1741 148.694 10.5471 148.448 9.85894 148.139C6.61615 146.682 7.24394 144.534 7.79794 142.639C7.87539 142.374 7.95266 142.11 8.0197 141.848C8.30487 140.734 7.75698 140.175 6.92749 139.329C6.3111 138.699 5.54382 137.917 4.95242 136.68C4.3052 135.327 4.63506 134.602 5.02586 134.231C5.84851 133.451 7.7454 133.595 9.53638 134.573C10.0927 134.877 10.5508 135.356 11.0356 135.864C12.1774 137.06 13.5982 138.547 17.1918 138.564C19.2409 138.574 20.3633 138.857 20.9445 139.51C21.6042 140.251 21.4799 141.361 21.3077 142.897C21.2481 143.428 21.1806 144.03 21.1397 144.681C20.8953 148.562 23.1865 151.362 23.2091 151.389C24.578 153.019 26.2646 156.401 25.5366 158.483C25.2316 159.355 24.5492 159.905 23.5085 160.115C23.0939 160.199 22.7151 160.239 22.3668 160.239C19.8531 160.239 18.9333 158.154 17.7172 155.398ZM9.32219 134.965C7.72287 134.092 6.00787 133.916 5.33292 134.556C4.81997 135.042 5.0618 135.875 5.35518 136.488C5.91455 137.657 6.62217 138.379 7.24641 139.016C8.1143 139.902 8.79975 140.601 8.45219 141.959C8.38396 142.226 8.30541 142.495 8.22642 142.765C7.67479 144.652 7.15381 146.434 10.0419 147.732C10.7203 148.037 11.3419 148.281 11.8904 148.496C14.1756 149.393 15.6853 149.985 17.3036 153.401C17.6048 154.037 17.8696 154.637 18.1257 155.218C19.5226 158.384 20.3658 160.295 23.4199 159.677C24.2952 159.5 24.8656 159.049 25.1151 158.336C25.7565 156.501 24.2217 153.29 22.8667 151.676C22.7674 151.557 20.438 148.717 20.694 144.653C20.7357 143.992 20.8039 143.384 20.8639 142.847C21.0232 141.426 21.1382 140.399 20.6109 139.807C20.1288 139.265 19.0736 139.02 17.1896 139.011C13.4061 138.993 11.9126 137.429 10.7125 136.173C10.2324 135.67 9.81771 135.236 9.32219 134.965Z" fill="url(#paint1_linear_3012_12769)"/>
<path d="M23.4575 162.817L23.9035 162.793C23.8815 162.374 23.319 152.498 19.3536 149.608C15.0033 146.437 13.6316 143.029 12.9785 140.742C12.2087 138.047 8.29099 137.326 8.12451 137.297L8.04688 137.737C8.08482 137.743 11.8562 138.438 12.549 140.865C13.2204 143.215 14.6289 146.717 19.0905 149.969C22.8858 152.735 23.4522 162.716 23.4575 162.817Z" fill="url(#paint2_linear_3012_12769)"/>
<path d="M22.7012 165.039C21.7682 164.575 21.802 162.706 21.8532 159.879C21.9179 156.305 22.0066 151.411 20.1359 146.91C18.1487 142.128 19.921 140.73 21.635 139.379C23.5547 137.865 25.3678 136.435 21.888 129.981C20.2897 127.017 19.7823 125.012 20.2911 123.672C20.7939 122.347 22.2048 121.83 23.6986 121.284C26.2768 120.34 29.1991 119.271 28.8216 113.814C28.706 112.141 28.9026 111.112 29.4406 110.576C30.0251 109.994 30.8865 110.057 31.8836 110.13C33.3904 110.24 35.0971 110.365 36.5839 108.425C36.7384 107.94 38.16 103.614 39.8603 102.873C40.2174 102.718 40.5673 102.719 40.9006 102.879C42.0744 103.44 42.7556 104.106 42.9831 104.915C43.3789 106.321 42.3489 107.906 41.1564 109.743C39.2823 112.629 37.158 115.899 39.3612 119.791C42.2741 124.938 40.7355 126.739 38.6061 129.232C37.3862 130.66 36.0034 132.278 35.079 134.918C34.3355 137.041 35.6038 139.066 36.8302 141.024C38.3687 143.48 39.9595 146.019 36.61 148.223C31.0722 151.866 25.6032 163.759 25.5487 163.879L25.526 163.928L25.4832 163.962C24.463 164.761 23.7203 165.143 23.161 165.143C22.9919 165.143 22.8395 165.108 22.7012 165.039ZM36.3646 147.85C39.3492 145.886 38.0065 143.743 36.4518 141.261C35.229 139.309 33.843 137.097 34.6575 134.771C35.6096 132.052 37.0211 130.399 38.2666 128.942C40.353 126.499 41.7314 124.886 38.9725 120.012C36.6359 115.884 38.9347 112.344 40.7819 109.5C41.9153 107.754 42.8942 106.247 42.5533 105.036C42.3626 104.358 41.7591 103.785 40.708 103.282C40.4941 103.179 40.2751 103.18 40.0389 103.283C38.4612 103.97 37.0126 108.55 36.9981 108.596L36.9866 108.633L36.9631 108.664C35.3245 110.83 33.3987 110.689 31.851 110.575C30.9262 110.508 30.1959 110.454 29.7558 110.893C29.3223 111.324 29.1625 112.27 29.2671 113.783C29.6678 119.575 26.4431 120.755 23.852 121.703C22.3963 122.236 21.139 122.696 20.7086 123.83C20.2493 125.041 20.749 126.928 22.2811 129.769C25.939 136.553 23.8916 138.168 21.9116 139.729C20.2554 141.035 18.6911 142.269 20.5484 146.738C22.4548 151.326 22.3653 156.274 22.2998 159.887C22.2551 162.353 22.2199 164.301 22.9004 164.64C23.2986 164.838 24.0604 164.503 25.1652 163.644C25.6079 162.681 30.8459 151.48 36.3646 147.85Z" fill="url(#paint3_linear_3012_12769)"/>
<path d="M13.9626 113.203C16.781 112.237 16.1955 117.669 17.3864 121.688C18.5773 125.707 30.635 123.441 25.5737 133.506C20.5125 143.571 31.9748 136.872 28.551 145.655C25.1272 154.437 28.2532 163.831 24.5317 161.441C20.8102 159.052 22.441 147.992 18.5705 146.678C14.7001 145.364 14.0686 143.831 17.9006 140.259C21.7327 136.686 7.85924 133.139 11.283 125.925C14.7069 118.711 10.7064 114.319 13.9626 113.203Z" fill="url(#paint4_linear_3012_12769)"/>
<path d="M23.2377 160.863C23.5921 159.36 26.619 146.128 23.7946 144.529C21.3054 143.119 21.3667 137.636 21.755 132.459C22.0988 127.876 16.2126 125.733 15.9618 125.645L15.8125 126.065C15.8707 126.086 21.6279 128.183 21.3097 132.425C20.9109 137.742 20.8682 143.385 23.5746 144.917C25.719 146.132 23.7446 156.766 22.8029 160.761L23.2377 160.863Z" fill="white"/>
<path d="M33.8688 156.152L29.8447 171.419H20.8521L16.8281 156.152H33.8688Z" fill="url(#paint5_linear_3012_12769)"/>
<path d="M33.8687 156.152C33.8687 156.152 25.01 157.816 25.01 171.419H20.8521L16.8281 156.152H33.8687Z" fill="url(#paint6_linear_3012_12769)"/>
<defs>
<linearGradient id="paint0_linear_3012_12769" x1="34.7378" y1="137.393" x2="23.1171" y2="137.393" gradientUnits="userSpaceOnUse">
<stop stop-color="#3076A1"/>
<stop offset="1" stop-color="#48C9B6"/>
</linearGradient>
<linearGradient id="paint1_linear_3012_12769" x1="25.712" y1="146.985" x2="4.58584" y2="146.985" gradientUnits="userSpaceOnUse">
<stop stop-color="#3076A1"/>
<stop offset="1" stop-color="#48C9B6"/>
</linearGradient>
<linearGradient id="paint2_linear_3012_12769" x1="23.9035" y1="150.057" x2="8.04688" y2="150.057" gradientUnits="userSpaceOnUse">
<stop stop-color="#3076A1"/>
<stop offset="1" stop-color="#48C9B6"/>
</linearGradient>
<linearGradient id="paint3_linear_3012_12769" x1="43.0692" y1="133.951" x2="19.2578" y2="133.951" gradientUnits="userSpaceOnUse">
<stop stop-color="#3076A1"/>
<stop offset="1" stop-color="#48C9B6"/>
</linearGradient>
<linearGradient id="paint4_linear_3012_12769" x1="28.8941" y1="159.943" x2="15.0303" y2="118.351" gradientUnits="userSpaceOnUse">
<stop stop-color="#3076A1"/>
<stop offset="1" stop-color="#48C9B6"/>
</linearGradient>
<linearGradient id="paint5_linear_3012_12769" x1="18.1683" y1="187.105" x2="25.1002" y2="157.223" gradientUnits="userSpaceOnUse">
<stop stop-color="#C9C4C1"/>
<stop offset="1" stop-color="#FFF6DE"/>
</linearGradient>
<linearGradient id="paint6_linear_3012_12769" x1="16.8281" y1="163.786" x2="33.8686" y2="163.786" gradientUnits="userSpaceOnUse">
<stop stop-color="#C9C4C1"/>
<stop offset="1" stop-color="#FFF6DE"/>
</linearGradient>
</defs>
</svg>
